<?xml version="1.0" encoding="UTF-8"?>
<svg version="1.1" xmlns="http://www.w3.org/2000/svg" width="365" height="365">
<path d="M0 0 C120.45 0 240.9 0 365 0 C365 120.45 365 240.9 365 365 C244.55 365 124.1 365 0 365 C0 244.55 0 124.1 0 0 Z " fill="#6C0E0F" transform="translate(0,0)"/>
<path d="M0 0 C0.73234863 0.16628906 1.46469727 0.33257812 2.21923828 0.50390625 C31.35558866 7.32238044 59.00936915 23.67886965 78 47 C78.76054687 47.91136719 79.52109375 48.82273438 80.3046875 49.76171875 C103.98317644 79.15697683 113.93123398 116.09040474 110.53808594 153.45019531 C108.00243885 176.49055566 100.25538075 198.91327926 87 218 C86.31421875 218.98871094 85.6284375 219.97742188 84.921875 220.99609375 C63.00674788 251.30676418 30.30199326 271.85675675 -6.57421875 278.4765625 C-11.72944056 279.26424747 -16.78734163 279.80205095 -22 280 C-22.70721191 280.02723145 -23.41442383 280.05446289 -24.14306641 280.08251953 C-64.55847574 281.42044376 -100.25430121 267.08953992 -130.02734375 239.91015625 C-133.25630061 236.78350298 -136.1630744 233.4838396 -139 230 C-139.76054687 229.08863281 -140.52109375 228.17726563 -141.3046875 227.23828125 C-164.63228788 198.27862782 -174.99860973 161.3787975 -171.77734375 124.44726562 C-168.61598816 95.3049102 -157.20206977 68.23397552 -138 46 C-137.34257812 45.22140625 -136.68515625 44.4428125 -136.0078125 43.640625 C-115.65819529 20.0445708 -87.11249178 5.50986816 -57 -1 C-55.86949219 -1.24621094 -54.73898438 -1.49242187 -53.57421875 -1.74609375 C-36.05907635 -4.84706524 -17.28236436 -4.0116249 0 0 Z " fill="#D4A733" transform="translate(213,44)"/>
<path d="M0 0 C0.99 0.495 0.99 0.495 2 1 C2.77589536 3.39084035 3.4636533 5.76516107 4.125 8.1875 C7.11263441 18.30944783 12.20170214 26.73369038 17.9375 35.5 C32.19715342 57.38722275 42.14681672 81.58855217 36.75 108.25 C35.38126915 114.36366444 33.19587695 120.14520683 31 126 C31.95551758 126.09498779 32.91103516 126.18997559 33.89550781 126.2878418 C91.36115996 132.07598129 91.36115996 132.07598129 101 143 C102.09537707 156.03498714 91.97618578 167.85272327 84.06640625 177.3125 C65.81307412 196.78272094 36.55152747 207.99646727 10.26123047 209.11669922 C-23.11432133 210.1919494 -55.60705075 202.67568088 -80.71826172 179.32666016 C-90.6695566 169.70174424 -99.52730279 157.18091617 -100 143 C-82.16404912 128.21292961 -52.0460946 127.72910546 -30 126 C-30.34933594 124.96359375 -30.69867188 123.9271875 -31.05859375 122.859375 C-31.51830932 121.48961023 -31.9779403 120.11981707 -32.4375 118.75 C-32.66759766 118.06808594 -32.89769531 117.38617188 -33.13476562 116.68359375 C-40.5725511 94.4780313 -36.01261124 71.18967182 -26.06152344 50.66601562 C-22.99323997 44.60085601 -19.5306282 38.96966379 -15.62841797 33.41210938 C-8.59126367 23.2991683 -3.25710249 11.86515907 0 0 Z " fill="#38352D" transform="translate(182,59)"/>
<path d="M0 0 C0.33 0 0.66 0 1 0 C1 54.78 1 109.56 1 166 C-53.78 166 -108.56 166 -165 166 C-165 165.67 -165 165.34 -165 165 C-164.44763672 164.93006836 -163.89527344 164.86013672 -163.32617188 164.78808594 C-113.88384937 158.41834182 -68.93378361 135.79370526 -38 96 C-26.61105308 81.14877711 -18.20202555 65.23870567 -11 48 C-10.60039062 47.07316406 -10.20078125 46.14632812 -9.7890625 45.19140625 C-4.12294165 31.02610412 -1.57754044 15.11613378 0 0 Z " fill="#FEFDFD" transform="translate(364,199)"/>
<path d="M0 0 C0.33 0 0.66 0 1 0 C1.17015625 1.24652344 1.3403125 2.49304688 1.515625 3.77734375 C7.64631951 47.50559318 26.10860166 87.76396613 59 118 C59.99 118.495 59.99 118.495 61 119 C61 119.66 61 120.32 61 121 C61.57621094 121.26039063 62.15242188 121.52078125 62.74609375 121.7890625 C65.16482315 123.08855317 66.98161924 124.58491383 69.0625 126.375 C97.165936 149.0549659 130.53323699 160.72386545 166 165 C166 165.33 166 165.66 166 166 C111.22 166 56.44 166 0 166 C0 111.22 0 56.44 0 0 Z " fill="#FEFEFE" transform="translate(0,199)"/>
<path d="M0 0 C54.78 0 109.56 0 166 0 C166 54.78 166 109.56 166 166 C165.67 166 165.34 166 165 166 C164.91024902 165.31711914 164.82049805 164.63423828 164.72802734 163.93066406 C161.75322656 141.81415016 156.81112638 122.06885411 147 102 C146.52457764 101.02039307 146.52457764 101.02039307 146.03955078 100.02099609 C139.75380408 87.23769681 132.02870074 74.70679281 122.14453125 64.3828125 C121 63 121 63 121 61 C120.34 61 119.68 61 119 61 C117.6953125 59.63671875 117.6953125 59.63671875 116.125 57.6875 C99.31587904 38.04227222 76.51292224 24.1618055 53 14 C52.35482422 13.72027344 51.70964844 13.44054688 51.04492188 13.15234375 C34.86531016 6.2822317 17.42998342 2.81901696 0 1 C0 0.67 0 0.34 0 0 Z " fill="#FEFEFE" transform="translate(199,0)"/>
<path d="M0 0 C54.78 0 109.56 0 166 0 C166 0.33 166 0.66 166 1 C165.31711914 1.08975098 164.63423828 1.17950195 163.93066406 1.27197266 C141.81415016 4.24677344 122.06885411 9.18887362 102 19 C101.34692871 19.31694824 100.69385742 19.63389648 100.02099609 19.96044922 C87.23769681 26.24619592 74.70679281 33.97129926 64.3828125 43.85546875 C63 45 63 45 61 45 C61 45.66 61 46.32 61 47 C59.49609375 48.48046875 59.49609375 48.48046875 57.4375 50.1875 C23.58847346 79.09897083 6.20880046 122.7975962 1 166 C0.67 166 0.34 166 0 166 C0 111.22 0 56.44 0 0 Z " fill="#FEFEFE" transform="translate(0,0)"/>
<path d="M0 0 C0.969375 0.309375 1.93875 0.61875 2.9375 0.9375 C5.70191847 1.73074086 8.33362204 2.20186773 11.1953125 2.47265625 C15.81685203 2.95368232 20.36280681 3.69588184 24.9375 4.5 C31.28380426 5.59009425 37.57673373 6.48199466 44 7 C44 7.66 44 8.32 44 9 C60.09579321 9.4324243 75.68680273 9.07852073 91 3.625 C96.46145918 1.81369639 99.72900164 2.11610949 105.109375 3.99609375 C108.43398612 5.15072221 111.74513363 5.89624372 115.1875 6.625 C116.29480469 6.86476562 117.40210938 7.10453125 118.54296875 7.3515625 C142.29765639 11.80724402 172.68974319 9.78520036 195 0 C190.24754414 17.05292986 178.33927983 29.24563639 164 39 C163.12214844 39.60585937 162.24429688 40.21171875 161.33984375 40.8359375 C135.39803365 57.33418219 100.89318311 61.37083367 71.0625 55.375 C53.52711186 51.44771952 37.13019111 44.12889471 23 33 C22.30261719 32.46890625 21.60523437 31.9378125 20.88671875 31.390625 C12.07337049 24.25516869 3.92798329 13.70892286 0 3 C0 2.01 0 1.02 0 0 Z " fill="#68090A" transform="translate(85,209)"/>
<path d="M0 0 C1.86391304 2.79586956 2.91971111 5.19813466 4.125 8.3125 C7.92278381 17.54044839 12.98800603 25.99677252 18.46704102 34.30566406 C32.27498659 55.25484736 39.30578505 78.61334948 34.875 103.625 C30.95424601 120.83984542 22.26944765 134.7832334 12 149 C9.03 148.01 6.06 147.02 3 146 C2.85458033 141.77119589 2.76588473 137.54303587 2.6875 133.3125 C2.64560547 132.11431641 2.60371094 130.91613281 2.56054688 129.68164062 C2.43556595 120.70801028 2.43556595 120.70801028 5.45703125 116.91796875 C6.29621094 116.28503906 7.13539063 115.65210938 8 115 C8.18046875 114.26652344 8.3609375 113.53304687 8.546875 112.77734375 C8.69640625 112.19082031 8.8459375 111.60429687 9 111 C10.890625 110.12890625 10.890625 110.12890625 13.25 109.5625 C17.82913588 108.24791554 19.96386871 106.62376961 23 103 C21.68 101.68 20.36 100.36 19 99 C19.99 97.515 19.99 97.515 21 96 C21.99 96 22.98 96 24 96 C23.67 95.34 23.34 94.68 23 94 C21.10466658 93.53476937 21.10466658 93.53476937 18.9375 93.375 C17.638125 93.25125 16.33875 93.1275 15 93 C15.33 92.05125 15.66 91.1025 16 90.125 C17.71645306 84.04385201 17.60563381 77.90243965 16 71.8125 C14.34452728 65.35382475 14.84313643 58.61441374 15 52 C13.35 52.66 11.7 53.32 10 54 C9.34 52.02 8.68 50.04 8 48 C7.34 48 6.68 48 6 48 C5.34 49.65 4.68 51.3 4 53 C2 53 2 53 0.375 51.5 C-0.07875 51.005 -0.5325 50.51 -1 50 C-1 50.66 -1 51.32 -1 52 C-2.32 51.34 -3.64 50.68 -5 50 C-5 49.34 -5 48.68 -5 48 C-5.66 48 -6.32 48 -7 48 C-7.12375 48.78375 -7.2475 49.5675 -7.375 50.375 C-8 53 -8 53 -10 55 C-11.65 53.68 -13.3 52.36 -15 51 C-14.98839844 52.30195312 -14.97679687 53.60390625 -14.96484375 54.9453125 C-14.95546027 56.67187356 -14.94636066 58.39843618 -14.9375 60.125 C-14.92912109 60.9809375 -14.92074219 61.836875 -14.91210938 62.71875 C-14.89455879 67.28190214 -15.15113364 71.50100829 -16 76 C-16.40325318 82.06755361 -15.99893105 87.25307322 -14 93 C-16.05078125 93.22786458 -18.1015625 93.45572917 -20.15234375 93.68359375 C-22.01140229 93.81886614 -22.01140229 93.81886614 -23 95 C-22.34 95.433125 -21.68 95.86625 -21 96.3125 C-20.34 96.869375 -19.68 97.42625 -19 98 C-19 98.99 -19 99.98 -19 101 C-20.98 101.495 -20.98 101.495 -23 102 C-20.12609695 106.08978511 -17.62976553 108.11029978 -13 110 C-11.7315625 110.0928125 -11.7315625 110.0928125 -10.4375 110.1875 C-6.34071516 111.55309495 -5.02648508 115.38350354 -3 119 C-2.67 119.33 -2.34 119.66 -2 120 C-1.91251793 121.92667507 -1.89302666 123.85651861 -1.90234375 125.78515625 C-1.90556641 126.95498047 -1.90878906 128.12480469 -1.91210938 129.33007812 C-1.92467773 131.17762695 -1.92467773 131.17762695 -1.9375 133.0625 C-1.94201172 134.29806641 -1.94652344 135.53363281 -1.95117188 136.80664062 C-1.96300392 139.87114117 -1.97948827 142.93554721 -2 146 C-4.97 146.99 -7.94 147.98 -11 149 C-27.30893279 125.24912701 -39.22049961 102.30863314 -33.875 72.5625 C-29.81427574 54.51483664 -21.23156804 39.355521 -11.18017578 24.02270508 C-6.32312223 16.53698918 -1.98891943 8.75124547 0 0 Z " fill="#FCFCFC" transform="translate(182,64)"/>
<path d="M0 0 C2 0 2 0 4.125 2 C4.74375 2.66 5.3625 3.32 6 4 C6 3.34 6 2.68 6 2 C6.99 2.33 7.98 2.66 9 3 C9 3.66 9 4.32 9 5 C9.66 5 10.32 5 11 5 C11.66 3.35 12.32 1.7 13 0 C13.66 0 14.32 0 15 0 C15.66 1.65 16.32 3.3 17 5 C18.98 4.34 20.96 3.68 23 3 C22.97679687 4.05058594 22.95359375 5.10117188 22.9296875 6.18359375 C22.82567695 13.00116045 22.7839112 19.2906077 24.54296875 25.921875 C26.07738251 32.89886748 25.26930463 38.73383279 22 45 C24.64 45 27.28 45 30 45 C30.33 45.99 30.66 46.98 31 48 C30.01 48 29.02 48 28 48 C27.13641377 49.78141747 27.13641377 49.78141747 27 52 C28.85432087 54.27144074 28.85432087 54.27144074 31 56 C29 57 27 58 25 59 C23.9790625 59.5878125 23.9790625 59.5878125 22.9375 60.1875 C20.53219003 61.19617837 18.58183152 61.14343508 16 61 C15.62875 62.051875 15.2575 63.10375 14.875 64.1875 C13.11188953 68.37808141 10.62659715 70.34049542 7 73 C3.02814384 68.894534 0.29123499 65.97031739 0 60 C-0.495 60.495 -0.495 60.495 -1 61 C-5.23745756 61.60535108 -7.48871499 60.93647336 -10.875 58.5 C-11.92724714 57.68006717 -12.97271807 56.85100278 -14 56 C-13.67 55.34 -13.34 54.68 -13 54 C-12.34 54 -11.68 54 -11 54 C-11.66 51.03 -12.32 48.06 -13 45 C-10.525 44.505 -10.525 44.505 -8 44 C-8.33 43.21625 -8.66 42.4325 -9 41.625 C-10.49642126 36.20047294 -10.5029056 30.84430214 -9.5234375 25.3046875 C-8.8288986 20.91976282 -8.64103797 16.55612169 -8.4375 12.125 C-8.37272461 10.80628906 -8.37272461 10.80628906 -8.30664062 9.4609375 C-8.20130661 7.30744203 -8.10022351 5.15373936 -8 3 C-7.38125 3.33 -6.7625 3.66 -6.125 4 C-4.08981656 5.14193235 -4.08981656 5.14193235 -2 5 C-1.34 3.35 -0.68 1.7 0 0 Z " fill="#391716" transform="translate(175,112)"/>
<path d="M0 0 C1.50390625 1.32592773 1.50390625 1.32592773 2.5625 3.18359375 C2.9642041 3.86019043 3.3659082 4.53678711 3.77978516 5.23388672 C4.18245605 5.9610791 4.58512695 6.68827148 5 7.4375 C5.86086186 8.90820666 6.72283608 10.37826279 7.5859375 11.84765625 C7.99682617 12.56195801 8.40771484 13.27625977 8.83105469 14.01220703 C10.7370998 17.25343914 12.88653923 20.31830752 15.0390625 23.3984375 C16 25 16 25 16 27 C-8.67618572 32.11802371 -33.28222231 30.7022669 -57.6875 24.5625 C-58.4714917 24.36954346 -59.2554834 24.17658691 -60.06323242 23.9777832 C-64.40170918 22.79596383 -67.15864592 21.53107591 -70 18 C-68.57241126 14.36962648 -67.14960036 13.1691396 -63.625 11.5625 C-49.88489037 5.80507617 -35.30916933 3.56575254 -20.625 1.6875 C-19.60291443 1.55660477 -19.60291443 1.55660477 -18.56018066 1.42306519 C-4.27936155 -0.37850911 -4.27936155 -0.37850911 0 0 Z " fill="#FDFDFD" transform="translate(153,187)"/>
<path d="M0 0 C13.63101561 0.65661047 26.9317016 2.07825717 40.3125 4.8125 C41.49610107 5.04855957 42.67970215 5.28461914 43.89916992 5.52783203 C63.40962447 9.70520612 63.40962447 9.70520612 70 17 C69 20 69 20 67.26757812 21.09326172 C61.7461638 23.46698766 56.40583227 25.04078099 50.5 26.125 C49.63052734 26.28967773 48.76105469 26.45435547 47.86523438 26.62402344 C26.17006439 30.61966926 5.73641892 31.13090314 -16 27 C-15.22847725 23.53471667 -14.06115717 21.4311303 -11.9375 18.5625 C-7.61965844 12.56947925 -3.81454759 6.32125029 0 0 Z " fill="#FEFEFE" transform="translate(212,187)"/>
<path d="M0 0 C3.84269274 0.17078634 5.54859116 0.57234952 8.375 3.25 C10.11305534 6.19132443 10.38229016 7.6549611 10 11 C8.49440461 9.03617993 7.10868317 7.21736634 6 5 C4.02 5 2.04 5 0 5 C-0.33 5.99 -0.66 6.98 -1 8 C1.64729071 9.09006088 4.26563614 10.08301129 7 10.9375 C9.97632631 11.99161557 12.33873869 13.31920338 15 15 C16.32608822 15.68096422 17.65686601 16.35330586 19 17 C19.33 15.02 19.66 13.04 20 11 C22.6875 10.25 22.6875 10.25 26 10 C30.28628145 12.4920241 32.16227984 15.45406066 34 20 C34 20.99 34 21.98 34 23 C37.19902639 23.08886184 39.92677456 22.91058531 43 22 C44.5625 23.4375 44.5625 23.4375 46 26 C45.96846324 29.05380927 45.53266629 31.99653222 45 35 C47.475 34.505 47.475 34.505 50 34 C50.33 32.02 50.66 30.04 51 28 C50.01 28 49.02 28 48 28 C48 27.34 48 26.68 48 26 C48.99 26 49.98 26 51 26 C50.79375 24.88625 50.5875 23.7725 50.375 22.625 C50.25125 21.42875 50.1275 20.2325 50 19 C50.66 18.34 51.32 17.68 52 17 C54.625 17.375 54.625 17.375 57 18 C57 18.99 57 19.98 57 21 C55.68 20.67 54.36 20.34 53 20 C53 21.98 53 23.96 53 26 C63.395 26.99 63.395 26.99 74 28 C73.505 25.03 73.505 25.03 73 22 C74 20.0625 74 20.0625 76 19 C81.28599454 19.09788879 84.22213451 20.3332482 88 24 C88.495 24.99 88.495 24.99 89 26 C90.65 26.33 92.3 26.66 94 27 C93.67 33.27 93.34 39.54 93 46 C91.515 45.505 91.515 45.505 90 45 C90 42.03 90 39.06 90 36 C87.36 36.33 84.72 36.66 82 37 C83.19899698 40.0831351 84.47700477 43.06279492 86 46 C83.2556051 44.95902262 82.0212861 44.02715813 80.1875 41.6875 C78.80506139 38.55882314 78.93341343 37.19975972 80 34 C81 33 81 33 82.84765625 32.90234375 C84.8984375 32.93489583 86.94921875 32.96744792 89 33 C89 32.01 89 31.02 89 30 C85.04 30.33 81.08 30.66 77 31 C77 36.28 77 41.56 77 47 C75.68 46.34 74.36 45.68 73 45 C73 40.38 73 35.76 73 31 C72.01 31 71.02 31 70 31 C70.01160156 31.56847656 70.02320313 32.13695312 70.03515625 32.72265625 C70.09223194 37.60670484 69.81956772 42.18503965 69 47 C66 45 66 45 65 42 C64.071875 42.061875 63.14375 42.12375 62.1875 42.1875 C59 42 59 42 57.125 40.8125 C55.63633684 38.41409825 55.70821692 36.77193929 56 34 C57 33 57 33 59.875 32.8125 C63 33 63 33 66 35 C66.33 33.35 66.66 31.7 67 30 C62.71 30 58.42 30 54 30 C53.855625 31.36125 53.71125 32.7225 53.5625 34.125 C53.1588645 37.77501819 52.64899213 41.38418668 52 45 C51.01 44.67 50.02 44.34 49 44 C49 42.02 49 40.04 49 38 C48.2575 38.350625 47.515 38.70125 46.75 39.0625 C43.8677274 40.04509293 42.78823655 40.0326802 40 39 C39.67 37.35 39.34 35.7 39 34 C39.99 34 40.98 34 42 34 C41.690625 33.236875 41.38125 32.47375 41.0625 31.6875 C40.32106407 29.81210323 39.63771783 27.91315348 39 26 C38.34 26 37.68 26 37 26 C36.505 28.475 36.505 28.475 36 31 C33.03 30.67 30.06 30.34 27 30 C27.495 31.485 27.495 31.485 28 33 C28.99 33.33 29.98 33.66 31 34 C31 33.34 31 32.68 31 32 C32.32 32.33 33.64 32.66 35 33 C34.7215625 34.36125 34.7215625 34.36125 34.4375 35.75 C34.04265379 38.68314324 34.05308428 40.2644657 35 43 C34.34 43 33.68 43 33 43 C32.34 42.01 31.68 41.02 31 40 C30.030625 40 29.06125 40 28.0625 40 C25 40 25 40 23.125 38.75 C22 37 22 37 22 33 C21.34 33 20.68 33 20 33 C19.67 31.68 19.34 30.36 19 29 C19.99 28.34 20.98 27.68 22 27 C22.12375 27.804375 22.2475 28.60875 22.375 29.4375 C22.58125 30.283125 22.7875 31.12875 23 32 C23.99 32.495 23.99 32.495 25 33 C25 31.02 25 29.04 25 27 C28.37817425 26.15545644 30.67465243 25.89155081 34 27 C34 26.34 34 25.68 34 25 C29.38 24.01 24.76 23.02 20 22 C18.35 26.62 16.7 31.24 15 36 C14.34 35.67 13.68 35.34 13 35 C13.52393706 29.13190493 14.76108858 24.45126259 17 19 C13.72266203 19.71399364 13.72266203 19.71399364 12.39453125 22.94140625 C11.87246094 24.13636719 11.35039063 25.33132813 10.8125 26.5625 C10.28269531 27.76003906 9.75289062 28.95757812 9.20703125 30.19140625 C8.80871094 31.11824219 8.41039063 32.04507813 8 33 C7.01 32.34 6.02 31.68 5 31 C5.99 27.535 5.99 27.535 7 24 C4.36095629 22.58622659 1.92879371 21.62759865 -1 21 C-0.649375 21.7425 -0.29875 22.485 0.0625 23.25 C1.04509293 26.1322726 1.0326802 27.21176345 0 30 C-2.68219822 24.63560356 -3.3152595 20.98993047 -3 15 C-2.01 15 -1.02 15 0 15 C0 15.66 0 16.32 0 17 C0.99 16.34 1.98 15.68 3 15 C3 14.34 3 13.68 3 13 C1.02 12.34 -0.96 11.68 -3 11 C-3.2475 11.680625 -3.495 12.36125 -3.75 13.0625 C-5.24197908 16.56865083 -7.06835511 19.71620368 -9 23 C-9.99 22.67 -10.98 22.34 -12 22 C-10.88392706 18.93079942 -9.5684654 16.29670219 -7.8125 13.5625 C-5.81557736 9.63751411 -5.78840006 8.13963313 -7 4 C-4.525 4.99 -4.525 4.99 -2 6 C-1.855625 5.195625 -1.71125 4.39125 -1.5625 3.5625 C-1 1 -1 1 0 0 Z " fill="#F3EAEA" transform="translate(107,309)"/>
<path d="M0 0 C7.05981463 0.47173877 13.76971015 1.76153034 20.66796875 3.30859375 C24.11419294 4.02369537 27.48905895 4.43697114 30.98828125 4.75390625 C33.73607042 5.09004357 36.33534461 5.80394603 39.00390625 6.5234375 C42.30539022 7.31165872 45.62774079 7.63868651 49 8 C47.79618552 10.49361571 46.54571278 12.68143083 45 15 C45.95197266 15.05406006 46.90394531 15.10812012 47.88476562 15.16381836 C58.11103743 15.76322032 68.30138201 16.60801105 78.5 17.5625 C80.01690717 17.70268964 81.5338342 17.84266444 83.05078125 17.98242188 C86.70075182 18.3191539 90.35044988 18.65873753 94 19 C92.68 20.32 91.36 21.64 90 23 C112.275 23.99 112.275 23.99 135 25 C135 25.66 135 26.32 135 27 C128.08144274 27.7199295 121.16201737 28.43103055 114.24194336 29.13623047 C111.89180348 29.37674894 109.54186342 29.61922878 107.19213867 29.86376953 C103.79918253 30.21652754 100.4055514 30.56203935 97.01171875 30.90625 C95.45634651 31.07030334 95.45634651 31.07030334 93.86955261 31.2376709 C87.22289983 31.90288829 80.67852894 32.12943981 74 32 C75.65 30.02 77.3 28.04 79 26 C75.08365717 25.53887327 71.16689841 25.08138254 67.25 24.625 C66.07743652 24.48779541 64.90487305 24.35059082 63.69677734 24.20922852 C58.12214127 23.56378817 52.54927963 22.94071912 46.9609375 22.42578125 C46.0544043 22.34183105 45.14787109 22.25788086 44.21386719 22.17138672 C42.52503758 22.01881234 40.83558085 21.87298465 39.14550781 21.73486328 C35.38087695 21.39429961 32.22337432 21.07709415 29 19 C32.465 16.525 32.465 16.525 36 14 C34.865625 13.60167969 33.73125 13.20335937 32.5625 12.79296875 C31.04165157 12.25785541 29.52081909 11.72269673 28 11.1875 C27.25621094 10.92646484 26.51242188 10.66542969 25.74609375 10.39648438 C21.42695831 8.87539754 17.12764952 7.3117101 12.84375 5.6940918 C10.23671625 4.71265682 7.61886555 3.76183876 5 2.8125 C4.05125 2.46832031 3.1025 2.12414062 2.125 1.76953125 C1.42375 1.51558594 0.7225 1.26164062 0 1 C0 0.67 0 0.34 0 0 Z " fill="#FCF9F1" transform="translate(108,269)"/>
<path d="M0 0 C3.42925666 2.72081741 4.61362113 6.47677597 6.125 10.4375 C6.38925781 11.10587891 6.65351563 11.77425781 6.92578125 12.46289062 C10.26364433 21.01086993 11.88673287 30.64862204 9.2109375 39.65625 C7.61613042 42.91890876 5.70797857 45.60070292 3 48 C0.6875 48.625 0.6875 48.625 -2 48 C-6.59086302 44.16674246 -8.96457086 39.90194612 -10 34 C-11.06449381 21.43897309 -5.80254793 10.74663671 0 0 Z " fill="#E30600" transform="translate(182,117)"/>
<path d="M0 0 C0.33 0 0.66 0 1 0 C-0.24964482 14.37091543 -9.34953252 27.40285672 -19.70703125 37.078125 C-46.57800576 59.60030466 -80.01020357 67.70687459 -114.63134766 64.77734375 C-141.88395718 61.65333119 -169.35707761 49.37714747 -187.32421875 28.26953125 C-192.94129003 20.85499716 -199 12.50293682 -199 3 C-194.05 4.98 -194.05 4.98 -189 7 C-189.33 7.66 -189.66 8.32 -190 9 C-191.98 8.34 -193.96 7.68 -196 7 C-191.14206412 25.46015634 -175.14172498 38.77350179 -159.46484375 48.12109375 C-132.24076977 62.88409216 -96.27695707 67.21492571 -66.38769531 58.72753906 C-42.63069623 51.48869885 -21.78346194 40.43491129 -8 19 C-6.1278591 15.40443967 -4.47827034 11.77367505 -3 8 C-3.56050049 8.14187744 -4.12100098 8.28375488 -4.69848633 8.42993164 C-35.5583483 16.07369718 -65.11464394 19.59214803 -96 10 C-96 9.01 -96 8.02 -96 7 C-93.36 7.99 -90.72 8.98 -88 10 C-87.71125 9.360625 -87.4225 8.72125 -87.125 8.0625 C-86 6 -86 6 -84 5 C-84.66 6.98 -85.32 8.96 -86 11 C-84.948125 11.09087891 -84.948125 11.09087891 -83.875 11.18359375 C-82.92625 11.26738281 -81.9775 11.35117188 -81 11.4375 C-80.071875 11.51871094 -79.14375 11.59992188 -78.1875 11.68359375 C-75.85036679 11.91558859 -73.51847471 12.20209524 -71.19140625 12.51953125 C-48.69155418 15.35665444 -22.17217965 12.27088164 -1 4 C-0.03122943 1.96756452 -0.03122943 1.96756452 0 0 Z " fill="#2F221B" transform="translate(282,203)"/>
<path d="M0 0 C1.2065625 0.0309375 1.2065625 0.0309375 2.4375 0.0625 C1.7775 0.3925 1.1175 0.7225 0.4375 1.0625 C0.9428125 1.97773438 1.448125 2.89296875 1.96875 3.8359375 C2.62521927 5.03633845 3.2814573 6.23686587 3.9375 7.4375 C4.27136719 8.04078125 4.60523438 8.6440625 4.94921875 9.265625 C7.4375 13.8359375 7.4375 13.8359375 7.4375 16.0625 C5.609375 15.83984375 5.609375 15.83984375 3.4375 15.0625 C1.953125 13.06640625 1.953125 13.06640625 0.6875 10.625 C0.25953125 9.82191406 -0.1684375 9.01882813 -0.609375 8.19140625 C-1.5625 6.0625 -1.5625 6.0625 -1.5625 4.0625 C-2.2225 4.3925 -2.8825 4.7225 -3.5625 5.0625 C-2.93571829 8.72422475 -1.91798154 11.9443995 -0.5 15.375 C0.04333984 16.69951172 0.04333984 16.69951172 0.59765625 18.05078125 C0.87480469 18.71464844 1.15195312 19.37851562 1.4375 20.0625 C-0.484375 19.75390625 -0.484375 19.75390625 -2.5625 19.0625 C-3.8125 16 -3.8125 16 -4.5625 13.0625 C-5.5525 13.7225 -6.5425 14.3825 -7.5625 15.0625 C-6.9025 15.7225 -6.2425 16.3825 -5.5625 17.0625 C-5.375 19.625 -5.375 19.625 -5.5625 22.0625 C-6.5625 23.0625 -6.5625 23.0625 -9.25 23.4375 C-13.78189151 22.92445568 -15.3008612 21.16882266 -18.5625 18.0625 C-18.2325 17.4025 -17.9025 16.7425 -17.5625 16.0625 C-17.19125 16.536875 -16.82 17.01125 -16.4375 17.5 C-13.93603038 19.58455802 -11.74656582 19.70871491 -8.5625 20.0625 C-9.0575 18.5775 -9.0575 18.5775 -9.5625 17.0625 C-12.06697516 15.84380071 -12.06697516 15.84380071 -14.5625 15.0625 C-14.5625 14.4025 -14.5625 13.7425 -14.5625 13.0625 C-11.0975 11.0825 -11.0975 11.0825 -7.5625 9.0625 C-7.5625 8.4025 -7.5625 7.7425 -7.5625 7.0625 C-8.40554687 7.495625 -9.24859375 7.92875 -10.1171875 8.375 C-11.21289062 8.931875 -12.30859375 9.48875 -13.4375 10.0625 C-15.07332031 10.8978125 -15.07332031 10.8978125 -16.7421875 11.75 C-19.5625 13.0625 -19.5625 13.0625 -21.5625 13.0625 C-21.27375 13.89394531 -20.985 14.72539062 -20.6875 15.58203125 C-20.31625 16.66871094 -19.945 17.75539063 -19.5625 18.875 C-19.19125 19.95394531 -18.82 21.03289062 -18.4375 22.14453125 C-17.5625 25.0625 -17.5625 25.0625 -17.5625 28.0625 C-18.5525 28.0625 -19.5425 28.0625 -20.5625 28.0625 C-21.0575 26.0825 -21.0575 26.0825 -21.5625 24.0625 C-22.8825 24.3925 -24.2025 24.7225 -25.5625 25.0625 C-25.8925 26.3825 -26.2225 27.7025 -26.5625 29.0625 C-28.9375 28.8125 -28.9375 28.8125 -31.5625 28.0625 C-32.875 26 -32.875 26 -33.5625 24.0625 C-32.9025 24.0625 -32.2425 24.0625 -31.5625 24.0625 C-31.8925 21.7525 -32.2225 19.4425 -32.5625 17.0625 C-35.8625 17.7225 -39.1625 18.3825 -42.5625 19.0625 C-42.5625 20.3825 -42.5625 21.7025 -42.5625 23.0625 C-40.9125 22.7325 -39.2625 22.4025 -37.5625 22.0625 C-33.62403846 26.37019231 -33.62403846 26.37019231 -33.3125 29.875 C-33.395 30.596875 -33.4775 31.31875 -33.5625 32.0625 C-34.5525 32.0625 -35.5425 32.0625 -36.5625 32.0625 C-36.5625 30.0825 -36.5625 28.1025 -36.5625 26.0625 C-37.5525 26.0625 -38.5425 26.0625 -39.5625 26.0625 C-39.8925 29.0325 -40.2225 32.0025 -40.5625 35.0625 C-41.5525 34.7325 -42.5425 34.4025 -43.5625 34.0625 C-43.5625 33.0725 -43.5625 32.0825 -43.5625 31.0625 C-44.9546875 31.4028125 -44.9546875 31.4028125 -46.375 31.75 C-49.5625 32.0625 -49.5625 32.0625 -51.5 30.9375 C-52.5625 29.0625 -52.5625 29.0625 -52.25 26.375 C-52.023125 25.611875 -51.79625 24.84875 -51.5625 24.0625 C-47.8125 22.9375 -47.8125 22.9375 -45.5625 24.0625 C-45.5625 22.7425 -45.5625 21.4225 -45.5625 20.0625 C-48.8625 20.7225 -52.1625 21.3825 -55.5625 22.0625 C-55.8925 21.4025 -56.2225 20.7425 -56.5625 20.0625 C-52.9464091 18.46930456 -49.65782597 17.66277422 -45.75 17.125 C-41.98842694 16.54665236 -38.59780136 15.85029398 -35.0625 14.4375 C-31.5625 13.0625 -31.5625 13.0625 -27.5625 13.0625 C-27.5625 13.7225 -27.5625 14.3825 -27.5625 15.0625 C-28.2225 15.7225 -28.8825 16.3825 -29.5625 17.0625 C-29.24208603 19.66530568 -29.24208603 19.66530568 -28.5625 22.0625 C-26.9125 21.7325 -25.2625 21.4025 -23.5625 21.0625 C-23.81811323 18.7193787 -24.15520772 16.38406597 -24.5625 14.0625 C-25.2225 13.7325 -25.8825 13.4025 -26.5625 13.0625 C-23.8431004 10.90846655 -21.197655 9.28915265 -18.05078125 7.8359375 C-17.21095703 7.4440625 -16.37113281 7.0521875 -15.50585938 6.6484375 C-14.63767578 6.24882812 -13.76949219 5.84921875 -12.875 5.4375 C-11.14106121 4.63467999 -9.40794166 3.83008737 -7.67578125 3.0234375 C-6.91048096 2.67071777 -6.14518066 2.31799805 -5.35668945 1.95458984 C-1.49911601 0.03656381 -1.49911601 0.03656381 0 0 Z " fill="#F6EEEE" transform="translate(261.5625,315.9375)"/>
<path d="M0 0 C2.70567626 1.82339052 4.53728718 3.07457436 6 6 C8.475 6.495 8.475 6.495 11 7 C10.67 13.27 10.34 19.54 10 26 C9.01 25.67 8.02 25.34 7 25 C7 22.03 7 19.06 7 16 C3.04 16.495 3.04 16.495 -1 17 C0.19899698 20.0831351 1.47700477 23.06279492 3 26 C0.2556051 24.95902262 -0.9787139 24.02715813 -2.8125 21.6875 C-4.19493861 18.55882314 -4.06658657 17.19975972 -3 14 C-2 13 -2 13 -0.15234375 12.90234375 C1.8984375 12.93489583 3.94921875 12.96744792 6 13 C6 12.01 6 11.02 6 10 C0.06 10.495 0.06 10.495 -6 11 C-6 16.28 -6 21.56 -6 27 C-7.32 26.34 -8.64 25.68 -10 25 C-10 20.38 -10 15.76 -10 11 C-10.99 11 -11.98 11 -13 11 C-12.98839844 11.56847656 -12.97679687 12.13695312 -12.96484375 12.72265625 C-12.90776806 17.60670484 -13.18043228 22.18503965 -14 27 C-17 25 -17 25 -18 22 C-18.928125 22.061875 -19.85625 22.12375 -20.8125 22.1875 C-24 22 -24 22 -25.875 20.8125 C-27.36366316 18.41409825 -27.29178308 16.77193929 -27 14 C-26 13 -26 13 -23.125 12.8125 C-20 13 -20 13 -17 15 C-16.67 13.35 -16.34 11.7 -16 10 C-18.97 9.67 -21.94 9.34 -25 9 C-25 8.67 -25 8.34 -25 8 C-19.72 8 -14.44 8 -9 8 C-9.33 6.02 -9.66 4.04 -10 2 C-7.76013236 -2.33974356 -4.14022458 -1.07074774 0 0 Z " fill="#EEE0E0" transform="translate(190,329)"/>
<path d="M0 0 C2.625 0.375 2.625 0.375 5 1 C5 1.99 5 2.98 5 4 C3.68 3.67 2.36 3.34 1 3 C1 4.98 1 6.96 1 9 C6.445 9.495 6.445 9.495 12 10 C9 13 9 13 5.3125 13.1875 C4.219375 13.125625 3.12625 13.06375 2 13 C1.90912109 13.87011719 1.90912109 13.87011719 1.81640625 14.7578125 C1.33983439 19.20092863 0.78991334 23.59905423 0 28 C-0.99 27.67 -1.98 27.34 -3 27 C-3 25.02 -3 23.04 -3 21 C-3.7425 21.350625 -4.485 21.70125 -5.25 22.0625 C-8.1322726 23.04509293 -9.21176345 23.0326802 -12 22 C-12.495 19.525 -12.495 19.525 -13 17 C-12.01 17 -11.02 17 -10 17 C-10.309375 16.236875 -10.61875 15.47375 -10.9375 14.6875 C-11.67893593 12.81210323 -12.36228217 10.91315348 -13 9 C-13.66 9 -14.32 9 -15 9 C-15.33 10.65 -15.66 12.3 -16 14 C-18.97 13.67 -21.94 13.34 -25 13 C-24.67 13.99 -24.34 14.98 -24 16 C-23.01 16.33 -22.02 16.66 -21 17 C-21 16.34 -21 15.68 -21 15 C-19.68 15.33 -18.36 15.66 -17 16 C-17.185625 16.9075 -17.37125 17.815 -17.5625 18.75 C-17.95734621 21.68314324 -17.94691572 23.2644657 -17 26 C-17.66 26 -18.32 26 -19 26 C-19.66 25.01 -20.32 24.02 -21 23 C-21.969375 23 -22.93875 23 -23.9375 23 C-27 23 -27 23 -28.875 21.75 C-30 20 -30 20 -30 16 C-30.66 16 -31.32 16 -32 16 C-32.33 14.68 -32.66 13.36 -33 12 C-32.01 11.34 -31.02 10.68 -30 10 C-29.814375 11.2065625 -29.814375 11.2065625 -29.625 12.4375 C-29.41875 13.283125 -29.2125 14.12875 -29 15 C-28.34 15.33 -27.68 15.66 -27 16 C-27 14.02 -27 12.04 -27 10 C-23.62182575 9.15545644 -21.32534757 8.89155081 -18 10 C-18 8.68 -18 7.36 -18 6 C-17.2575 6.020625 -16.515 6.04125 -15.75 6.0625 C-13.29537721 6.00671312 -11.33890739 5.6930096 -9 5 C-7.4375 6.4375 -7.4375 6.4375 -6 9 C-6.03153676 12.05380927 -6.46733371 14.99653222 -7 18 C-5.35 17.67 -3.7 17.34 -2 17 C-1.67 15.02 -1.34 13.04 -1 11 C-1.99 11 -2.98 11 -4 11 C-4 10.34 -4 9.68 -4 9 C-3.01 9 -2.02 9 -1 9 C-1.20625 7.88625 -1.4125 6.7725 -1.625 5.625 C-1.74875 4.42875 -1.8725 3.2325 -2 2 C-1.34 1.34 -0.68 0.68 0 0 Z " fill="#E9D8D8" transform="translate(159,326)"/>
<path d="M0 0 C2.8100346 1.79363911 4.50940468 3.01880935 6 6 C6.42070387 9.05911811 6.48077115 11.94631074 6 15 C3.56246638 18.09632649 1.26549269 19.82300487 -2 22 C-6.21178243 22.46797583 -8.28599114 22.46565795 -11.875 20.125 C-14.69974128 17.30025872 -15.20274282 15.64566229 -15.375 11.75 C-15.35207487 8.19660432 -14.89656284 6.25259968 -12.625 3.5 C-8.68100344 -0.2561872 -5.34691301 -0.76823463 0 0 Z " fill="#F8F3F3" transform="translate(297,54)"/>
<path d="M0 0 C2.97672584 1.77280561 5.42804007 3.85608015 7 7 C7.55512815 11.63213493 7.6364242 14.98172127 5.125 19 C1.61492364 22.30360128 -1.06433143 22.3931012 -5.73828125 22.35546875 C-9.35701199 21.78672178 -10.88030223 19.84834388 -13 17 C-14.21762731 13.34711807 -14.39075851 10.84245864 -14 7 C-10.4152314 0.994175 -6.9020188 -0.69020188 0 0 Z " fill="#FAF6F6" transform="translate(136,18)"/>
<path d="M0 0 C4.13503177 2.55978157 6.69143448 5.73803288 9 10 C8.76178398 12.4762006 8.42770055 13.61152058 6.57299805 15.29614258 C5.97527588 15.65861084 5.37755371 16.0210791 4.76171875 16.39453125 C4.10623047 16.79220703 3.45074219 17.18988281 2.77539062 17.59960938 C2.08638672 17.99986328 1.39738281 18.40011719 0.6875 18.8125 C0.01009766 19.23208984 -0.66730469 19.65167969 -1.36523438 20.08398438 C-2.02458984 20.47521484 -2.68394531 20.86644531 -3.36328125 21.26953125 C-3.96438721 21.62635986 -4.56549316 21.98318848 -5.18481445 22.35083008 C-7.50971818 23.18229195 -8.71927525 22.86959209 -11 22 C-13.80559188 18.52764709 -15.27180555 14.23584003 -15.625 9.8125 C-14.90506291 5.42088378 -14.90506291 5.42088378 -12.1875 3.0625 C-7.95823599 0.32591741 -4.99956298 -0.4999563 0 0 Z " fill="#F9F5F5" transform="translate(47,252)"/>
<path d="M0 0 C5.14595054 0.57618751 9.55078055 1.74743278 14.4375 3.5625 C15.67371094 4.01753906 16.90992188 4.47257813 18.18359375 4.94140625 C19.11300781 5.29074219 20.04242188 5.64007813 21 6 C20.2238394 11.90149701 18.88387483 16.37225383 14.70703125 20.7421875 C13 22 13 22 9.5 22.6875 C5.45261761 21.89247846 3.1860133 20.59326664 0 18 C-2.22698735 14.65951897 -2.2711921 13.46714419 -2.25 9.5625 C-2.25515625 8.61503906 -2.2603125 7.66757813 -2.265625 6.69140625 C-1.99748089 3.97447547 -1.38531142 2.32534417 0 0 Z " fill="#F7F2F2" transform="translate(327,223)"/>
<path d="M0 0 C2.92354342 1.82891437 5.43371681 3.86743363 7 7 C7.08362715 10.0942044 6.79361144 13.00664679 6 16 C2.53542967 19.55340546 -0.40859178 21.16551854 -5.3125 21.4375 C-9.21480323 21.38085366 -9.85437903 21.11887426 -13.0625 18.5 C-15.71025581 14.61110865 -15.65676891 11.59738237 -15 7 C-11.5534207 1.12805008 -6.70951445 -0.95850206 0 0 Z " fill="#F9F5F5" transform="translate(325,89)"/>
<path d="M0 0 C2.54173977 -0.02716824 5.08318415 -0.04691969 7.625 -0.0625 C8.33785156 -0.07087891 9.05070312 -0.07925781 9.78515625 -0.08789062 C13.97344438 -0.10710296 17.8728462 0.1732673 22 1 C22 3.31 22 5.62 22 8 C17.05 9.485 17.05 9.485 12 11 C14.22825644 13.22825644 15.65761628 13.69239369 18.625 14.625 C19.44226563 14.88539063 20.25953125 15.14578125 21.1015625 15.4140625 C21.72804688 15.60742188 22.35453125 15.80078125 23 16 C23 18.31 23 20.62 23 23 C12.11 23.495 12.11 23.495 1 24 C1 22.35 1 20.7 1 19 C6.445 18.01 6.445 18.01 12 17 C8.37 16.01 4.74 15.02 1 14 C1 12.35 1 10.7 1 9 C4.63 8.01 8.26 7.02 12 6 C8.04 5.67 4.08 5.34 0 5 C0 3.35 0 1.7 0 0 Z " fill="#F4ECEC" transform="translate(332,170)"/>
<path d="M0 0 C1.84651134 3.11598788 2.38079379 5.38245897 2 9 C1.34 9.66 0.68 10.32 0 11 C4.02167317 13.96837781 7.00088076 15.52389341 12 16 C12.33 15.34 12.66 14.68 13 14 C13.15855469 14.60328125 13.31710938 15.2065625 13.48046875 15.828125 C14.99745394 21.02442785 16.20245726 24.0177437 21 27 C24.97185616 22.894534 27.70876501 19.97031739 28 14 C28.495 14.99 28.495 14.99 29 16 C29.60328125 15.79503906 30.2065625 15.59007812 30.828125 15.37890625 C31.62734375 15.10949219 32.4265625 14.84007812 33.25 14.5625 C34.03890625 14.29566406 34.8278125 14.02882812 35.640625 13.75390625 C37.74821988 13.08045292 39.84753973 12.50849405 42 12 C38.65881918 15.57983659 36.26231859 17.89716734 31.25 18.125 C30.5075 18.08375 29.765 18.0425 29 18 C28.896875 18.7425 28.79375 19.485 28.6875 20.25 C27.95066203 23.1973519 27.05200858 24.78383074 25 27 C24.34 27 23.68 27 23 27 C23 36.24 23 45.48 23 55 C20.03 55.66 17.06 56.32 14 57 C11.91630522 57.49849157 9.83293672 57.99835032 7.75 58.5 C-6.53692492 61.74253941 -23.48059002 64.78109635 -38 61 C-38 60.67 -38 60.34 -38 60 C-37.25540527 59.98018066 -36.51081055 59.96036133 -35.74365234 59.93994141 C-17.59530253 59.55955492 -17.59530253 59.55955492 0.3984375 57.40234375 C2.97689196 57.00357377 5.39560404 56.92897102 8 57 C8.495 56.01 8.495 56.01 9 55 C10.84765625 54.3671875 10.84765625 54.3671875 13.0625 53.875 C14.16271484 53.62363281 14.16271484 53.62363281 15.28515625 53.3671875 C16.13400391 53.18542969 16.13400391 53.18542969 17 53 C17.11633933 48.77106532 17.18729952 44.54254326 17.25 40.3125 C17.28351563 39.11431641 17.31703125 37.91613281 17.3515625 36.68164062 C17.36445313 35.52470703 17.37734375 34.36777344 17.390625 33.17578125 C17.41157227 32.11270752 17.43251953 31.04963379 17.45410156 29.9543457 C16.89213144 26.29821643 15.4344534 24.7186297 13 22 C12.25 19.6875 12.25 19.6875 12 18 C10.96875 17.9175 9.9375 17.835 8.875 17.75 C4.61559033 16.92559813 2.34537928 15.72298313 -1 13 C-2.375 10.75 -2.375 10.75 -3 9 C-1.68 8.67 -0.36 8.34 1 8 C-0.29299694 5.11562221 -1.65941363 3.12780579 -4 1 C-2 0 -2 0 0 0 Z " fill="#3D351B" transform="translate(162,157)"/>
<path d="M0 0 C2.13239332 2.13239332 2.47555358 3.06205706 3.25390625 5.88671875 C3.46853516 6.66080078 3.68316406 7.43488281 3.90429688 8.23242188 C4.12150391 9.04259766 4.33871094 9.85277344 4.5625 10.6875 C4.78357422 11.47833984 5.00464844 12.26917969 5.23242188 13.08398438 C10.3961671 31.97611571 7.7696629 48.95027455 1 67 C2.43327637 67.14248169 2.43327637 67.14248169 3.89550781 67.2878418 C40.26313053 70.9509147 40.26313053 70.9509147 56 76 C57.06992187 76.3403125 58.13984375 76.680625 59.2421875 77.03125 C64.29259097 78.84646748 67.55682534 80.86819041 71 85 C70.01 85.495 70.01 85.495 69 86 C68.46761719 85.39027344 67.93523437 84.78054687 67.38671875 84.15234375 C52.38109697 70.62026912 18.87725428 71.03673152 0 70 C-0.60328125 71.01320313 -1.2065625 72.02640625 -1.828125 73.0703125 C-2.63533669 74.42192277 -3.44263286 75.77348259 -4.25 77.125 C-4.64574219 77.79015625 -5.04148438 78.4553125 -5.44921875 79.140625 C-7.86051463 83.17262795 -10.36049914 87.11339553 -13 91 C-13.66 90.34 -14.32 89.68 -15 89 C-14.5875 88.46375 -14.175 87.9275 -13.75 87.375 C0.00975778 68.70104302 8.1260815 45.94934939 4.63525391 22.55566406 C3.26244179 15.22330097 1.4626624 8.0441019 -1 1 C-0.67 0.67 -0.34 0.34 0 0 Z " fill="#454136" transform="translate(212,118)"/>
<path d="M0 0 C0.40625 2.6953125 0.40625 2.6953125 0 6 C-2.18762413 7.96525575 -4.03406315 9.36775377 -6.5 10.875 C-7.12003906 11.2771875 -7.74007813 11.679375 -8.37890625 12.09375 C-9.90727758 13.08131301 -11.45216384 14.04323314 -13 15 C-12.27425781 14.83628906 -11.54851563 14.67257813 -10.80078125 14.50390625 C-8.17961269 14.03231525 -5.84302133 13.89786535 -3.1875 13.9375 C-2.39730469 13.94652344 -1.60710938 13.95554688 -0.79296875 13.96484375 C0.09455078 13.98224609 0.09455078 13.98224609 1 14 C1.33 15.32 1.66 16.64 2 18 C-5.31074682 19.66594452 -12.52165033 20.51172287 -20 21 C-20.33 19.02 -20.66 17.04 -21 15 C-17.37 12.36 -13.74 9.72 -10 7 C-13.96 7 -17.92 7 -22 7 C-22 5.68 -22 4.36 -22 3 C-6.56442505 -0.19892197 -6.56442505 -0.19892197 0 0 Z " fill="#F5EDED" transform="translate(33,193)"/>
<path d="M0 0 C6.8782384 -0.22551601 13.29846948 0.36051843 20 2 C21 3 21 3 21 8 C16.38 9.65 11.76 11.3 7 13 C8.73605513 14.73605513 11.20549496 14.65611982 13.5625 15.0625 C15.08037109 15.32740234 15.08037109 15.32740234 16.62890625 15.59765625 C17.41136719 15.73042969 18.19382812 15.86320313 19 16 C19 17.32 19 18.64 19 20 C11.83437211 20.28100502 5.05453001 19.20443195 -2 18 C-2.93423645 14.98968256 -3.04449911 14.13349732 -2 11 C0.50390625 9.61328125 0.50390625 9.61328125 3.5625 8.3125 C4.57441406 7.87550781 5.58632813 7.43851563 6.62890625 6.98828125 C7.41136719 6.66214844 8.19382812 6.33601562 9 6 C5.7 5.34 2.4 4.68 -1 4 C-0.67 2.68 -0.34 1.36 0 0 Z " fill="#F6EFEF" transform="translate(14,147)"/>
<path d="M0 0 C6.27 2.97 12.54 5.94 19 9 C18.12156751 13.39216246 17.20277083 16.18751202 15 20 C12 22 12 22 8.9375 21.9375 C7.968125 21.628125 6.99875 21.31875 6 21 C5.34 19.35 4.68 17.7 4 16 C0.37 15.67 -3.26 15.34 -7 15 C-6.34 13.35 -5.68 11.7 -5 10 C-2.03 10 0.94 10 4 10 C4 9.34 4 8.68 4 8 C2.02 7.01 0.04 6.02 -2 5 C-1.34 3.35 -0.68 1.7 0 0 Z " fill="#F8F3F3" transform="translate(319,245)"/>
<path d="M0 0 C2.475 0.99 2.475 0.99 5 2 C5 6.62 5 11.24 5 16 C7.97 11.545 7.97 11.545 11 7 C12.32 7.66 13.64 8.32 15 9 C13.48103632 13.43170173 11.07360191 17.03024076 8.375 20.8125 C7.95476562 21.40998047 7.53453125 22.00746094 7.1015625 22.62304688 C6.07220272 24.08520565 5.0367177 25.54304899 4 27 C1.525 26.01 1.525 26.01 -1 25 C-1 20.05 -1 15.1 -1 10 C-3.97 14.95 -3.97 14.95 -7 20 C-9.475 19.01 -9.475 19.01 -12 18 C-8.15717678 11.87584657 -4.27631922 5.83134439 0 0 Z " fill="#F8F3F3" transform="translate(270,35)"/>
<path d="M0 0 C2 3 2 3 1.75390625 5.35546875 C0.97234297 8.09701456 0.0263205 10.67825686 -1.0625 13.3125 C-1.42472656 14.19550781 -1.78695312 15.07851563 -2.16015625 15.98828125 C-2.43730469 16.65214844 -2.71445312 17.31601562 -3 18 C-2.46890625 17.566875 -1.9378125 17.13375 -1.390625 16.6875 C-0.68421875 16.130625 0.0221875 15.57375 0.75 15 C1.44609375 14.443125 2.1421875 13.88625 2.859375 13.3125 C5 12 5 12 9 12 C9.33 12.99 9.66 13.98 10 15 C7.75627625 16.82077582 5.50566562 18.63162485 3.25 20.4375 C2.61578125 20.95376953 1.9815625 21.47003906 1.328125 22.00195312 C0.709375 22.49501953 0.090625 22.98808594 -0.546875 23.49609375 C-1.11245117 23.95169678 -1.67802734 24.4072998 -2.26074219 24.87670898 C-4.16076129 26.10382688 -5.7911709 26.57473693 -8 27 C-10 24 -10 24 -9.75390625 21.64453125 C-8.5094233 17.27916876 -6.73343707 13.19379937 -5 9 C-9.455 12.96 -9.455 12.96 -14 17 C-14.99 16.67 -15.98 16.34 -17 16 C-17.33 15.01 -17.66 14.02 -18 13 C-15.38145079 10.82543857 -12.75414116 8.66173829 -10.125 6.5 C-9.37863281 5.87996094 -8.63226563 5.25992187 -7.86328125 4.62109375 C-7.14785156 4.03457031 -6.43242188 3.44804687 -5.6953125 2.84375 C-5.03547363 2.29912109 -4.37563477 1.75449219 -3.69580078 1.19335938 C-2 0 -2 0 0 0 Z " fill="#F9F4F4" transform="translate(61,270)"/>
<path d="M0 0 C0.33 1.65 0.66 3.3 1 5 C-0.98 5.99 -0.98 5.99 -3 7 C-2.67 8.98 -2.34 10.96 -2 13 C0.97 13.495 0.97 13.495 4 14 C4.33 15.65 4.66 17.3 5 19 C-2.59 19 -10.18 19 -18 19 C-18.33 16.69 -18.66 14.38 -19 12 C-2.63106796 0 -2.63106796 0 0 0 Z " fill="#ECDEDE" transform="translate(36,216)"/>
<path d="M0 0 C1.65 0.33 3.3 0.66 5 1 C4.34 3.64 3.68 6.28 3 9 C4.98 9.66 6.96 10.32 9 11 C9.99 9.02 10.98 7.04 12 5 C14.475 5.495 14.475 5.495 17 6 C15.55676531 10.73789165 13.62773267 14.98858151 11.375 19.375 C11.05015625 20.01566406 10.7253125 20.65632813 10.390625 21.31640625 C9.59742593 22.87947501 8.79922969 24.44000622 8 26 C6.68 25.67 5.36 25.34 4 25 C4.48578543 21.87709365 4.9986012 19.00419641 6 16 C4.02 15.34 2.04 14.68 0 14 C-0.99 16.31 -1.98 18.62 -3 21 C-5.475 20.01 -5.475 20.01 -8 19 C-6.00386732 12.2813095 -3.2708579 6.19265192 0 0 Z " fill="#F9F5F5" transform="translate(245,23)"/>
<path d="M0 0 C5.08044173 2.00854673 6.77715951 5.22500931 9 10 C9.25 12.9375 9.25 12.9375 9 15 C7.68 15 6.36 15 5 15 C4.54625 13.88625 4.0925 12.7725 3.625 11.625 C2.27534014 8.03800992 2.27534014 8.03800992 0 6 C-5.03505052 6.23864442 -5.03505052 6.23864442 -9 9 C-9.16681109 12.08347826 -9.16681109 12.08347826 -9 15 C-8.01 15 -7.02 15 -6 15 C-5.67 13.68 -5.34 12.36 -5 11 C-3.68 11 -2.36 11 -1 11 C-0.34 13.31 0.32 15.62 1 18 C-0.40691607 18.72750788 -1.82606022 19.43140353 -3.25 20.125 C-4.03890625 20.51945312 -4.8278125 20.91390625 -5.640625 21.3203125 C-8 22 -8 22 -10.21875 21.24609375 C-12.80776254 19.4349205 -13.21683191 18.06740835 -14 15 C-14.42097494 11.90723744 -14.56356941 9.08010211 -14 6 C-9.71448494 0.58671782 -6.79811205 -0.46088895 0 0 Z " fill="#F7F0F0" transform="translate(336,113)"/>
<path d="M0 0 C3.15173867 1.35158831 4.81408764 2.69121836 6.796875 5.4765625 C7.28027344 6.146875 7.76367188 6.8171875 8.26171875 7.5078125 C8.75285156 8.20648438 9.24398438 8.90515625 9.75 9.625 C10.25660156 10.33140625 10.76320313 11.0378125 11.28515625 11.765625 C12.53096207 13.505052 13.7664963 15.25182752 15 17 C14.01 18.65 13.02 20.3 12 22 C4.16008251 21.52960495 -2.72071135 18.77062812 -10 16 C-9.34 14.35 -8.68 12.7 -8 11 C-5.69 11.66 -3.38 12.32 -1 13 C0.0089034 8.76353233 0.0089034 8.76353233 -0.9375 4.625 C-1.288125 4.08875 -1.63875 3.5525 -2 3 C-1.34 2.01 -0.68 1.02 0 0 Z " fill="#F8F3F3" transform="translate(309,263)"/>
<path d="M0 0 C4.49324849 1.65770333 8.61186146 3.84982162 12.8125 6.125 C13.50537109 6.49753906 14.19824219 6.87007812 14.91210938 7.25390625 C16.60934836 8.16690377 18.30485138 9.08312716 20 10 C20 12.31 20 14.62 20 17 C12.26940505 18.35709504 4.85546636 19.31918373 -3 19 C-2.67 17.35 -2.34 15.7 -2 14 C-0.35 13.67 1.3 13.34 3 13 C3.33 11.02 3.66 9.04 4 7 C2.68 6.34 1.36 5.68 0 5 C0 3.35 0 1.7 0 0 Z " fill="#F7F2F2" transform="translate(332,198)"/>
<path d="M0 0 C10.28741763 8.30906809 10.28741763 8.30906809 13 13 C13.13700128 17.04153773 12.64901116 19.05144523 10.375 22.375 C6.99745062 24.68595484 5.12036079 25.20601804 1 25 C-4.2330531 21.69700831 -8.22535006 16.83627023 -12 12 C-10.68 11.01 -9.36 10.02 -8 9 C-7.33613281 9.721875 -6.67226563 10.44375 -5.98828125 11.1875 C-5.10527344 12.115625 -4.22226562 13.04375 -3.3125 14 C-2.44238281 14.928125 -1.57226562 15.85625 -0.67578125 16.8125 C1.7950991 19.23738163 1.7950991 19.23738163 4.83203125 19.3125 C5.54746094 19.209375 6.26289062 19.10625 7 19 C7.42028927 16.72487909 7.42028927 16.72487909 7 14 C4.82605456 11.22073274 4.82605456 11.22073274 2 8.6875 C1.071875 7.80449219 0.14375 6.92148437 -0.8125 6.01171875 C-1.534375 5.34785156 -2.25625 4.68398438 -3 4 C-2.01 2.68 -1.02 1.36 0 0 Z " fill="#F9F5F5" transform="translate(66,55)"/>
<path d="M0 0 C0.33 0 0.66 0 1 0 C1.14695312 0.98097656 1.29390625 1.96195313 1.4453125 2.97265625 C4.14116743 19.70410654 10.65429682 33.00482898 20 47 C20.39413086 47.59280762 20.78826172 48.18561523 21.19433594 48.79638672 C22.12766932 50.19884942 23.06353889 51.59962383 24 53 C23.01 53.99 23.01 53.99 22 55 C16.47018069 46.44744988 11.20800632 37.75086777 6 29 C-29.57391409 30.28473408 -29.57391409 30.28473408 -62 43 C-63.82062712 46.09885257 -63.82062712 46.09885257 -64 49 C-64.33 49 -64.66 49 -65 49 C-65.5625 46.375 -65.5625 46.375 -65 43 C-50.80075811 27.2625069 -14.37987318 27.51999005 5 26 C4.47599609 24.53240234 4.47599609 24.53240234 3.94140625 23.03515625 C1.48901707 16.02590243 -0.74602908 9.49214227 -1 2 C-0.67 1.34 -0.34 0.68 0 0 Z " fill="#413D34" transform="translate(147,159)"/>
<path d="M0 0 C0.78761719 0.00257812 1.57523438 0.00515625 2.38671875 0.0078125 C3.55654297 0.00394531 3.55654297 0.00394531 4.75 0 C6.98673414 0.12781338 8.92688854 0.51367381 11.07421875 1.1328125 C11.07421875 2.4528125 11.07421875 3.7728125 11.07421875 5.1328125 C8.10421875 4.8028125 5.13421875 4.4728125 2.07421875 4.1328125 C2.40421875 5.4528125 2.73421875 6.7728125 3.07421875 8.1328125 C6.04421875 8.6278125 6.04421875 8.6278125 9.07421875 9.1328125 C9.07421875 10.4528125 9.07421875 11.7728125 9.07421875 13.1328125 C6.43421875 13.1328125 3.79421875 13.1328125 1.07421875 13.1328125 C1.40421875 14.4528125 1.73421875 15.7728125 2.07421875 17.1328125 C4.38421875 17.4628125 6.69421875 17.7928125 9.07421875 18.1328125 C9.07421875 19.7828125 9.07421875 21.4328125 9.07421875 23.1328125 C7.30302072 22.99147751 5.53226588 22.84458042 3.76171875 22.6953125 C2.77558594 22.61410156 1.78945312 22.53289063 0.7734375 22.44921875 C-1.92578125 22.1328125 -1.92578125 22.1328125 -4.92578125 21.1328125 C-3.44899526 0.23786174 -3.44899526 0.23786174 0 0 Z " fill="#F4ECEC" transform="translate(202.92578125,11.8671875)"/>
<path d="M0 0 C0 0.99 0 1.98 0 3 C-3 5.1875 -3 5.1875 -6 7 C-5.34 7.66 -4.68 8.32 -4 9 C-3.4225 8.649375 -2.845 8.29875 -2.25 7.9375 C0.35801776 6.85082593 1.39417629 7.06934867 4 8 C3.67 8.99 3.34 9.98 3 11 C0.4375 12.1875 0.4375 12.1875 -2 13 C-1.67 13.99 -1.34 14.98 -1 16 C2.02419525 15.41196203 5.01758453 14.77321882 8 14 C8.33 15.32 8.66 16.64 9 18 C7.37829621 19.00533667 5.75252763 20.00411907 4.125 21 C3.22007813 21.556875 2.31515625 22.11375 1.3828125 22.6875 C-1 24 -1 24 -3 24 C-6.3 18.06 -9.6 12.12 -13 6 C-5.25 -1.75 -5.25 -1.75 0 0 Z " fill="#F8F3F3" transform="translate(105,31)"/>
<path d="M0 0 C-0.99 0.495 -0.99 0.495 -2 1 C-1.4946875 1.91523438 -0.989375 2.83046875 -0.46875 3.7734375 C0.18771927 4.97383845 0.8439573 6.17436587 1.5 7.375 C1.83386719 7.97828125 2.16773438 8.5815625 2.51171875 9.203125 C5 13.7734375 5 13.7734375 5 16 C3.171875 15.77734375 3.171875 15.77734375 1 15 C-0.484375 13.00390625 -0.484375 13.00390625 -1.75 10.5625 C-2.17796875 9.75941406 -2.6059375 8.95632813 -3.046875 8.12890625 C-4 6 -4 6 -4 4 C-4.99 4.495 -4.99 4.495 -6 5 C-5.37321829 8.66172475 -4.35548154 11.8818995 -2.9375 15.3125 C-2.57527344 16.19550781 -2.21304687 17.07851563 -1.83984375 17.98828125 C-1.42412109 18.98408203 -1.42412109 18.98408203 -1 20 C-2.921875 19.69140625 -2.921875 19.69140625 -5 19 C-6.25 15.9375 -6.25 15.9375 -7 13 C-7.99 13.66 -8.98 14.32 -10 15 C-9.34 15.66 -8.68 16.32 -8 17 C-7.8125 19.5625 -7.8125 19.5625 -8 22 C-9 23 -9 23 -11.6875 23.375 C-16.21939151 22.86195568 -17.7383612 21.10632266 -21 18 C-20.67 17.34 -20.34 16.68 -20 16 C-19.62875 16.474375 -19.2575 16.94875 -18.875 17.4375 C-16.37353038 19.52205802 -14.18406582 19.64621491 -11 20 C-11.33 19.01 -11.66 18.02 -12 17 C-14.50447516 15.78130071 -14.50447516 15.78130071 -17 15 C-17 14.34 -17 13.68 -17 13 C-14.69 11.68 -12.38 10.36 -10 9 C-10 8.34 -10 7.68 -10 7 C-11.98 7.66 -13.96 8.32 -16 9 C-16 8.01 -16 7.02 -16 6 C-14.27843904 4.98696238 -12.54738194 3.99005152 -10.8125 3 C-9.84957031 2.443125 -8.88664063 1.88625 -7.89453125 1.3125 C-4.95111257 -0.02216758 -3.18119943 -0.27915461 0 0 Z " fill="#F3E9E9" transform="translate(264,316)"/>
<path d="M0 0 C3.84269274 0.17078634 5.54859116 0.57234952 8.375 3.25 C10.11305534 6.19132443 10.38229016 7.6549611 10 11 C8.49440461 9.03617993 7.10868317 7.21736634 6 5 C4.02 5 2.04 5 0 5 C-0.33 5.99 -0.66 6.98 -1 8 C1.70981321 9.11580544 4.38912818 10.12207943 7.1875 11 C10 12 10 12 12 14 C11.625 16.125 11.625 16.125 11 18 C11 17.34 11 16.68 11 16 C8.525 15.505 8.525 15.505 6 15 C5.773125 15.804375 5.54625 16.60875 5.3125 17.4375 C4.879375 18.283125 4.44625 19.12875 4 20 C1.375 20.8125 1.375 20.8125 -1 21 C-0.649375 21.7425 -0.29875 22.485 0.0625 23.25 C1.04509293 26.1322726 1.0326802 27.21176345 0 30 C-2.68219822 24.63560356 -3.3152595 20.98993047 -3 15 C-2.01 15 -1.02 15 0 15 C0 15.66 0 16.32 0 17 C0.99 16.34 1.98 15.68 3 15 C3 14.34 3 13.68 3 13 C1.02 12.34 -0.96 11.68 -3 11 C-3.2475 11.680625 -3.495 12.36125 -3.75 13.0625 C-5.24197908 16.56865083 -7.06835511 19.71620368 -9 23 C-9.99 22.67 -10.98 22.34 -12 22 C-10.88392706 18.93079942 -9.5684654 16.29670219 -7.8125 13.5625 C-5.81557736 9.63751411 -5.78840006 8.13963313 -7 4 C-4.525 4.99 -4.525 4.99 -2 6 C-1.855625 5.195625 -1.71125 4.39125 -1.5625 3.5625 C-1 1 -1 1 0 0 Z " fill="#F1E7E7" transform="translate(107,309)"/>
<path d="M0 0 C1.32 0.66 2.64 1.32 4 2 C3.67 4.31 3.34 6.62 3 9 C5.56426499 7.90102929 7.03345517 6.96330723 8.9375 4.875 C11 3 11 3 13.5 2.5 C16.87013879 3.17402776 18.01677007 4.2087875 20 7 C20.73383453 11.8223412 19.38005611 14.8349018 17 19 C15.68 18.67 14.36 18.34 13 18 C13.66 15.03 14.32 12.06 15 9 C10.90177629 9.64505524 10.90177629 9.64505524 8.5625 12.5625 C6 15 6 15 3.375 15.5 C1 15 1 15 -0.8125 14 C-2.6938181 10.83146425 -2.43539869 7.54742863 -2 4 C-1 1.5 -1 1.5 0 0 Z " fill="#F5EEEE" transform="translate(20,125)"/>
<path d="M0 0 C0.99 0.33 1.98 0.66 3 1 C3.33 1.99 3.66 2.98 4 4 C3.195625 4.4125 2.39125 4.825 1.5625 5.25 C-1.14109718 6.73452331 -1.14109718 6.73452331 -1.8125 9.1875 C-1.874375 9.785625 -1.93625 10.38375 -2 11 C-0.96875 10.67 0.0625 10.34 1.125 10 C5.21107505 8.85027443 9.04235116 7.92645064 12.9375 10.0625 C14 12 14 12 14.0625 15.375 C12.67652158 20.10363226 10.96186878 21.21826235 7 24 C6.01 23.34 5.02 22.68 4 22 C4 21.34 4 20.68 4 20 C4.639375 19.525625 5.27875 19.05125 5.9375 18.5625 C8.28372963 17.0908635 8.28372963 17.0908635 9 14 C7.96875 14.33 6.9375 14.66 5.875 15 C1.78892495 16.14972557 -2.04235116 17.07354936 -5.9375 14.9375 C-7.71265155 11.70045894 -6.95682233 9.46848095 -6 6 C-3.5 3.125 -3.5 3.125 -1 1 C-0.67 0.67 -0.34 0.34 0 0 Z " fill="#F7F1F1" transform="translate(295,282)"/>
<path d="M0 0 C3.5625 0.5625 3.5625 0.5625 6.0625 2.625 C7.5625 5.5625 7.5625 5.5625 7.75 9 C6.1754824 13.7235528 3.53041645 15.73419402 -0.4375 18.5625 C-3.91789683 15.15461144 -6.24833771 12.80256388 -7 7.875 C-6.12003639 2.69299205 -5.36209488 0.87743371 0 0 Z " fill="#E20600" transform="translate(182.4375,166.4375)"/>
<path d="M0 0 C0 1.32 0 2.64 0 4 C-2.64 4.33 -5.28 4.66 -8 5 C-7.67 6.32 -7.34 7.64 -7 9 C-4.36 9 -1.72 9 1 9 C1 10.32 1 11.64 1 13 C-1.31 13.33 -3.62 13.66 -6 14 C-5.67 16.97 -5.34 19.94 -5 23 C-6.65 23 -8.3 23 -10 23 C-12.13777332 15.87408894 -13.12843079 9.44898605 -13 2 C-8.46298506 0.54815522 -4.81938524 -0.23509196 0 0 Z " fill="#F4ECEC" transform="translate(161,12)"/>
<path d="M0 0 C3 1.5 3 1.5 5 3 C4.01 4.485 4.01 4.485 3 6 C1.7625 5.7525 0.525 5.505 -0.75 5.25 C-3.93493995 4.86035309 -4.67828423 4.79892765 -7.5 6.5625 C-9.41815219 9.67949731 -9.6124175 11.40204719 -9 15 C-6.61317755 17.47206611 -4.3520059 18.40142752 -1 19 C-1 20.32 -1 21.64 -1 23 C-6.41490891 22.56680729 -9.75792422 21.43406135 -14 18 C-15.24300105 14.27099684 -15.6711674 10.86650786 -15 7 C-11.35931593 0.6695568 -7.06517324 -0.81053613 0 0 Z " fill="#F8F2F2" transform="translate(233,17)"/>
<path d="M0 0 C0 1.65 0 3.3 0 5 C1.65 4.67 3.3 4.34 5 4 C8.93846154 8.30769231 8.93846154 8.30769231 9.25 11.8125 C9.1675 12.534375 9.085 13.25625 9 14 C8.01 14 7.02 14 6 14 C6 12.02 6 10.04 6 8 C5.01 8 4.02 8 3 8 C2.67 10.97 2.34 13.94 2 17 C1.01 16.67 0.02 16.34 -1 16 C-1 15.01 -1 14.02 -1 13 C-2.3921875 13.3403125 -2.3921875 13.3403125 -3.8125 13.6875 C-7 14 -7 14 -8.9375 12.875 C-10 11 -10 11 -9.6875 8.3125 C-9.460625 7.549375 -9.23375 6.78625 -9 6 C-5.25 4.875 -5.25 4.875 -3 6 C-3 4.68 -3 3.36 -3 2 C-6.3 2.66 -9.6 3.32 -13 4 C-13.33 3.34 -13.66 2.68 -14 2 C-9.27249283 -0.08566493 -5.03603003 -1.67867668 0 0 Z " fill="#F5EEEE" transform="translate(219,334)"/>
<path d="M0 0 C2 0 2 0 4.125 2 C4.74375 2.66 5.3625 3.32 6 4 C6 3.34 6 2.68 6 2 C6.99 2.33 7.98 2.66 9 3 C8.44570312 4.08539063 7.89140625 5.17078125 7.3203125 6.2890625 C6.58832633 7.73426596 5.85656752 9.17958458 5.125 10.625 C4.76019531 11.33785156 4.39539063 12.05070312 4.01953125 12.78515625 C1.99999073 16.78751837 0.2918889 20.68917073 -1 25 C-1.66 24.67 -2.32 24.34 -3 24 C-2.72542969 23.19175781 -2.45085937 22.38351563 -2.16796875 21.55078125 C-1.68263672 19.94783203 -1.68263672 19.94783203 -1.1875 18.3125 C-0.85105469 17.25675781 -0.51460937 16.20101562 -0.16796875 15.11328125 C0.36768112 11.76974821 0.36768112 11.76974821 -2.42578125 9.10546875 C-3.27527344 8.41066406 -4.12476563 7.71585937 -5 7 C-5.12117187 8.14855469 -5.24234375 9.29710938 -5.3671875 10.48046875 C-6.35597374 19.69786644 -7.48081644 28.8525756 -9 38 C-9.33 38 -9.66 38 -10 38 C-10.02741912 36.4584364 -10.04658248 34.91672526 -10.0625 33.375 C-10.07410156 32.51648438 -10.08570313 31.65796875 -10.09765625 30.7734375 C-10 28 -10 28 -9.53125 25.28125 C-8.82269635 20.90488922 -8.64074113 16.54965925 -8.4375 12.125 C-8.39431641 11.24585937 -8.35113281 10.36671875 -8.30664062 9.4609375 C-8.20130661 7.30744203 -8.10022351 5.15373936 -8 3 C-7.38125 3.33 -6.7625 3.66 -6.125 4 C-4.08981656 5.14193235 -4.08981656 5.14193235 -2 5 C-1.34 3.35 -0.68 1.7 0 0 Z " fill="#3D2524" transform="translate(175,112)"/>
<path d="M0 0 C0.06058594 1.08539063 0.12117187 2.17078125 0.18359375 3.2890625 C0.26806064 4.73438486 0.35270551 6.17969682 0.4375 7.625 C0.47681641 8.33785156 0.51613281 9.05070312 0.55664062 9.78515625 C0.80340838 13.92326162 1.29446433 17.91018751 2 22 C2.51627346 28.42363318 2.18751158 33.33331274 -1 39 C-1.99 39.66 -2.98 40.32 -4 41 C-3.84144531 40.32066406 -3.68289062 39.64132813 -3.51953125 38.94140625 C-1.83272205 29.39127595 -2.54618542 20.47259702 -6.125 11.48828125 C-7 9 -7 9 -7 5 C-5.36540168 3.10046679 -2.54351827 0 0 0 Z " fill="#E30600" transform="translate(196,118)"/>
<path d="M0 0 C0.99 0.66 1.98 1.32 3 2 C2.34 3.32 1.68 4.64 1 6 C0.34 6 -0.32 6 -1 6 C-0.61328125 6.58007812 -0.2265625 7.16015625 0.171875 7.7578125 C3.11458333 12.171875 6.05729167 16.5859375 9 21 C7.625 22.5 7.625 22.5 6 24 C5.34 24 4.68 24 4 24 C2.37322909 21.86229382 0.86020356 19.7324466 -0.625 17.5 C-1.04523438 16.87996094 -1.46546875 16.25992188 -1.8984375 15.62109375 C-2.93837167 14.08482736 -3.96997056 12.54292476 -5 11 C-6.98 11.66 -8.96 12.32 -11 13 C-11.66 12.01 -12.32 11.02 -13 10 C-8.71 6.7 -4.42 3.4 0 0 Z " fill="#F6F0F0" transform="translate(85,40)"/>
<path d="M0 0 C2 3 2 3 2 6 C-1 8.1875 -1 8.1875 -4 10 C-1.36 10.66 1.28 11.32 4 12 C4.33 13.98 4.66 15.96 5 18 C4.26136719 17.77183594 3.52273438 17.54367188 2.76171875 17.30859375 C-4.54862582 15.23717464 -10.50370453 14.77521157 -18 16 C-18 14.35 -18 12.7 -18 11 C-17.45472656 10.87625 -16.90945313 10.7525 -16.34765625 10.625 C-9.37380202 8.71762106 -5.06936755 5.04539891 0 0 Z " fill="#F7F1F1" transform="translate(347,135)"/>
<path d="M0 0 C1.32 0.33 2.64 0.66 4 1 C3.34 2.98 2.68 4.96 2 7 C3.28197266 7.93972656 3.28197266 7.93972656 4.58984375 8.8984375 C5.70588611 9.72374614 6.82176298 10.54927862 7.9375 11.375 C8.50146484 11.7875 9.06542969 12.2 9.64648438 12.625 C13.88671875 15.7734375 13.88671875 15.7734375 15 18 C14.34 18.99 13.68 19.98 13 21 C9.57053707 19.38325319 6.43736948 17.42402323 3.25 15.375 C2.26515625 14.74335937 1.2803125 14.11171875 0.265625 13.4609375 C-0.48203125 12.97882813 -1.2296875 12.49671875 -2 12 C-2.99 12.99 -3.98 13.98 -5 15 C-5.99 14.67 -6.98 14.34 -8 14 C-7.37606349 10.23880524 -5.65226285 7.81039958 -3.4375 4.75 C-2.79683594 3.85796875 -2.15617187 2.9659375 -1.49609375 2.046875 C-0.75552734 1.03367187 -0.75552734 1.03367187 0 0 Z " fill="#F7F1F1" transform="translate(48,74)"/>
<path d="M0 0 C1.32 0.33 2.64 0.66 4 1 C3.67 2.98 3.34 4.96 3 7 C7.95 9.31 12.9 11.62 18 14 C17.67 15.32 17.34 16.64 17 18 C12.13566836 17.50109419 8.31084936 15.92236169 3.953125 13.83984375 C2.04811649 12.86832408 2.04811649 12.86832408 0 13 C-1.63676257 14.9600281 -1.63676257 14.9600281 -3 17 C-3.99 16.34 -4.98 15.68 -6 15 C-4.40109514 9.80355921 -2.25861997 4.93387858 0 0 Z " fill="#F8F3F3" transform="translate(29,103)"/>
<path d="M0 0 C2.31 1.98 4.62 3.96 7 6 C6.70996094 6.92619141 6.70996094 6.92619141 6.4140625 7.87109375 C2.66352603 20.06962079 0.75635301 29.48879017 4 42 C0.04332266 38.30710114 -1.86786129 36.00447708 -2.23046875 30.50390625 C-2.21628906 29.20324219 -2.20210937 27.90257812 -2.1875 26.5625 C-2.18105469 25.26441406 -2.17460937 23.96632812 -2.16796875 22.62890625 C-2.02697244 19.58273019 -1.6245673 16.96436418 -1 14 C-0.78301513 11.56494763 -0.59709255 9.12698616 -0.4375 6.6875 C-0.35371094 5.43324219 -0.26992187 4.17898437 -0.18359375 2.88671875 C-0.12300781 1.93410156 -0.06242188 0.98148437 0 0 Z " fill="#E10600" transform="translate(169,118)"/>
<path d="M0 0 C2 1.375 2 1.375 4 3 C4 3.66 4 4.32 4 5 C2.13671875 6.65625 2.13671875 6.65625 -0.3125 8.5 C-1.11300781 9.1084375 -1.91351563 9.716875 -2.73828125 10.34375 C-4.46143275 11.60560879 -6.22292703 12.81528469 -8 14 C-6.87548273 16.9719385 -5.77706209 19.33440687 -4 22 C-5.98 22.99 -5.98 22.99 -8 24 C-10.64 21.03 -13.28 18.06 -16 15 C-14.93261837 11.79785512 -14.43506653 11.28971025 -11.875 9.3359375 C-11.25109375 8.85382813 -10.6271875 8.37171875 -9.984375 7.875 C-9.32953125 7.38 -8.6746875 6.885 -8 6.375 C-6.70806586 5.3831608 -5.41638595 4.39099034 -4.125 3.3984375 C-3.09375 2.60695313 -2.0625 1.81546875 -1 1 C-0.67 0.67 -0.34 0.34 0 0 Z " fill="#F6EFEF" transform="translate(312,70)"/>
<path d="M0 0 C5.28 0 10.56 0 16 0 C16 1.32 16 2.64 16 4 C14.02 4 12.04 4 10 4 C10 9.61 10 15.22 10 21 C8.35 21 6.7 21 5 21 C5 15.39 5 9.78 5 4 C3.35 4 1.7 4 0 4 C0 2.68 0 1.36 0 0 Z " fill="#F6EEEF" transform="translate(177,11)"/>
<path d="M0 0 C2.97 0.495 2.97 0.495 6 1 C5.67 7.27 5.34 13.54 5 20 C4.01 19.67 3.02 19.34 2 19 C2 16.03 2 13.06 2 10 C-0.64 10.33 -3.28 10.66 -6 11 C-4.80100302 14.0831351 -3.52299523 17.06279492 -2 20 C-4.7443949 18.95902262 -5.9787139 18.02715813 -7.8125 15.6875 C-9.19493861 12.55882314 -9.06658657 11.19975972 -8 8 C-7 7 -7 7 -5.15234375 6.90234375 C-3.1015625 6.93489583 -1.05078125 6.96744792 1 7 C1 6.01 1 5.02 1 4 C-1.97 4 -4.94 4 -8 4 C-7.67 3.34 -7.34 2.68 -7 2 C-4.69 2 -2.38 2 0 2 C0 1.34 0 0.68 0 0 Z " fill="#EEE1E1" transform="translate(195,335)"/>
<path d="M0 0 C1.32 0.99 2.64 1.98 4 3 C2.34136495 7.32504836 -0.871041 10.09418825 -4.125 13.25 C-4.68832031 13.80429687 -5.25164062 14.35859375 -5.83203125 14.9296875 C-7.21686028 16.29104485 -8.60783204 17.64614859 -10 19 C-11.32 18.34 -12.64 17.68 -14 17 C-13.4194679 13.69881206 -12.45131901 12.08865924 -10.05859375 9.765625 C-9.18364258 8.90517578 -9.18364258 8.90517578 -8.29101562 8.02734375 C-7.67935547 7.44082031 -7.06769531 6.85429687 -6.4375 6.25 C-5.82197266 5.64800781 -5.20644531 5.04601562 -4.57226562 4.42578125 C-3.05485187 2.94365619 -1.52829404 1.4709033 0 0 Z " fill="#F0E4E4" transform="translate(75,288)"/>
<path d="M0 0 C3.10931798 1.16599424 4.01488272 1.96726544 5.5 4.9375 C5.8125 8.5625 5.8125 8.5625 5.5 11.9375 C3.5 13.9375 3.5 13.9375 1.125 14.375 C-1.5 13.9375 -1.5 13.9375 -3.8125 11.8125 C-5.77372261 8.47115777 -6.07977821 6.74747107 -5.5 2.9375 C-3.8566884 0.25630739 -3.15525569 -0.07888139 0 0 Z " fill="#721617" transform="translate(132.5,22.0625)"/>
<path d="M0 0 C2.8125 0.4375 2.8125 0.4375 4.8125 2.4375 C4.72815099 6.31755453 4.25528268 7.97011828 1.5625 10.8125 C-1.40727015 12.56736418 -2.81046598 12.98512714 -6.1875 12.4375 C-8.1875 10.4375 -8.1875 10.4375 -8.625 8.125 C-7.81858802 3.17132638 -4.8796528 0.66975627 0 0 Z " fill="#721717" transform="translate(294.1875,58.5625)"/>
<path d="M0 0 C1.875 1.5 1.875 1.5 3 3 C0.84382567 9.13680387 0.84382567 9.13680387 -2 11 C-5.5625 11.3125 -5.5625 11.3125 -9 11 C-9.66 10.34 -10.32 9.68 -11 9 C-10.85611045 5.61859562 -10.60498077 3.67220085 -8.3125 1.125 C-5.30746287 -0.33690996 -3.30322178 -0.42168789 0 0 Z " fill="#6F1112" transform="translate(325,94)"/>
<path d="M0 0 C3.3125 0.9375 3.3125 0.9375 5.3125 2.9375 C5.2109375 4.88671875 5.2109375 4.88671875 4.3125 6.9375 C2.3515625 8.45703125 2.3515625 8.45703125 -0.0625 9.75 C-0.85398437 10.18957031 -1.64546875 10.62914062 -2.4609375 11.08203125 C-4.6875 11.9375 -4.6875 11.9375 -7.6875 10.9375 C-8.5 8.25 -8.5 8.25 -8.6875 4.9375 C-6.00707137 1.00062045 -4.82850214 -0.08183902 0 0 Z " fill="#721617" transform="translate(44.6875,257.0625)"/>
<path d="M0 0 C0.33 1.65 0.66 3.3 1 5 C-5.6 7.64 -12.2 10.28 -19 13 C-19.66 11.35 -20.32 9.7 -21 8 C-18.06657102 6.65757579 -15.12763748 5.32765933 -12.1875 4 C-11.35412109 3.6184375 -10.52074219 3.236875 -9.66210938 2.84375 C-8.85966797 2.4828125 -8.05722656 2.121875 -7.23046875 1.75 C-6.49207764 1.41484375 -5.75368652 1.0796875 -4.99291992 0.734375 C-3 0 -3 0 0 0 Z " fill="#F7F0F0" transform="translate(44,239)"/>
<path d="M0 0 C0.66 0 1.32 0 2 0 C2.66 1.65 3.32 3.3 4 5 C5.98 4.34 7.96 3.68 10 3 C9.96519531 4.57587891 9.96519531 4.57587891 9.9296875 6.18359375 C9.82567695 13.00116045 9.7839112 19.2906077 11.54296875 25.921875 C13.07738251 32.89886748 12.26930463 38.73383279 9 45 C11.64 45 14.28 45 17 45 C17.33 45.99 17.66 46.98 18 48 C17.01 48 16.02 48 15 48 C14.67 48.99 14.34 49.98 14 51 C13.34 50.67 12.68 50.34 12 50 C12.66 48.68 13.32 47.36 14 46 C12.02 46 10.04 46 8 46 C8.165 44.88625 8.33 43.7725 8.5 42.625 C9.56223206 33.99907298 8.89505828 25.4869121 8 16.875 C7.90460938 15.91851562 7.80921875 14.96203125 7.7109375 13.9765625 C7.4783375 11.65056246 7.24130321 9.32511041 7 7 C5.68 7.33 4.36 7.66 3 8 C2.54625 7.360625 2.0925 6.72125 1.625 6.0625 C0.16078274 3.90297594 0.16078274 3.90297594 -2 3 C-1.34 2.01 -0.68 1.02 0 0 Z " fill="#453333" transform="translate(188,112)"/>
<path d="M0 0 C2.91687906 0.61096791 5.13415334 1.51314558 7.671875 3.06640625 C8.33574219 3.46923828 8.99960937 3.87207031 9.68359375 4.28710938 C10.36550781 4.70798828 11.04742187 5.12886719 11.75 5.5625 C12.44738281 5.98724609 13.14476562 6.41199219 13.86328125 6.84960938 C15.57835717 7.89510086 17.28956473 8.94693351 19 10 C18.625 11.9375 18.625 11.9375 18 14 C17.01 14.495 17.01 14.495 16 15 C14.21240234 14.19555664 14.21240234 14.19555664 12.0859375 12.91015625 C11.32539062 12.45576172 10.56484375 12.00136719 9.78125 11.53320312 C8.9871875 11.04787109 8.193125 10.56253906 7.375 10.0625 C6.17230469 9.34030273 6.17230469 9.34030273 4.9453125 8.60351562 C2.95911458 7.40943235 0.97772458 6.20804799 -1 5 C-0.67 3.35 -0.34 1.7 0 0 Z " fill="#F8F3F3" transform="translate(35,93)"/>
<path d="M0 0 C0.67546875 0.20496094 1.3509375 0.40992188 2.046875 0.62109375 C2.93890625 0.89050781 3.8309375 1.15992188 4.75 1.4375 C5.63171875 1.70433594 6.5134375 1.97117188 7.421875 2.24609375 C9.60565835 2.88468494 11.78835498 3.46775833 14 4 C13.25 8.75 13.25 8.75 11 11 C7.47013492 11.32683936 4.86224134 11.35374004 1.5625 10 C-0.92938272 6.81039012 -0.26002825 3.96543085 0 0 Z " fill="#701314" transform="translate(329,228)"/>
<path d="M0 0 C0.66 0.33 1.32 0.66 2 1 C2 2.32 2 3.64 2 5 C2.66 5.33 3.32 5.66 4 6 C4.33 4.68 4.66 3.36 5 2 C5.268125 2.639375 5.53625 3.27875 5.8125 3.9375 C6.88667752 6.33131686 6.88667752 6.33131686 10 7 C10 6.34 10 5.68 10 5 C11.32 5.33 12.64 5.66 14 6 C13.7215625 7.36125 13.7215625 7.36125 13.4375 8.75 C13.04265379 11.68314324 13.05308428 13.2644657 14 16 C13.34 16 12.68 16 12 16 C11.34 15.01 10.68 14.02 10 13 C9.030625 13 8.06125 13 7.0625 13 C4 13 4 13 2.125 11.75 C1 10 1 10 1 6 C0.34 6 -0.32 6 -1 6 C-1.625 4.125 -1.625 4.125 -2 2 C-1.34 1.34 -0.68 0.68 0 0 Z " fill="#E6D5D5" transform="translate(128,336)"/>
<path d="M0 0 C6.93 0 13.86 0 21 0 C21 1.65 21 3.3 21 5 C14.07 5 7.14 5 0 5 C0 3.35 0 1.7 0 0 Z " fill="#F8F3F3" transform="translate(11,173)"/>
<path d="M0 0 C1.84651134 3.11598788 2.38079379 5.38245897 2 9 C1.34 9.66 0.68 10.32 0 11 C4.02167317 13.96837781 7.00088076 15.52389341 12 16 C12.33 15.34 12.66 14.68 13 14 C13.18175781 14.61488281 13.36351562 15.22976562 13.55078125 15.86328125 C13.80214844 16.67152344 14.05351562 17.47976562 14.3125 18.3125 C14.55613281 19.11300781 14.79976562 19.91351563 15.05078125 20.73828125 C15.80911043 23.04768416 15.80911043 23.04768416 17.54101562 24.24023438 C19.73176702 26.88262661 19.338896 29.0346616 19.29296875 32.41796875 C19.28330078 33.67158203 19.27363281 34.92519531 19.26367188 36.21679688 C19.23853516 37.52712891 19.21339844 38.83746094 19.1875 40.1875 C19.17244967 41.52277163 19.15876187 42.85805937 19.14648438 44.19335938 C19.11107694 47.46264576 19.0616889 50.73112093 19 54 C18.34 53.67 17.68 53.34 17 53 C17.02094727 52.23856689 17.04189453 51.47713379 17.06347656 50.69262695 C17.14677795 47.23271968 17.19870584 43.77302362 17.25 40.3125 C17.28351563 39.11431641 17.31703125 37.91613281 17.3515625 36.68164062 C17.37089844 34.94624023 17.37089844 34.94624023 17.390625 33.17578125 C17.41157227 32.11270752 17.43251953 31.04963379 17.45410156 29.9543457 C16.89213144 26.29821643 15.4344534 24.7186297 13 22 C12.25 19.6875 12.25 19.6875 12 18 C10.96875 17.9175 9.9375 17.835 8.875 17.75 C4.61559033 16.92559813 2.34537928 15.72298313 -1 13 C-2.375 10.75 -2.375 10.75 -3 9 C-1.68 8.67 -0.36 8.34 1 8 C-0.29299694 5.11562221 -1.65941363 3.12780579 -4 1 C-2 0 -2 0 0 0 Z " fill="#443939" transform="translate(162,157)"/>
<path d="M0 0 C0.66 0.66 1.32 1.32 2 2 C0.375 5 0.375 5 -2 8 C-5.26686077 8.79856597 -7.03460641 8.56525057 -9.94140625 6.86328125 C-11.68529991 5.63374815 -13.3572258 4.36087803 -15 3 C-10.31213003 -1.8848393 -6.39263647 -1.13417744 0 0 Z " fill="#DE0701" transform="translate(176,165)"/>
<path d="M0 0 C0.33 0.99 0.66 1.98 1 3 C-4.75 6 -4.75 6 -7 6 C-7 6.66 -7 7.32 -7 8 C-5.35 8.33 -3.7 8.66 -2 9 C-1.67 10.32 -1.34 11.64 -1 13 C-6.53846154 13.36923077 -6.53846154 13.36923077 -8.875 11.5 C-9.24625 11.005 -9.6175 10.51 -10 10 C-10.99 10.66 -11.98 11.32 -13 12 C-13.33 10.02 -13.66 8.04 -14 6 C-12.04414675 4.99515796 -10.08523763 3.99626195 -8.125 3 C-6.48917969 2.1646875 -6.48917969 2.1646875 -4.8203125 1.3125 C-2 0 -2 0 0 0 Z " fill="#731819" transform="translate(254,323)"/>
<path d="M0 0 C0.76441406 0.06703125 1.52882812 0.1340625 2.31640625 0.203125 C4.81352176 0.84694852 5.79870002 1.80228884 7.4375 3.75 C3.17438282 7.87989477 0.14991466 8.36271765 -5.5625 8.75 C-6.63775194 6.09771188 -7.65706151 3.46631546 -8.5625 0.75 C-5.55099505 -0.15550946 -3.12479013 -0.31723758 0 0 Z " fill="#DF0701" transform="translate(196.5625,164.25)"/>
<path d="M0 0 C1.95903745 0.47627975 3.91721097 0.95611423 5.875 1.4375 C7.51082031 1.83775391 7.51082031 1.83775391 9.1796875 2.24609375 C12 3 12 3 14 4 C14 4.66 14 5.32 14 6 C11.36 6 8.72 6 6 6 C5.67 7.98 5.34 9.96 5 12 C4.01 11.67 3.02 11.34 2 11 C1.3125 8.9375 1.3125 8.9375 1 7 C-0.98 7.99 -0.98 7.99 -3 9 C-2.01 6.03 -1.02 3.06 0 0 Z " fill="#7C2525" transform="translate(127,330)"/>
<path d="M0 0 C1.67542976 0.28604898 3.34385343 0.61781233 5 1 C4.01 1.66 3.02 2.32 2 3 C2.67137179 6.4552792 2.67137179 6.4552792 3.5 9.875 C4.20905558 12.88848623 4.58725481 15.93389289 5 19 C3.35 19.33 1.7 19.66 0 20 C-0.66 18.02 -1.32 16.04 -2 14 C-1.01 13.67 -0.02 13.34 1 13 C0.67 12.01 0.34 11.02 0 10 C0.33 9.67 0.66 9.34 1 9 C0.484375 8.608125 -0.03125 8.21625 -0.5625 7.8125 C-2 6 -2 6 -1.75 3.375 C-1 1 -1 1 0 0 Z " fill="#E7D3D3" transform="translate(233,318)"/>
<path d="M0 0 C0.61875 0.70125 1.2375 1.4025 1.875 2.125 C2.535 2.455 3.195 2.785 3.875 3.125 C2.5 4.625 2.5 4.625 0.875 6.125 C0.215 6.125 -0.445 6.125 -1.125 6.125 C-0.465 8.765 0.195 11.405 0.875 14.125 C0.215 14.455 -0.445 14.785 -1.125 15.125 C-2.15540167 12.83720962 -3.17452018 10.54548864 -4.1875 8.25 C-4.48205078 7.59902344 -4.77660156 6.94804688 -5.08007812 6.27734375 C-5.82161513 4.58489459 -6.47939001 2.85631425 -7.125 1.125 C-6.125 -0.875 -6.125 -0.875 -4.3125 -1.75 C-2.125 -1.875 -2.125 -1.875 0 0 Z " fill="#381817" transform="translate(190.125,116.875)"/>
<path d="M0 0 C0.33 2.31 0.66 4.62 1 7 C0.34 7 -0.32 7 -1 7 C-0.34 8.32 0.32 9.64 1 11 C0.34 11.66 -0.32 12.32 -1 13 C-1.4125 12.030625 -1.825 11.06125 -2.25 10.0625 C-3.64407571 6.90538721 -3.64407571 6.90538721 -6.0625 6.125 C-7.37293681 6.04045569 -8.68683879 6 -10 6 C-10 4.68 -10 3.36 -10 2 C-8.7090864 1.66376204 -7.41723903 1.33110751 -6.125 1 C-5.40570313 0.814375 -4.68640625 0.62875 -3.9453125 0.4375 C-2 0 -2 0 0 0 Z " fill="#7A2223" transform="translate(229,333)"/>
<path d="M0 0 C0.99 0 1.98 0 3 0 C1.25 3.875 1.25 3.875 -1 5 C-1.66 4.67 -2.32 4.34 -3 4 C-3.33 5.65 -3.66 7.3 -4 9 C-7.3 8.67 -10.6 8.34 -14 8 C-14 6.68 -14 5.36 -14 4 C-11.36 4.33 -8.72 4.66 -6 5 C-6 3.68 -6 2.36 -6 1 C-4.7934375 1.0309375 -4.7934375 1.0309375 -3.5625 1.0625 C-1.06645115 1.29633621 -1.06645115 1.29633621 0 0 Z " fill="#F7F2F2" transform="translate(147,331)"/>
<path d="M0 0 C4.29 0 8.58 0 13 0 C13 1.98 13 3.96 13 6 C12.46375 5.67 11.9275 5.34 11.375 5 C8.4608939 3.77300796 6.13132292 3.85766714 3 4 C2.896875 4.639375 2.79375 5.27875 2.6875 5.9375 C2.460625 6.618125 2.23375 7.29875 2 8 C1.01 8.33 0.02 8.66 -1 9 C-0.67 6.03 -0.34 3.06 0 0 Z " fill="#781F20" transform="translate(161,339)"/>
<path d="M0 0 C4.11742854 -0.47877076 5.58006317 -0.32165374 8.9375 2.25 C11 5 11 5 10.8125 7.3125 C10.544375 7.869375 10.27625 8.42625 10 9 C5.94718288 7.77472971 2.55639236 6.30119506 -1 4 C-0.67 2.68 -0.34 1.36 0 0 Z " fill="#792122" transform="translate(107,313)"/>
<path d="M0 0 C2.73244993 0.28762631 4.53491296 0.65118472 6.75 2.3125 C8.14744246 4.19904732 8.6037919 5.70199304 9 8 C7.741875 7.87625 6.48375 7.7525 5.1875 7.625 C4.12595703 7.52058594 4.12595703 7.52058594 3.04296875 7.4140625 C1 7 1 7 -2 5 C-1.125 1.125 -1.125 1.125 0 0 Z " fill="#751A1B" transform="translate(130,322)"/>
<path d="M0 0 C0.886875 0.804375 1.77375 1.60875 2.6875 2.4375 C5.38287032 4.7039159 7.42063478 5.68417366 11 6 C11 6.33 11 6.66 11 7 C10.0925 7.2475 9.185 7.495 8.25 7.75 C4.89648511 9.03981342 3.32291764 10.31971042 1 13 C1.165 12.38125 1.33 11.7625 1.5 11.125 C2.07634644 9.03936614 2.07634644 9.03936614 2 7 C0.14375 6.7525 0.14375 6.7525 -1.75 6.5 C-2.44609375 6.4071875 -3.1421875 6.314375 -3.859375 6.21875 C-6.30458395 5.93222643 -6.30458395 5.93222643 -10 6 C-9.67 5.01 -9.34 4.02 -9 3 C-6.03 3.33 -3.06 3.66 0 4 C0 2.68 0 1.36 0 0 Z " fill="#261515" transform="translate(174,159)"/>
<path d="M0 0 C4.17451972 0.37106842 6.94298088 1.06055854 10 4 C10 4.66 10 5.32 10 6 C6.04 6 2.08 6 -2 6 C-1 1 -1 1 0 0 Z " fill="#721617" transform="translate(185,331)"/>
<path d="M0 0 C0.99 0.33 1.98 0.66 3 1 C2.34 1 1.68 1 1 1 C1.5053125 1.91523438 2.010625 2.83046875 2.53125 3.7734375 C3.18771927 4.97383845 3.8439573 6.17436587 4.5 7.375 C4.83386719 7.97828125 5.16773438 8.5815625 5.51171875 9.203125 C8 13.7734375 8 13.7734375 8 16 C6.2109375 15.83203125 6.2109375 15.83203125 4 15 C2.2265625 12.63671875 2.2265625 12.63671875 0.625 9.6875 C0.08101563 8.72199219 -0.46296875 7.75648438 -1.0234375 6.76171875 C-2 4 -2 4 -1.1640625 1.64453125 C-0.58785156 0.83048828 -0.58785156 0.83048828 0 0 Z " fill="#F7F1F1" transform="translate(261,316)"/>
<path d="M0 0 C2.9375 2.0625 2.9375 2.0625 5 4 C4.67 4.66 4.34 5.32 4 6 C3.278125 5.484375 2.55625 4.96875 1.8125 4.4375 C-1.4195366 2.78557018 -2.61608307 2.93648325 -6 4 C-6.33 5.32 -6.66 6.64 -7 8 C-7.66 8 -8.32 8 -9 8 C-10.31668238 2.6135721 -10.31668238 2.6135721 -9 0.0625 C-5.75237813 -1.66279912 -3.47802453 -0.8994891 0 0 Z " fill="#ECDDDD" transform="translate(190,329)"/>
<path d="M0 0 C0 3 0 3 -1 6 C2.63 6.33 6.26 6.66 10 7 C9.34 7.66 8.68 8.32 8 9 C1.43035538 8.64165575 -4.70717087 6.8392644 -11 5 C-11 4.01 -11 3.02 -11 2 C-8.36 2.99 -5.72 3.98 -3 5 C-2.690625 4.360625 -2.38125 3.72125 -2.0625 3.0625 C-1 1 -1 1 0 0 Z " fill="#2C2424" transform="translate(197,208)"/>
<path d="M0 0 C0.66 0 1.32 0 2 0 C2.66 1.65 3.32 3.3 4 5 C5.98 4.34 7.96 3.68 10 3 C10 9.93 10 16.86 10 24 C7.15385976 21.15385976 7.54420924 18.19630858 7.375 14.375 C7.33632812 13.66859375 7.29765625 12.9621875 7.2578125 12.234375 C7.16352276 10.49001476 7.08067109 8.74504309 7 7 C5.68 7.33 4.36 7.66 3 8 C2.54625 7.360625 2.0925 6.72125 1.625 6.0625 C0.16078274 3.90297594 0.16078274 3.90297594 -2 3 C-1.34 2.01 -0.68 1.02 0 0 Z " fill="#302222" transform="translate(188,112)"/>
<path d="M0 0 C0.94875 0.04125 1.8975 0.0825 2.875 0.125 C3 2.5 3 2.5 2.875 5.125 C0.875 7.125 0.875 7.125 -1.75 7.25 C-2.53375 7.20875 -3.3175 7.1675 -4.125 7.125 C-4.75 4.75 -4.75 4.75 -5.125 2.125 C-3.125 0.125 -3.125 0.125 0 0 Z " fill="#EBDADB" transform="translate(214.125,338.875)"/>
<path d="M0 0 C0.99 0.33 1.98 0.66 3 1 C2.67 1.66 2.34 2.32 2 3 C2.99 3 3.98 3 5 3 C5.04254356 4.99954746 5.04080783 7.00041636 5 9 C4.67 9.33 4.34 9.66 4 10 C2.35 10 0.7 10 -1 10 C-0.67 6.7 -0.34 3.4 0 0 Z " fill="#7D2728" transform="translate(153,334)"/>
<path d="M0 0 C0.99 0.33 1.98 0.66 3 1 C-5.261959 6.74031891 -5.261959 6.74031891 -10 6 C-10.0825 6.7425 -10.165 7.485 -10.25 8.25 C-11.1396946 11.51221354 -12.48503749 12.80954878 -15 15 C-15 12 -15 12 -13.5625 10.1875 C-11.63599355 7.49039097 -11.3700239 5.25621035 -11 2 C-10.67 2.66 -10.34 3.32 -10 4 C-8.51965236 3.52449439 -7.04074979 3.04448784 -5.5625 2.5625 C-4.73878906 2.29566406 -3.91507813 2.02882812 -3.06640625 1.75390625 C-1.03780412 1.17844506 -1.03780412 1.17844506 0 0 Z " fill="#412F2E" transform="translate(201,169)"/>
<path d="M0 0 C2.4375 2.375 2.4375 2.375 4 5 C3.67 5.99 3.34 6.98 3 8 C2.2575 7.154375 1.515 6.30875 0.75 5.4375 C-1.65409355 2.72870755 -1.65409355 2.72870755 -4.125 3.125 C-4.74375 3.41375 -5.3625 3.7025 -6 4 C-6.99 4.33 -7.98 4.66 -9 5 C-8.625 2.5625 -8.625 2.5625 -8 0 C-4.99733781 -1.5013311 -3.18669322 -0.8922741 0 0 Z " fill="#F7F0F0" transform="translate(135,320)"/>
<path d="M0 0 C1.98 0.66 3.96 1.32 6 2 C5.67 3.65 5.34 5.3 5 7 C3.125 7.625 3.125 7.625 1 8 C0.34 7.34 -0.32 6.68 -1 6 C-0.625 2.875 -0.625 2.875 0 0 Z " fill="#771E1F" transform="translate(112,323)"/>
<path d="M0 0 C3.30289626 3.07280686 5.71945242 6.35578663 8.1875 10.125 C9.22970703 11.70667969 9.22970703 11.70667969 10.29296875 13.3203125 C12 16 12 16 13 18 C12.34 18.66 11.68 19.32 11 20 C10.54109375 19.27554688 10.0821875 18.55109375 9.609375 17.8046875 C8.99578125 16.83789062 8.3821875 15.87109375 7.75 14.875 C7.11449219 13.87210938 6.47898438 12.86921875 5.82421875 11.8359375 C4.44286549 9.6884804 3.03025083 7.58770335 1.5625 5.5 C0 3 0 3 0 0 Z " fill="#353535" transform="translate(158,194)"/>
<path d="M0 0 C2.97 0.495 2.97 0.495 6 1 C6 2.32 6 3.64 6 5 C5.01 5.33 4.02 5.66 3 6 C3 5.34 3 4.68 3 4 C2.01 4 1.02 4 0 4 C-0.33 5.32 -0.66 6.64 -1 8 C-1.66 7.67 -2.32 7.34 -3 7 C-1.125 2.25 -1.125 2.25 0 0 Z " fill="#761C1C" transform="translate(104,320)"/>
<path d="M0 0 C2.6875 -0.3125 2.6875 -0.3125 6 0 C8.875 2.5 8.875 2.5 11 5 C3.5340751 5.36717663 3.5340751 5.36717663 1 3.625 C0 2 0 2 0 0 Z " fill="#D30904" transform="translate(162,158)"/>
<path d="M0 0 C0.33 0 0.66 0 1 0 C1.08636719 0.64066406 1.17273438 1.28132812 1.26171875 1.94140625 C2.28816012 8.26014165 3.92267439 12.06429005 8 17 C7.67 17.66 7.34 18.32 7 19 C6.29875 18.360625 5.5975 17.72125 4.875 17.0625 C1.77158767 14.83613898 -0.24620139 14.34919057 -4 14 C-4 13.67 -4 13.34 -4 13 C-2.35 12.67 -0.7 12.34 1 12 C0.67 11.34 0.34 10.68 0 10 C-0.06996014 8.29297265 -0.08440154 6.58331997 -0.0625 4.875 C-0.05347656 3.96492187 -0.04445312 3.05484375 -0.03515625 2.1171875 C-0.02355469 1.41851562 -0.01195312 0.71984375 0 0 Z " fill="#3B1A19" transform="translate(166,144)"/>
<path d="M0 0 C3.1875 0.3125 3.1875 0.3125 5.5625 2.3125 C6.09875 2.9725 6.635 3.6325 7.1875 4.3125 C4.5475 4.3125 1.9075 4.3125 -0.8125 4.3125 C-0.8125 5.3025 -0.8125 6.2925 -0.8125 7.3125 C-1.8025 6.9825 -2.7925 6.6525 -3.8125 6.3125 C-3.855221 4.64638095 -3.85313832 2.97867115 -3.8125 1.3125 C-2.8125 0.3125 -2.8125 0.3125 0 0 Z " fill="#EFE3E3" transform="translate(166.8125,341.6875)"/>
<path d="M0 0 C1.2065625 0.0309375 1.2065625 0.0309375 2.4375 0.0625 C2.7675 2.0425 3.0975 4.0225 3.4375 6.0625 C1.7875 6.3925 0.1375 6.7225 -1.5625 7.0625 C-2.2225 5.0825 -2.8825 3.1025 -3.5625 1.0625 C-2.5625 0.0625 -2.5625 0.0625 0 0 Z " fill="#74191A" transform="translate(234.5625,330.9375)"/>
<path d="M0 0 C2 0 2 0 4.125 2 C4.74375 2.66 5.3625 3.32 6 4 C6 3.34 6 2.68 6 2 C6.99 2.33 7.98 2.66 9 3 C7.68 5.31 6.36 7.62 5 10 C3.04783565 8.04783565 2.15173355 6.46800047 1 4 C0.67 4.66 0.34 5.32 0 6 C-0.66 5.67 -1.32 5.34 -2 5 C-1.34 3.35 -0.68 1.7 0 0 Z " fill="#3C2B2A" transform="translate(175,112)"/>
<path d="M0 0 C2.0625 0.4375 2.0625 0.4375 4 1 C4 2.65 4 4.3 4 6 C2.125 6.625 2.125 6.625 0 7 C-0.66 6.34 -1.32 5.68 -2 5 C-1.46428571 1.46428571 -1.46428571 1.46428571 0 0 Z " fill="#F3EAEA" transform="translate(280,308)"/>
<path d="M0 0 C2.0625 0.4375 2.0625 0.4375 4 1 C4.625 2.875 4.625 2.875 5 5 C4.34 5.66 3.68 6.32 3 7 C0.875 6.625 0.875 6.625 -1 6 C-1.042721 4.33388095 -1.04063832 2.66617115 -1 1 C-0.67 0.67 -0.34 0.34 0 0 Z " fill="#F3EAEA" transform="translate(82,308)"/>
<path d="M0 0 C1.98 0.66 3.96 1.32 6 2 C5.34 3.65 4.68 5.3 4 7 C2.0625 6.6875 2.0625 6.6875 0 6 C-1 3 -1 3 0 0 Z " fill="#822E2F" transform="translate(327,255)"/>
<path d="M0 0 C0.928125 0.0825 1.85625 0.165 2.8125 0.25 C2.1525 1.9 1.4925 3.55 0.8125 5.25 C-1.4975 4.92 -3.8075 4.59 -6.1875 4.25 C-4.36434338 1.00883268 -3.82500054 0.30000004 0 0 Z " fill="#DF0701" transform="translate(199.1875,157.75)"/>
<path d="M0 0 C2.64 0.33 5.28 0.66 8 1 C7.67 1.66 7.34 2.32 7 3 C6.01 3 5.02 3 4 3 C4 3.66 4 4.32 4 5 C2.68 4.67 1.36 4.34 0 4 C0 2.68 0 1.36 0 0 Z " fill="#832F30" transform="translate(134,338)"/>
<path d="M0 0 C2.625 0.375 2.625 0.375 5 1 C5 1.99 5 2.98 5 4 C3.68 4 2.36 4 1 4 C0.34 5.32 -0.32 6.64 -1 8 C-2 7 -2 7 -2.1875 4.5625 C-2 2 -2 2 0 0 Z " fill="#EEE0E0" transform="translate(159,326)"/>
<path d="M0 0 C1.98 0 3.96 0 6 0 C6 0.99 6 1.98 6 3 C4.02 3.33 2.04 3.66 0 4 C0 2.68 0 1.36 0 0 Z " fill="#731717" transform="translate(166,345)"/>
<path d="M0 0 C2 2 2 2 2.125 4.625 C2.08375 5.40875 2.0425 6.1925 2 7 C-0.31 6.34 -2.62 5.68 -5 5 C-5 4.34 -5 3.68 -5 3 C-4.360625 2.690625 -3.72125 2.38125 -3.0625 2.0625 C-1.06389179 1.1654837 -1.06389179 1.1654837 0 0 Z " fill="#E4CFCF" transform="translate(139,327)"/>
<path d="M0 0 C0.66 0 1.32 0 2 0 C0.59155282 3.21524305 -1.10344786 5.32183868 -3.625 7.75 C-4.57246094 8.67039063 -4.57246094 8.67039063 -5.5390625 9.609375 C-6.02117187 10.06828125 -6.50328125 10.5271875 -7 11 C-7.66 10.34 -8.32 9.68 -9 9 C-8.51789063 8.60167969 -8.03578125 8.20335937 -7.5390625 7.79296875 C-6.90742188 7.26316406 -6.27578125 6.73335937 -5.625 6.1875 C-4.99851562 5.66542969 -4.37203125 5.14335937 -3.7265625 4.60546875 C-1.7778952 2.91774261 -1.7778952 2.91774261 0 0 Z " fill="#33261A" transform="translate(267,231)"/>
<path d="M0 0 C0.99 0.99 1.98 1.98 3 3 C2.34 4.32 1.68 5.64 1 7 C0.01 6.67 -0.98 6.34 -2 6 C-1.125 1.125 -1.125 1.125 0 0 Z " fill="#D70803" transform="translate(188,115)"/>
<path d="M0 0 C0 0.66 0 1.32 0 2 C-2.64 2.33 -5.28 2.66 -8 3 C-8.33 2.34 -8.66 1.68 -9 1 C-5.57367167 -0.61798838 -3.61944899 -1.34053666 0 0 Z " fill="#E7D4D5" transform="translate(214,335)"/>
<path d="M0 0 C1.5625 1.25 1.5625 1.25 3 3 C2.6875 5.1875 2.6875 5.1875 2 7 C0.68 6.34 -0.64 5.68 -2 5 C-1.34 3.35 -0.68 1.7 0 0 Z " fill="#D60803" transform="translate(176,115)"/>
<path d="M0 0 C0.33 0.99 0.66 1.98 1 3 C0.34 3.66 -0.32 4.32 -1 5 C-0.01 5.66 0.98 6.32 2 7 C0.02 7 -1.96 7 -4 7 C-4.33 6.01 -4.66 5.02 -5 4 C-3.35 2.68 -1.7 1.36 0 0 Z " fill="#621614" transform="translate(195,156)"/>
<path d="M0 0 C1.65 0 3.3 0 5 0 C4.34 1.32 3.68 2.64 3 4 C1.68 3.67 0.36 3.34 -1 3 C-0.67 2.01 -0.34 1.02 0 0 Z " fill="#7F292A" transform="translate(212,342)"/>
<path d="M0 0 C0.66 0.33 1.32 0.66 2 1 C2 3.31 2 5.62 2 8 C1.67 7.34 1.34 6.68 1 6 C0.34 6 -0.32 6 -1 6 C-1.625 4.125 -1.625 4.125 -2 2 C-1.34 1.34 -0.68 0.68 0 0 Z " fill="#EDDEDE" transform="translate(128,336)"/>
<path d="M0 0 C1.65 1.65 3.3 3.3 5 5 C4.01 5.495 4.01 5.495 3 6 C0.375 5.0625 0.375 5.0625 -2 4 C-1.34 2.68 -0.68 1.36 0 0 Z " fill="#822D2E" transform="translate(313,274)"/>
<path d="M0 0 C2.02045442 0.60183749 4.02111039 1.27306096 6 2 C6.33 2.66 6.66 3.32 7 4 C4.69 4 2.38 4 0 4 C0 2.68 0 1.36 0 0 Z " fill="#7F292A" transform="translate(340,207)"/>
<path d="M0 0 C-0.33 0.66 -0.66 1.32 -1 2 C-3.64860427 2.59355614 -6.29197322 2.74209269 -9 3 C-8 1 -8 1 -5.625 -0.1875 C-3 -1 -3 -1 0 0 Z " fill="#F9F5F5" transform="translate(227,332)"/>
<path d="M0 0 C0.66 0.33 1.32 0.66 2 1 C1.30058404 4.14737182 0.23921302 7.02588876 -1 10 C-2.31223496 6.06329512 -1.24296256 3.87511856 0 0 Z " fill="#363226" transform="translate(182,59)"/>
<path d="M0 0 C0.66 0.33 1.32 0.66 2 1 C2 1.66 2 2.32 2 3 C0.02 3.66 -1.96 4.32 -4 5 C-4 4.01 -4 3.02 -4 2 C-2.125 0.9375 -2.125 0.9375 0 0 Z " fill="#EBDBDB" transform="translate(252,320)"/>
</svg>
