<?xml version="1.0" encoding="utf-8"?>
<!-- Generator: Adobe Illustrator 23.0.4, SVG Export Plug-In . SVG Version: 6.00 Build 0)  -->
<svg version="1.1" id="Layer_1" xmlns="http://www.w3.org/2000/svg" xmlns:xlink="http://www.w3.org/1999/xlink" x="0px" y="0px"
	 viewBox="0 0 42.9 46" style="enable-background:new 0 0 42.9 46;" xml:space="preserve">
<title>logo2</title>
<path d="M3,31.5h0.7c0.9,0,1.9,0,2.8-0.1c0.5,0,0.6-0.2,0.6-0.7v-9.6c0-1.6,0-3.2,0-4.8c0-0.2,0.1-0.4,0.3-0.5
	c0.4-0.2,0.9-0.3,1.4-0.3c0.5,0,1,0.3,1,0.9c0,0,0,0,0,0.1c0.1,0.6,0.1,1.2,0.1,1.8c0,4.3,0,8.5,0,12.8v0.4h2.8c0.3,0,0.6,0,1-0.1
	c0.5-0.1,0.5-0.2,0.5-0.7c0-4.6,0-9.2,0-13.8c0-0.6-0.1-1.3-0.2-1.9c-0.2-1.3-1.2-2.4-2.6-2.7c-1-0.2-2-0.3-3-0.3
	c-1,0-2.1,0.2-3.1,0.5C4.8,12.7,4,13,3.3,13.2C3.1,13.2,3,13.4,3,13.6c0,5.9,0,11.7,0,17.6L3,31.5z M39.1,12.4c-0.1,0-0.1,0-0.2,0
	c-1.1,0-2.2,0.1-3.2,0.1c-0.6,0-0.7,0.1-0.7,0.8v11.2c0,1,0,2.1,0,3.1c0,0.1-0.1,0.3-0.2,0.4c-0.5,0.4-1.1,0.5-1.7,0.4
	c-0.3,0-0.6-0.2-0.8-0.5c-0.2-0.4-0.3-0.8-0.2-1.2c0-4.6,0-9.3,0-13.9v-0.4c-0.6,0-1.1,0-1.7,0c-0.7,0-1.4,0.1-2.2,0.2
	c-0.4,0-0.5,0.1-0.5,0.6c0,4.5,0,9,0,13.5c0,0.8,0.1,1.6,0.3,2.3c0.2,0.7,0.6,1.4,1.2,1.8c0.9,0.7,2,1.1,3.1,1.1
	c0.9,0.1,1.7,0.1,2.6-0.1c1.3-0.2,2.5-0.6,3.7-1.1c0.3-0.1,0.5-0.4,0.4-0.7c0-5.7,0-11.5,0-17.2L39.1,12.4z M23.2,2
	c-1.2,0.1-2.4,0.1-3.6,0.2c-0.5,0-0.7,0.3-0.7,0.8v36c0.9,0,1.8,0,2.7,0c0.4,0,0.7,0,1.1-0.1c0.3,0,0.4-0.2,0.4-0.5
	c0-0.2,0-0.4,0-0.6L23.2,2L23.2,2z"/>
</svg>
