<svg xmlns="http://www.w3.org/2000/svg" xmlns:svg="http://www.w3.org/2000/svg" id="svg5" width="500" height="132.873" version="1.1" viewBox="0 0 132.292 35.156" xml:space="preserve"><g id="layer1" transform="translate(-828.72654,-293.93671)"><g id="g3638" transform="matrix(0.22718411,0,0,0.22718411,828.95372,294.05778)" style="fill:#861414;fill-opacity:1"><path id="path3447" fill="#2e3191" d="m 17.39,144.421 0.17,-0.061 0.2,-0.079 c 0.03,-0.011 0.09,-0.04 0.16,-0.061 0.07,-0.03 0.15,-0.04 0.24,-0.04 0.35,-0.01 0.68,0.08 0.97,0.271 0.3,0.18 0.45,0.51 0.48,0.96 0.01,0.399 -0.12,0.71 -0.4,0.93 -0.26,0.24 -0.64,0.34 -1.12,0.37 -0.34,0 -0.62,-0.13 -0.8,-0.45 -0.19,-0.29 -0.29,-0.66 -0.31,-1.09 -0.01,-0.55 0.14,-1.07 0.46,-1.55 0.34,-0.49 0.91,-0.761 1.74,-0.771 0.81,-0.02 1.44,0.16 1.89,0.55 0.44,0.42 0.68,0.98 0.71,1.7 0.01,0.69 -0.22,1.22 -0.72,1.63 -0.23,0.17 -0.54,0.32 -0.95,0.44 -0.38,0.12 -0.79,0.189 -1.19,0.2 -0.29,0 -0.49,0.05 -0.6,0.09 -0.11,0.04 -0.18,0.12 -0.17,0.22 l -0.03,0.061 -0.03,0.02 0.06,0.16 7.97,-0.25 v 0.45 l -8.66,0.27 -0.02,-0.54 0.15,-0.35 c 0.05,-0.101 0.16,-0.19 0.32,-0.271 l 0.27,-0.069 0.25,-0.021 h 0.15 c 0.27,-0.02 0.51,-0.06 0.74,-0.12 l 0.31,-0.1 0.15,-0.061 0.19,-0.09 c 0.22,-0.1 0.44,-0.279 0.66,-0.56 0.23,-0.271 0.37,-0.54 0.41,-0.8 l 0.03,-0.46 c -0.01,-0.24 -0.07,-0.5 -0.19,-0.79 -0.11,-0.261 -0.33,-0.5 -0.63,-0.721 -0.32,-0.199 -0.69,-0.31 -1.16,-0.279 -0.36,0.01 -0.67,0.1 -0.93,0.29 -0.24,0.199 -0.45,0.39 -0.57,0.609 -0.13,0.173 -0.19,0.303 -0.2,0.363 z m -0.11,0.88 c 0.01,0.1 0.03,0.22 0.06,0.34 0.04,0.12 0.08,0.271 0.15,0.4 0.14,0.29 0.36,0.439 0.64,0.43 0.36,-0.01 0.58,-0.09 0.67,-0.27 0.07,-0.16 0.11,-0.4 0.1,-0.71 0,-0.23 -0.07,-0.45 -0.19,-0.7 -0.12,-0.221 -0.36,-0.33 -0.7,-0.32 -0.22,0.021 -0.4,0.1 -0.56,0.271 l -0.07,0.119 -0.07,0.17 c -0.02,0.06 -0.03,0.16 -0.03,0.27 z" style="fill:#861414;fill-opacity:1"/><path id="path3449" fill="#2e3191" d="m 28.78,141.951 c -0.52,0.199 -0.88,0.38 -1.09,0.569 -0.21,0.17 -0.4,0.391 -0.56,0.69 -0.08,0.16 -0.13,0.32 -0.17,0.479 -0.04,0.16 -0.07,0.351 -0.1,0.551 -0.01,0.399 0.01,0.71 0.06,0.89 0.03,0.07 0.05,0.12 0.08,0.13 0.05,-0.13 0.13,-0.28 0.25,-0.45 0.12,-0.149 0.27,-0.26 0.45,-0.3 0.29,-0.08 0.47,-0.11 0.58,-0.1 0.09,-0.011 0.18,-0.011 0.26,0.01 0.05,0.01 0.11,0.01 0.14,0.04 0.04,0 0.08,0 0.14,0.02 0.34,0.09 0.6,0.42 0.74,0.971 0.12,0.449 0.12,0.84 -0.04,1.159 -0.14,0.33 -0.46,0.551 -0.96,0.7 -0.4,0.101 -0.76,0.021 -1.11,-0.25 -0.34,-0.26 -0.62,-0.729 -0.81,-1.43 -0.26,-1.01 -0.23,-1.87 0.11,-2.57 0.18,-0.33 0.44,-0.62 0.8,-0.88 0.17,-0.12 0.36,-0.22 0.57,-0.32 0.19,-0.08 0.4,-0.17 0.62,-0.22 0.35,-0.11 0.66,-0.16 0.89,-0.18 l 0.17,-0.01 h 0.16 l 0.14,0.01 0.2,0.02 0.22,-0.17 0.22,-0.12 c 0.22,-0.14 0.43,-0.22 0.62,-0.27 1.09,-0.29 1.96,-0.28 2.62,0.06 0.65,0.351 1.1,0.98 1.34,1.87 0.07,0.23 0.09,0.5 0.08,0.84 -0.01,0.37 -0.1,0.721 -0.28,1.08 -0.18,0.351 -0.42,0.62 -0.74,0.79 l -0.48,0.25 -0.04,0.04 -0.17,-0.3 0.09,-0.021 0.16,-0.079 c 0.05,-0.03 0.15,-0.11 0.33,-0.271 0.17,-0.16 0.31,-0.439 0.41,-0.86 0.05,-0.189 0.07,-0.39 0.07,-0.619 -0.01,-0.21 -0.04,-0.431 -0.11,-0.66 -0.2,-0.75 -0.59,-1.28 -1.22,-1.63 -0.6,-0.33 -1.16,-0.431 -1.71,-0.271 l -0.2,0.05 c -0.09,0.011 -0.14,0.04 -0.15,0.04 -0.04,0.01 -0.07,0.021 -0.12,0.04 -0.04,0.021 -0.09,0.04 -0.12,0.07 l -0.43,0.22 c 0.09,-0.02 0.21,-0.02 0.32,-0.02 0.12,0.01 0.25,0.05 0.41,0.08 0.29,0.08 0.59,0.29 0.91,0.619 0.32,0.33 0.54,0.721 0.68,1.2 0.08,0.32 0.12,0.62 0.13,0.91 0,0.29 -0.04,0.58 -0.12,0.9 -0.16,0.569 -0.56,0.96 -1.22,1.149 -0.2,0.061 -0.43,0.07 -0.71,0.051 -0.26,-0.021 -0.54,-0.171 -0.83,-0.461 -0.29,-0.289 -0.53,-0.779 -0.72,-1.47 -0.09,-0.33 -0.14,-0.62 -0.18,-0.83 -0.02,-0.22 -0.02,-0.42 0,-0.6 0.01,-0.15 0.04,-0.29 0.09,-0.45 0.06,-0.15 0.12,-0.32 0.21,-0.49 l 0.26,-0.33 -0.41,-0.01 c -0.05,-0.01 -0.13,0 -0.23,0.01 -0.1,0.011 -0.19,0.04 -0.31,0.07 l -0.06,0.01 -0.06,0.011 z m -1.04,3.01 c -0.16,0.05 -0.29,0.189 -0.4,0.43 -0.11,0.25 -0.14,0.45 -0.1,0.641 l 0.11,0.25 c 0.01,0.029 0.04,0.109 0.1,0.189 0.06,0.09 0.15,0.2 0.28,0.33 0.18,0.23 0.42,0.29 0.7,0.22 0.19,-0.04 0.35,-0.17 0.48,-0.359 0.13,-0.181 0.15,-0.44 0.05,-0.78 l -0.01,-0.05 -0.02,-0.061 -0.09,-0.26 c -0.01,-0.06 -0.05,-0.12 -0.12,-0.21 -0.03,-0.04 -0.06,-0.06 -0.1,-0.11 -0.03,-0.02 -0.07,-0.069 -0.13,-0.12 -0.17,-0.16 -0.42,-0.19 -0.75,-0.11 z m 2.79,-3.05 c -0.39,0.21 -0.62,0.56 -0.67,1.09 -0.07,0.53 -0.03,1.01 0.08,1.439 0.16,0.561 0.39,1.011 0.68,1.36 0.29,0.34 0.67,0.45 1.14,0.32 0.31,-0.09 0.54,-0.34 0.68,-0.771 0.12,-0.43 0.11,-0.93 -0.04,-1.49 -0.17,-0.63 -0.44,-1.109 -0.79,-1.43 -0.34,-0.318 -0.7,-0.498 -1.08,-0.518 z" style="fill:#861414;fill-opacity:1"/><path id="path3451" fill="#2e3191" d="m 39.79,138.181 c 0.42,-0.13 0.79,-0.18 1.08,-0.16 0.3,0.03 0.59,0.15 0.87,0.32 0.29,0.18 0.54,0.42 0.71,0.66 l 0.11,0.22 0.19,0.34 0.11,0.271 0.1,0.29 c 0.1,0.27 0.16,0.649 0.2,1.069 0,0.221 0,0.41 -0.04,0.61 -0.03,0.19 -0.09,0.39 -0.19,0.58 l -0.14,0.2 -0.21,0.26 -0.31,0.2 -0.24,0.109 -1.44,0.53 0.05,0.061 0.06,0.06 0.08,0.06 c 0.03,0.021 0.06,0.051 0.1,0.051 0.05,0.02 0.11,0.04 0.18,0.06 l 0.25,-0.05 0.09,-0.04 0.09,-0.021 0.3,-0.109 0.19,-0.061 0.11,-0.029 0.1,-0.021 0.2,0.57 -0.16,-0.05 c -0.04,-0.011 -0.1,-0.011 -0.18,0 l -0.2,0.13 c -0.07,0.02 -0.14,0.1 -0.2,0.24 l -0.07,0.229 0.01,0.1 -0.01,0.11 -0.04,0.12 c -0.05,0.28 -0.25,0.52 -0.6,0.69 l -0.51,0.26 -0.54,0.21 -0.61,0.18 -0.65,0.21 c -0.42,0.15 -0.72,-0.02 -0.88,-0.49 l -0.05,-0.18 -0.03,-0.18 c -0.02,-0.181 0.06,-0.37 0.22,-0.51 l 0.25,-0.221 0.27,-0.189 0.11,0.1 0.1,0.1 c 0.05,0.051 0.08,0.101 0.08,0.131 l -0.23,0.119 c -0.09,0.04 -0.16,0.11 -0.21,0.25 -0.05,0.15 -0.05,0.29 0,0.45 0.04,0.15 0.2,0.23 0.48,0.271 l 0.15,-0.04 0.18,-0.04 0.47,-0.14 0.1,-0.04 c 0.07,-0.04 0.11,-0.04 0.13,-0.04 0.09,-0.021 0.14,-0.051 0.16,-0.08 l 0.19,-0.12 0.23,-0.17 c 0.25,-0.16 0.39,-0.311 0.46,-0.44 l 0.06,-0.22 c 0.01,-0.061 0.04,-0.14 0.09,-0.22 l 0.16,-0.17 0.17,-0.171 v -0.029 c -0.08,0.029 -0.15,0.029 -0.25,0.029 -0.09,0.021 -0.18,0.011 -0.3,0 -0.18,-0.04 -0.34,-0.1 -0.46,-0.199 l -0.29,-0.301 -2.55,0.82 -1.74,-5.16 0.8,-0.27 1.65,4.859 1.66,-0.56 -1.01,-2.99 c -0.17,-0.52 -0.21,-0.93 -0.11,-1.27 0.09,-0.34 0.25,-0.601 0.48,-0.771 0.1,-0.08 0.2,-0.16 0.31,-0.22 0.11,-0.067 0.22,-0.117 0.31,-0.157 z m 1.63,4.86 c 0.23,-0.09 0.47,-0.2 0.72,-0.37 0.25,-0.18 0.43,-0.45 0.57,-0.82 0.05,-0.16 0.07,-0.359 0.05,-0.63 l -0.05,-0.39 -0.11,-0.44 c -0.28,-0.82 -0.66,-1.37 -1.13,-1.64 -0.47,-0.271 -0.92,-0.33 -1.3,-0.2 -0.46,0.14 -0.73,0.38 -0.8,0.69 -0.07,0.3 -0.05,0.619 0.06,0.939 l 0.02,0.09 0.04,0.07 0.02,0.1 0.02,0.04 0.96,2.88 z" style="fill:#861414;fill-opacity:1"/><path id="path3453" fill="#2e3191" d="m 49.59,140.601 -4.6,1.57 -1.76,-5.12 0.66,-0.25 1.66,4.85 3.26,-1.13 -1.63,-4.77 0.66,-0.22 z m -3.95,-6.56 0.07,0.16 c 0.06,0.18 0.04,0.35 -0.04,0.52 -0.05,0.11 -0.19,0.26 -0.46,0.43 l -0.06,0.03 -0.07,0.01 c -0.11,0.051 -0.28,0.051 -0.48,0.011 -0.19,-0.051 -0.32,-0.131 -0.4,-0.25 l -0.12,-0.261 c -0.09,-0.29 -0.06,-0.52 0.12,-0.699 l 0.25,-0.16 0.18,-0.101 c 0.17,-0.06 0.37,-0.08 0.55,-0.01 0.17,0.04 0.32,0.15 0.46,0.32 z" style="fill:#861414;fill-opacity:1"/><path id="path3455" fill="#2e3191" d="m 50.44,133.661 c -0.31,0.37 -0.46,0.85 -0.46,1.409 -0.01,0.57 0.08,1.15 0.26,1.74 0.21,0.62 0.49,1.141 0.82,1.51 0.35,0.381 0.7,0.631 1.08,0.711 0.32,0.06 0.63,0.1 0.95,0.09 l 0.64,-0.09 c -0.08,0 -0.18,-0.03 -0.28,-0.061 l -0.36,-0.15 c -0.24,-0.119 -0.45,-0.43 -0.62,-0.939 -0.09,-0.29 -0.09,-0.61 0.03,-0.95 0.1,-0.37 0.35,-0.6 0.74,-0.74 0.4,-0.13 0.79,-0.109 1.15,0.051 0.37,0.17 0.62,0.46 0.75,0.89 0.18,0.55 0.11,1.01 -0.2,1.35 -0.32,0.34 -0.73,0.61 -1.25,0.78 -0.36,0.11 -0.81,0.16 -1.35,0.12 -0.54,-0.021 -1.07,-0.22 -1.62,-0.59 -0.55,-0.37 -0.95,-0.98 -1.22,-1.811 -0.32,-1.01 -0.31,-1.92 0.04,-2.739 0.37,-0.79 1.05,-1.36 2.04,-1.681 0.62,-0.22 1.14,-0.22 1.54,-0.05 0.42,0.18 0.68,0.46 0.8,0.83 0.17,0.5 0.15,0.91 -0.05,1.2 -0.2,0.319 -0.51,0.55 -0.97,0.689 -0.31,0.11 -0.63,0.101 -0.96,-0.029 -0.33,-0.131 -0.54,-0.351 -0.66,-0.71 -0.14,-0.421 -0.17,-0.721 -0.11,-0.94 0.06,-0.219 0.14,-0.4 0.26,-0.51 l 0.28,-0.23 -0.02,0.01 -0.03,0.011 -0.05,0.01 -0.02,0.01 -0.28,0.11 -0.16,0.06 -0.15,0.099 c -0.13,0.13 -0.32,0.3 -0.56,0.54 z m 1.68,-0.79 c -0.32,0.109 -0.49,0.29 -0.54,0.59 -0.05,0.3 -0.04,0.56 0.04,0.77 v 0.061 l 0.02,0.029 c 0.02,0.11 0.08,0.211 0.14,0.28 0.08,0.101 0.17,0.19 0.3,0.29 0.19,0.15 0.44,0.18 0.72,0.09 0.26,-0.09 0.43,-0.26 0.5,-0.51 0.05,-0.15 0.06,-0.27 0.06,-0.39 v -0.16 l -0.06,-0.17 c -0.1,-0.34 -0.27,-0.601 -0.46,-0.75 -0.2,-0.19 -0.43,-0.22 -0.72,-0.13 z m 1.16,3.71 c -0.21,0.109 -0.35,0.3 -0.43,0.58 -0.06,0.29 -0.06,0.52 -0.01,0.68 0.07,0.2 0.21,0.39 0.42,0.6 0.23,0.19 0.45,0.24 0.7,0.17 l 0.07,-0.02 c 0.15,-0.05 0.29,-0.16 0.42,-0.34 0.14,-0.2 0.16,-0.47 0.05,-0.78 l -0.04,-0.13 -0.02,-0.07 -0.01,-0.02 -0.01,-0.05 c -0.02,-0.07 -0.06,-0.131 -0.11,-0.221 -0.05,-0.09 -0.12,-0.18 -0.25,-0.279 -0.19,-0.171 -0.41,-0.19 -0.67,-0.131 l -0.05,0.011 z" style="fill:#861414;fill-opacity:1"/><polygon id="polygon3457" fill="#2e3191" points="56.07 132.831 57.43 137.781 60.76 136.871 59.43 132.011 60.11 131.831 61.52 136.971 56.82 138.271 55.39 133.021" style="fill:#861414;fill-opacity:1"/><path id="path3459" fill="#2e3191" d="m 66.73,131.761 0.17,-0.06 0.19,-0.08 c 0.04,-0.011 0.09,-0.011 0.16,-0.04 0.09,-0.021 0.16,-0.04 0.26,-0.021 0.34,0 0.67,0.101 0.96,0.3 0.29,0.2 0.42,0.54 0.42,0.99 -0.01,0.391 -0.15,0.7 -0.43,0.9 -0.29,0.21 -0.67,0.319 -1.14,0.319 -0.35,-0.01 -0.6,-0.17 -0.78,-0.489 -0.18,-0.3 -0.28,-0.67 -0.28,-1.11 0.01,-0.54 0.2,-1.03 0.55,-1.53 0.34,-0.46 0.94,-0.71 1.76,-0.689 0.82,0.02 1.43,0.229 1.86,0.649 0.429,0.42 0.64,0.99 0.63,1.74 -0.021,0.67 -0.271,1.2 -0.78,1.58 -0.24,0.17 -0.56,0.3 -0.96,0.4 -0.4,0.109 -0.8,0.16 -1.21,0.16 -0.28,-0.011 -0.49,0.02 -0.6,0.05 -0.12,0.05 -0.17,0.109 -0.18,0.21 l -0.03,0.069 -0.03,0.03 0.06,0.16 7.97,0.1 -0.01,0.46 -8.67,-0.109 0.01,-0.55 0.15,-0.351 c 0.06,-0.109 0.16,-0.189 0.32,-0.26 l 0.29,-0.06 0.23,-0.011 h 0.15 c 0.26,0 0.51,-0.02 0.75,-0.09 l 0.29,-0.08 0.17,-0.05 0.2,-0.08 c 0.21,-0.09 0.44,-0.26 0.69,-0.53 0.24,-0.27 0.38,-0.51 0.44,-0.77 l 0.04,-0.47 c 0.01,-0.25 -0.04,-0.521 -0.14,-0.801 -0.1,-0.27 -0.29,-0.52 -0.6,-0.729 -0.29,-0.23 -0.68,-0.34 -1.14,-0.351 -0.36,0 -0.68,0.08 -0.95,0.271 -0.26,0.17 -0.46,0.37 -0.6,0.57 -0.12,0.153 -0.19,0.273 -0.19,0.353 z m -0.17,0.86 c 0,0.1 0.01,0.22 0.05,0.34 0.03,0.13 0.07,0.27 0.14,0.42 0.13,0.29 0.33,0.45 0.62,0.45 0.36,0 0.57,-0.08 0.67,-0.23 0.08,-0.17 0.12,-0.42 0.13,-0.72 0,-0.22 -0.05,-0.45 -0.16,-0.68 -0.12,-0.24 -0.34,-0.341 -0.7,-0.351 -0.2,-0.01 -0.39,0.07 -0.56,0.23 l -0.07,0.12 -0.07,0.159 c -0.02,0.062 -0.05,0.152 -0.05,0.262 z" style="fill:#861414;fill-opacity:1"/><path id="path3461" fill="#2e3191" d="m 82.7,131.711 0.45,0.12 c 0.149,0.029 0.22,0.05 0.229,0.06 l -0.94,5.29 -4.02,-0.689 0.02,-0.101 0.021,-0.149 0.021,-0.131 0.02,-0.069 0.01,-0.05 0.01,-0.051 -0.01,0.011 c -0.06,0.079 -0.18,0.17 -0.35,0.279 -0.16,0.101 -0.391,0.12 -0.69,0.08 l -0.12,-0.02 -0.1,-0.011 -0.07,-0.039 -0.109,-0.011 -0.12,-0.069 c -0.14,-0.061 -0.261,-0.15 -0.38,-0.28 -0.211,-0.21 -0.24,-0.68 -0.11,-1.42 l 0.649,-3.67 0.131,0.04 0.109,0.01 0.101,0.02 0.11,0.011 -0.67,3.819 c -0.061,0.311 -0.031,0.551 0.079,0.761 0.101,0.22 0.29,0.359 0.54,0.39 0.35,0.07 0.6,0 0.76,-0.23 0.15,-0.22 0.26,-0.489 0.311,-0.79 l 0.65,-3.67 0.75,0.13 -0.761,4.921 2.64,0.479 z" style="fill:#861414;fill-opacity:1"/><path id="path3463" fill="#2e3191" d="m 86.49,138.251 -0.69,-0.16 1.29,-4.98 -1.77,-0.449 -1.291,4.96 -0.309,-0.11 1.359,-5.229 3.779,0.979 -0.039,0.29 -1.041,-0.27 z m 1.47,-7.41 -0.04,0.17 c -0.029,0.18 -0.15,0.32 -0.32,0.42 -0.109,0.07 -0.33,0.11 -0.609,0.11 l -0.08,-0.01 -0.051,-0.021 c -0.139,-0.04 -0.26,-0.12 -0.42,-0.27 -0.149,-0.171 -0.189,-0.32 -0.189,-0.44 l 0.05,-0.25 c 0.08,-0.32 0.24,-0.49 0.46,-0.521 h 0.311 l 0.199,0.021 c 0.16,0.05 0.311,0.14 0.45,0.26 0.149,0.121 0.229,0.311 0.239,0.531 z" style="fill:#861414;fill-opacity:1"/><path id="path3465" fill="#2e3191" d="m 97.32,135.831 -2.26,7.279 -0.681,-0.159 0.66,-2.16 -4.069,-1.26 0.09,-0.25 c 0.049,0.01 0.189,0 0.399,-0.04 0.229,-0.04 0.5,-0.21 0.83,-0.53 0.319,-0.3 0.59,-0.82 0.8,-1.5 0.21,-0.68 0.23,-1.21 0.051,-1.68 -0.19,-0.471 -0.591,-0.801 -1.25,-1 -0.431,-0.141 -0.82,-0.141 -1.181,0 -0.33,0.119 -0.649,0.319 -0.899,0.59 l -0.281,0.35 -0.109,0.16 -0.09,0.16 -0.12,0.229 -0.11,0.23 c -0.02,0.05 -0.02,0.109 0,0.14 0.101,-0.05 0.28,-0.12 0.51,-0.21 0.221,-0.07 0.431,-0.07 0.66,0 0.58,0.17 0.94,0.43 1.11,0.771 0.181,0.33 0.19,0.71 0.05,1.109 -0.09,0.37 -0.32,0.66 -0.699,0.88 -0.36,0.24 -0.791,0.28 -1.26,0.13 -0.41,-0.119 -0.671,-0.35 -0.811,-0.67 -0.04,-0.09 -0.061,-0.159 -0.08,-0.229 -0.01,-0.05 -0.03,-0.16 -0.061,-0.29 -0.02,-0.18 -0.029,-0.38 -0.02,-0.59 l 0.03,-0.21 0.069,-0.38 0.131,-0.511 c 0.06,-0.18 0.119,-0.359 0.199,-0.529 0.08,-0.16 0.2,-0.34 0.351,-0.551 0.26,-0.38 0.62,-0.68 1.1,-0.92 0.46,-0.229 1.011,-0.229 1.63,-0.04 0.45,0.15 0.84,0.301 1.141,0.48 0.289,0.17 0.55,0.51 0.76,1.01 0.21,0.49 0.199,1.141 -0.04,1.93 -0.19,0.591 -0.399,1.03 -0.67,1.29 -0.261,0.25 -0.5,0.41 -0.74,0.48 -0.2,0.04 -0.351,0.07 -0.489,0.07 l 3.18,0.989 1.49,-4.819 z m -7.211,0.71 c -0.239,-0.061 -0.479,-0.05 -0.709,0.09 -0.211,0.149 -0.33,0.32 -0.391,0.52 l -0.01,0.04 -0.02,0.04 -0.01,0.021 c -0.111,0.319 -0.111,0.609 0,0.89 0.1,0.28 0.279,0.46 0.569,0.55 0.19,0.061 0.399,0.021 0.61,-0.109 0.229,-0.15 0.379,-0.36 0.449,-0.641 0.121,-0.39 0.141,-0.689 0.07,-0.93 -0.087,-0.211 -0.267,-0.381 -0.558,-0.471 z" style="fill:#861414;fill-opacity:1"/><path id="path3467" fill="#2e3191" d="m 107.99,139.221 -0.11,0.38 -1.521,-0.569 -0.539,1.75 0.459,0.149 0.471,0.16 c 0.07,0.04 0.141,0.06 0.2,0.08 0.079,0.04 0.149,0.09 0.22,0.12 0.24,0.13 0.471,0.38 0.689,0.72 0.07,0.16 0.101,0.37 0.101,0.62 0,0.13 0,0.26 -0.021,0.35 -0.02,0.11 -0.029,0.23 -0.08,0.36 l -0.109,0.31 c -0.02,0.051 -0.04,0.091 -0.061,0.15 -0.01,0.03 -0.039,0.08 -0.09,0.17 l -0.17,0.24 -0.08,0.109 -0.119,0.091 c -0.221,0.189 -0.51,0.34 -0.851,0.439 l -0.42,0.07 c -0.13,0.02 -0.28,0.02 -0.45,0.02 h -0.24 l -0.229,-0.01 -0.229,-0.04 -0.25,-0.08 -0.57,-0.14 -0.62,-0.16 -0.101,-0.04 -0.09,-0.02 -0.08,-0.021 -0.06,-0.02 -0.12,-0.03 -0.12,-0.05 -0.12,-0.03 -0.109,-0.04 c -0.291,-0.09 -0.5,-0.11 -0.6,-0.1 l -0.271,0.12 c -0.05,0.05 -0.091,0.109 -0.13,0.149 l -0.07,0.51 c -0.029,0.09 -0.13,0.15 -0.25,0.2 -0.13,0.04 -0.25,0.05 -0.37,0.021 l -0.13,-0.07 c -0.061,-0.021 -0.109,-0.1 -0.189,-0.19 -0.021,-0.109 -0.041,-0.21 0,-0.359 l 0.129,-0.271 c 0.061,-0.12 0.23,-0.26 0.551,-0.399 0.3,-0.141 0.59,-0.17 0.859,-0.08 l 2.461,0.739 c 0.569,0.181 1.109,0.12 1.619,-0.159 0.5,-0.29 0.85,-0.71 1.01,-1.25 0.17,-0.57 0.15,-1.011 -0.069,-1.29 -0.22,-0.28 -0.511,-0.46 -0.86,-0.58 l -0.029,-0.01 -0.041,-0.011 -0.049,-0.01 -0.041,-0.02 -0.359,-0.101 -0.49,1.55 c -0.1,0.37 -0.33,0.66 -0.65,0.881 -0.33,0.22 -0.81,0.229 -1.41,0.05 l -0.109,-0.04 -0.189,-0.05 c -0.461,-0.15 -0.811,-0.421 -1.041,-0.811 -0.229,-0.399 -0.289,-0.83 -0.149,-1.28 0.149,-0.489 0.34,-0.84 0.6,-1.02 0.25,-0.19 0.431,-0.28 0.57,-0.28 h 0.149 l 0.431,0.05 0.64,-2.13 z m -4.26,1.27 c -0.381,-0.12 -0.711,-0.11 -0.971,0.02 -0.26,0.13 -0.46,0.42 -0.6,0.86 -0.09,0.33 -0.09,0.67 0.04,1.04 0.11,0.37 0.409,0.63 0.88,0.77 0.3,0.08 0.58,0.08 0.84,-0.01 0.25,-0.11 0.471,-0.33 0.63,-0.69 l 0.5,-1.609 z m 0.06,-0.23 1.31,0.39 0.53,-1.72 -1.31,-0.41 z" style="fill:#861414;fill-opacity:1"/><path id="path3469" fill="#2e3191" d="m 114.85,143.241 0.11,-0.04 0.101,-0.04 0.18,-0.011 h 0.09 l 0.09,0.021 0.21,0.05 0.229,0.01 c 0.351,0.08 0.641,0.221 0.891,0.391 0.24,0.18 0.42,0.41 0.52,0.68 0.101,0.27 0.15,0.59 0.17,0.97 l -0.02,0.221 -0.01,0.319 -0.04,0.25 -0.03,0.141 c -0.029,0.13 -0.07,0.3 -0.14,0.43 -0.05,0.16 -0.12,0.32 -0.2,0.479 l -0.15,0.28 -0.08,0.11 -0.1,0.16 c -0.141,0.17 -0.311,0.33 -0.55,0.449 -0.66,0.32 -1.33,0.45 -2.03,0.4 l -0.48,-0.05 -0.58,-0.07 -0.549,-0.1 -0.57,-0.12 -0.2,-0.05 -0.08,-0.011 -0.06,-0.02 -0.07,-0.01 -0.27,-0.13 -0.07,-0.021 -0.09,-0.05 -0.16,-0.07 -0.35,-0.17 c -0.4,-0.22 -0.791,-0.54 -1.181,-0.93 -0.38,-0.38 -0.58,-0.88 -0.59,-1.49 -0.011,-0.29 0.01,-0.61 0.04,-0.93 l 0.07,-0.46 0.119,-0.511 0.041,-0.199 0.06,-0.181 0.04,-0.09 0.061,-0.109 0.139,-0.16 c 0.16,-0.261 0.351,-0.45 0.531,-0.601 l 0.209,-0.16 0.2,-0.13 0.181,-0.09 0.149,-0.06 0.2,0.399 -0.1,0.04 -0.121,0.05 -0.199,0.12 -0.21,0.15 c -0.181,0.12 -0.351,0.31 -0.53,0.56 l -0.189,0.381 -0.11,0.279 -0.04,0.16 c -0.21,0.87 -0.21,1.59 0,2.14 0.18,0.4 0.54,0.78 1.09,1.15 0.27,0.16 0.58,0.32 0.93,0.49 l 0.49,0.2 0.42,0.13 c 0.54,0.13 0.891,0.189 1.03,0.189 l 0.25,0.061 c 0.069,0.029 0.13,0.029 0.18,0.01 l 0.101,0.02 c 0.039,0 0.07,0 0.109,0 l 0.15,-0.02 h 0.15 c 0.649,-0.01 1.14,-0.19 1.479,-0.521 0.31,-0.289 0.521,-0.529 0.601,-0.72 l 0.09,-0.229 0.1,-0.17 0.07,-0.28 0.01,-0.061 0.061,-0.25 0.02,-0.109 c 0.02,-0.061 0.01,-0.101 0,-0.16 l 0.02,-0.11 v -0.06 l -0.01,-0.26 c 0,-0.341 -0.109,-0.641 -0.311,-0.92 -0.199,-0.28 -0.529,-0.471 -0.979,-0.58 -0.19,-0.051 -0.351,-0.04 -0.45,0.02 -0.029,0.01 -0.119,0.07 -0.26,0.19 l -0.63,2.56 -0.75,-0.18 1.26,-4.86 -1.71,-0.42 -1.199,4.88 -0.5,-0.12 1.279,-5.17 3.9,0.96 -0.08,0.41 -1.01,-0.37 z" style="fill:#861414;fill-opacity:1"/><path id="path3471" fill="#2e3191" d="m 119.32,148.031 0.14,-5.44 0.7,0.06 -0.12,5.101 1.91,0.05 0.069,-3.18 c 0.01,-0.601 0.16,-1.08 0.461,-1.4 0.289,-0.35 0.699,-0.53 1.26,-0.5 0.73,0.021 1.289,0.311 1.67,0.86 0.38,0.56 0.55,1.25 0.52,2.06 v 0.061 0.22 0.13 l -0.02,0.09 -0.02,0.19 -0.031,0.13 -0.08,0.28 c -0.1,0.38 -0.289,0.71 -0.569,0.989 -0.29,0.28 -0.67,0.42 -1.13,0.41 z m 4.53,-0.2 0.19,0.01 0.16,-0.03 c 0.079,0 0.149,-0.01 0.2,-0.05 l 0.149,-0.06 c 0.229,-0.07 0.44,-0.271 0.66,-0.61 0.21,-0.33 0.319,-0.81 0.34,-1.43 0.011,-0.61 -0.06,-1.11 -0.229,-1.49 -0.17,-0.36 -0.4,-0.66 -0.66,-0.851 -0.28,-0.21 -0.52,-0.3 -0.77,-0.319 -0.44,-0.01 -0.74,0.16 -0.91,0.49 -0.17,0.34 -0.26,0.729 -0.271,1.17 v 0.109 0.12 0.11 0.04 l -0.069,2.76 z m 0.541,-7.18 0.01,0.19 c -0.01,0.17 -0.08,0.33 -0.2,0.45 -0.101,0.12 -0.31,0.21 -0.591,0.27 h -0.08 -0.039 c -0.17,0 -0.33,-0.06 -0.471,-0.17 -0.189,-0.13 -0.279,-0.25 -0.299,-0.38 l -0.011,-0.27 c 0.011,-0.341 0.13,-0.53 0.351,-0.61 0.229,-0.07 0.39,-0.11 0.479,-0.11 0.181,0.01 0.351,0.061 0.53,0.181 0.151,0.109 0.26,0.249 0.321,0.449 z" style="fill:#861414;fill-opacity:1"/><path id="path3473" fill="#2e3191" d="m 6,89.641 0.18,-0.05 c 0.12,0.229 0.34,0.43 0.65,0.55 0.23,0.09 0.71,0.17 1.46,0.24 l 6.3,0.65 0.06,0.199 -4.89,4.32 c -0.6,0.52 -0.94,0.86 -1.01,1 -0.09,0.14 -0.11,0.36 -0.05,0.64 L 8.52,97.251 7.38,93.82 7.56,93.77 7.61,93.88 c 0.1,0.31 0.21,0.51 0.32,0.59 0.08,0.06 0.17,0.08 0.27,0.05 0.07,-0.029 0.15,-0.069 0.22,-0.13 0.08,-0.05 0.28,-0.229 0.6,-0.51 L 12.08,91.18 8.44,90.8 C 8,90.76 7.7,90.74 7.55,90.74 7.42,90.75 7.3,90.76 7.2,90.8 c -0.1,0.02 -0.18,0.1 -0.25,0.18 -0.06,0.08 -0.1,0.181 -0.1,0.301 -0.01,0.17 0.01,0.39 0.11,0.63 l -0.19,0.06 z" style="fill:#861414;fill-opacity:1"/><path id="path3475" fill="#2e3191" d="m 5.52,85.101 3.02,-0.56 -0.02,-0.15 c -0.1,-0.47 -0.3,-0.8 -0.64,-0.96 -0.34,-0.149 -0.8,-0.21 -1.39,-0.16 l -0.03,-0.189 3.88,-0.721 0.03,0.2 c -0.41,0.11 -0.74,0.271 -0.99,0.46 -0.24,0.2 -0.4,0.4 -0.45,0.601 -0.06,0.21 -0.05,0.489 0.02,0.85 l 2.07,-0.39 c 0.42,-0.061 0.65,-0.13 0.75,-0.181 0.08,-0.05 0.14,-0.13 0.18,-0.229 0.05,-0.11 0.05,-0.26 0.01,-0.48 l -0.09,-0.43 c -0.13,-0.7 -0.38,-1.23 -0.78,-1.58 -0.39,-0.36 -0.94,-0.57 -1.62,-0.64 l -0.04,-0.2 2.42,-0.09 1.16,6.399 -0.19,0.04 -0.04,-0.25 c -0.04,-0.21 -0.1,-0.38 -0.22,-0.489 -0.05,-0.091 -0.17,-0.15 -0.3,-0.171 -0.09,-0.02 -0.33,-0.01 -0.71,0.07 l -4.89,0.891 c -0.33,0.06 -0.54,0.1 -0.62,0.149 -0.11,0.061 -0.2,0.13 -0.26,0.25 -0.07,0.15 -0.09,0.351 -0.05,0.59 l 0.05,0.24 -0.18,0.03 -1.14,-6.21 2.19,-0.4 0.02,0.2 c -0.5,0.21 -0.85,0.42 -1.06,0.66 -0.19,0.22 -0.31,0.53 -0.36,0.91 -0.02,0.22 0.01,0.609 0.11,1.18 z" style="fill:#861414;fill-opacity:1"/><path id="path3477" fill="#2e3191" d="m 8.65,72.021 2.68,0.141 0.32,6.699 h -0.19 l -0.02,-0.25 c 0,-0.21 -0.05,-0.39 -0.14,-0.52 -0.06,-0.1 -0.15,-0.16 -0.28,-0.21 -0.09,-0.03 -0.33,-0.04 -0.7,-0.021 L 5.36,78.1 c -0.4,0.021 -0.65,0.061 -0.75,0.101 -0.08,0.04 -0.16,0.13 -0.23,0.25 -0.07,0.13 -0.09,0.3 -0.08,0.5 l 0.01,0.25 -0.19,0.02 -0.21,-4.01 0.21,-0.01 0.01,0.319 c 0.01,0.23 0.05,0.4 0.14,0.53 0.07,0.1 0.15,0.17 0.29,0.22 0.09,0.03 0.33,0.04 0.7,0.03 l 4.8,-0.25 c 0.39,-0.01 0.63,-0.04 0.73,-0.1 0.11,-0.04 0.18,-0.131 0.23,-0.261 0.04,-0.1 0.04,-0.319 0.01,-0.67 l -0.02,-0.62 C 10.98,74 10.9,73.67 10.74,73.41 10.59,73.149 10.35,72.93 10.05,72.76 9.73,72.57 9.26,72.41 8.67,72.27 Z" style="fill:#861414;fill-opacity:1"/><path id="path3479" fill="#2e3191" d="m 9.25,63.781 2.62,0.51 -0.56,6.67 -0.19,-0.021 0.02,-0.25 C 11.17,70.48 11.13,70.31 11.07,70.161 11.02,70.06 10.94,69.98 10.82,69.921 10.73,69.86 10.5,69.82 10.12,69.801 l -4.95,-0.41 c -0.39,-0.02 -0.62,-0.02 -0.73,0 -0.1,0.04 -0.2,0.12 -0.29,0.23 C 4.07,69.741 4.02,69.9 4,70.11 l -0.03,0.25 -0.18,-0.02 0.33,-4 0.18,0.02 -0.01,0.33 c -0.02,0.21 0.01,0.4 0.07,0.54 0.04,0.101 0.12,0.181 0.24,0.25 0.1,0.04 0.33,0.09 0.7,0.12 l 4.79,0.4 c 0.39,0.03 0.63,0.03 0.74,-0.01 0.11,-0.03 0.2,-0.11 0.25,-0.24 0.05,-0.101 0.09,-0.32 0.11,-0.66 l 0.05,-0.63 C 11.27,66.069 11.23,65.72 11.11,65.45 10.99,65.179 10.79,64.92 10.5,64.71 10.21,64.49 9.77,64.27 9.19,64.05 Z" style="fill:#861414;fill-opacity:1"/><path id="path3481" fill="#2e3191" d="m 5.45,57.351 c 0.23,-1.18 0.79,-2.06 1.67,-2.609 0.89,-0.57 1.89,-0.73 2.99,-0.48 0.93,0.21 1.69,0.68 2.27,1.39 0.77,0.931 1,2.07 0.7,3.381 -0.29,1.319 -0.98,2.239 -2.05,2.76 -0.84,0.41 -1.74,0.5 -2.72,0.279 C 7.22,61.812 6.39,61.232 5.84,60.333 5.29,59.421 5.16,58.431 5.45,57.351 Z m 0.35,0.01 c -0.15,0.681 0.07,1.261 0.69,1.771 0.49,0.41 1.27,0.74 2.32,0.979 1.26,0.29 2.23,0.28 2.94,-0.02 0.48,-0.21 0.79,-0.59 0.92,-1.14 0.09,-0.37 0.06,-0.7 -0.06,-1 -0.15,-0.37 -0.47,-0.7 -0.93,-0.99 -0.47,-0.3 -1.12,-0.54 -1.93,-0.73 -0.98,-0.229 -1.72,-0.3 -2.25,-0.229 -0.52,0.069 -0.92,0.22 -1.17,0.45 -0.28,0.249 -0.45,0.539 -0.53,0.909 z" style="fill:#861414;fill-opacity:1"/><path id="path3483" fill="#2e3191" d="m 11.92,50.361 1.99,0.79 c 0.38,0.141 0.62,0.21 0.74,0.21 0.12,-0.02 0.21,-0.069 0.33,-0.159 0.1,-0.101 0.22,-0.311 0.35,-0.641 l 0.18,0.08 -1.42,3.601 -0.18,-0.07 c 0.12,-0.32 0.19,-0.561 0.17,-0.7 -0.02,-0.15 -0.06,-0.26 -0.14,-0.35 -0.07,-0.08 -0.3,-0.2 -0.69,-0.351 l -4.58,-1.8 c -0.38,-0.15 -0.62,-0.22 -0.75,-0.22 -0.1,0.02 -0.23,0.069 -0.32,0.17 -0.11,0.09 -0.23,0.3 -0.36,0.63 l -0.18,-0.07 1.28,-3.27 c 0.35,-0.851 0.64,-1.44 0.92,-1.78 0.27,-0.35 0.61,-0.58 1.03,-0.71 0.41,-0.13 0.83,-0.1 1.25,0.07 0.52,0.2 0.86,0.55 1.06,1.06 0.13,0.32 0.15,0.72 0.1,1.19 l 3.02,-0.75 c 0.41,-0.09 0.65,-0.181 0.76,-0.24 0.16,-0.1 0.29,-0.24 0.37,-0.42 l 0.21,0.08 -0.87,2.2 -4.09,1.01 z m -3.42,-1.35 3.02,1.2 0.12,-0.3 c 0.2,-0.48 0.28,-0.86 0.3,-1.12 0,-0.29 -0.07,-0.53 -0.25,-0.76 -0.18,-0.23 -0.44,-0.41 -0.81,-0.561 C 10.35,47.26 9.91,47.23 9.56,47.39 9.21,47.54 8.92,47.9 8.71,48.46 Z" style="fill:#861414;fill-opacity:1"/><path id="path3485" fill="#2e3191" d="m 12.5,40.341 2.67,1.5 0.09,-0.13 c 0.23,-0.42 0.28,-0.811 0.11,-1.15 -0.15,-0.33 -0.47,-0.67 -0.95,-1.01 l 0.09,-0.17 3.45,1.939 -0.11,0.181 c -0.4,-0.181 -0.74,-0.26 -1.05,-0.28 -0.32,0 -0.56,0.05 -0.74,0.17 -0.17,0.12 -0.35,0.34 -0.53,0.65 l 1.85,1.04 c 0.35,0.2 0.59,0.31 0.69,0.33 0.1,0.01 0.19,0 0.28,-0.061 0.11,-0.05 0.21,-0.18 0.31,-0.359 L 18.89,42.6 c 0.34,-0.609 0.47,-1.18 0.4,-1.71 -0.08,-0.53 -0.36,-1.04 -0.85,-1.53 l 0.1,-0.18 1.93,1.47 -3.21,5.681 -0.16,-0.09 0.11,-0.221 c 0.11,-0.189 0.16,-0.359 0.16,-0.51 0,-0.1 -0.04,-0.22 -0.13,-0.33 C 17.19,45.11 17,44.97 16.65,44.781 l -4.33,-2.44 c -0.29,-0.16 -0.48,-0.25 -0.56,-0.271 -0.13,-0.039 -0.26,-0.029 -0.37,0.03 -0.16,0.07 -0.29,0.2 -0.42,0.42 l -0.12,0.21 -0.17,-0.09 3.11,-5.5 1.92,1.09 -0.09,0.16 c -0.53,-0.16 -0.94,-0.22 -1.24,-0.16 -0.3,0.051 -0.58,0.21 -0.85,0.471 -0.17,0.149 -0.39,0.479 -0.67,0.979 z" style="fill:#861414;fill-opacity:1"/><path id="path3487" fill="#2e3191" d="m 25.51,33.581 0.16,0.13 -2.47,3.07 -0.15,-0.12 0.16,-0.2 c 0.13,-0.16 0.22,-0.33 0.24,-0.48 0.01,-0.1 -0.01,-0.22 -0.07,-0.34 -0.04,-0.09 -0.23,-0.26 -0.52,-0.5 l -3.88,-3.1 c -0.3,-0.24 -0.51,-0.38 -0.6,-0.42 -0.11,-0.021 -0.22,-0.021 -0.35,0.04 -0.14,0.05 -0.27,0.159 -0.4,0.319 l -0.16,0.2 -0.14,-0.12 2.45,-3.069 0.16,0.119 -0.16,0.2 c -0.13,0.17 -0.2,0.32 -0.22,0.48 -0.04,0.1 0,0.22 0.06,0.34 0.04,0.09 0.21,0.25 0.51,0.49 l 3.88,3.109 c 0.31,0.24 0.51,0.38 0.62,0.4 0.1,0.03 0.21,0.02 0.35,-0.03 0.12,-0.05 0.26,-0.16 0.39,-0.319 z" style="fill:#861414;fill-opacity:1"/><path id="path3489" fill="#2e3191" d="m 22.67,25.811 5.92,0.67 -2.27,-2.279 c -0.32,-0.32 -0.59,-0.49 -0.79,-0.521 -0.28,-0.02 -0.56,0.11 -0.86,0.42 l -0.14,-0.13 1.76,-1.75 0.13,0.13 c -0.19,0.25 -0.31,0.44 -0.34,0.561 -0.02,0.13 -0.02,0.26 0.05,0.399 0.06,0.15 0.22,0.351 0.47,0.601 l 4.45,4.46 -0.14,0.13 -8.03,-0.851 3.39,3.42 c 0.31,0.301 0.57,0.44 0.83,0.4 0.25,-0.04 0.46,-0.14 0.65,-0.33 l 0.13,-0.14 0.14,0.13 -1.91,1.91 -0.15,-0.141 c 0.29,-0.3 0.44,-0.56 0.44,-0.8 0,-0.229 -0.14,-0.479 -0.42,-0.76 L 22.23,27.569 21.94,27.54 c -0.26,-0.04 -0.45,-0.03 -0.59,0 -0.13,0.05 -0.28,0.14 -0.45,0.29 l -0.13,-0.141 z" style="fill:#861414;fill-opacity:1"/><path id="path3491" fill="#2e3191" d="m 31.64,17.791 1.58,1.97 -0.17,0.13 c -0.48,-0.43 -1,-0.67 -1.57,-0.71 -0.57,-0.06 -1.05,0.08 -1.45,0.38 -0.29,0.23 -0.48,0.5 -0.52,0.78 -0.06,0.31 0,0.56 0.16,0.76 0.1,0.13 0.23,0.23 0.36,0.28 0.19,0.07 0.44,0.11 0.73,0.09 0.21,0 0.67,-0.08 1.35,-0.22 0.97,-0.19 1.69,-0.24 2.17,-0.12 0.48,0.13 0.86,0.37 1.17,0.78 0.37,0.5 0.52,1.08 0.4,1.729 -0.11,0.67 -0.47,1.22 -1.08,1.69 -0.2,0.149 -0.39,0.27 -0.59,0.359 -0.19,0.091 -0.47,0.181 -0.8,0.28 -0.19,0.05 -0.32,0.11 -0.42,0.18 -0.08,0.061 -0.14,0.16 -0.18,0.28 -0.04,0.12 -0.04,0.271 0,0.44 l -0.15,0.12 -1.75,-2.261 0.15,-0.12 c 0.62,0.54 1.25,0.83 1.88,0.87 0.62,0.04 1.16,-0.1 1.59,-0.42 0.34,-0.26 0.53,-0.56 0.59,-0.89 0.06,-0.33 0,-0.61 -0.18,-0.851 -0.1,-0.14 -0.25,-0.239 -0.42,-0.319 -0.18,-0.08 -0.39,-0.12 -0.64,-0.12 -0.24,0 -0.64,0.06 -1.17,0.16 -0.76,0.149 -1.32,0.22 -1.69,0.22 -0.4,0 -0.75,-0.07 -1.03,-0.2 -0.31,-0.13 -0.58,-0.35 -0.79,-0.63 -0.37,-0.47 -0.5,-1.01 -0.41,-1.62 0.08,-0.609 0.41,-1.12 0.95,-1.54 0.19,-0.149 0.39,-0.27 0.62,-0.37 0.17,-0.069 0.39,-0.14 0.67,-0.199 0.27,-0.061 0.44,-0.12 0.52,-0.181 0.08,-0.06 0.12,-0.13 0.13,-0.21 0.01,-0.09 -0.03,-0.229 -0.13,-0.439 z" style="fill:#861414;fill-opacity:1"/><path id="path3493" fill="#2e3191" d="m 39.71,12.951 1.04,1.75 -0.16,0.1 c -0.36,-0.35 -0.63,-0.56 -0.86,-0.67 -0.23,-0.11 -0.48,-0.14 -0.75,-0.12 -0.17,0.01 -0.39,0.12 -0.7,0.29 l -0.49,0.29 2.97,5.01 c 0.19,0.33 0.34,0.54 0.42,0.59 0.09,0.061 0.19,0.091 0.34,0.091 0.14,0 0.3,-0.04 0.48,-0.15 l 0.22,-0.13 0.1,0.16 -3.39,2 -0.09,-0.16 0.21,-0.13 c 0.2,-0.101 0.32,-0.23 0.4,-0.37 0.05,-0.09 0.07,-0.21 0.05,-0.34 -0.01,-0.091 -0.11,-0.311 -0.31,-0.641 l -2.96,-5 -0.48,0.29 c -0.44,0.25 -0.71,0.53 -0.81,0.83 -0.11,0.43 -0.07,0.9 0.12,1.43 l -0.15,0.101 -1.04,-1.75 z" style="fill:#861414;fill-opacity:1"/><path id="path3495" fill="#2e3191" d="m 47.95,17.251 0.08,0.18 -3.58,1.63 -0.08,-0.18 0.23,-0.1 c 0.19,-0.091 0.34,-0.2 0.43,-0.33 0.05,-0.08 0.09,-0.19 0.09,-0.33 0,-0.101 -0.09,-0.32 -0.24,-0.67 L 42.81,12.93 c -0.16,-0.35 -0.26,-0.57 -0.34,-0.64 -0.08,-0.07 -0.19,-0.11 -0.33,-0.12 -0.14,-0.03 -0.3,0.01 -0.5,0.1 l -0.23,0.11 -0.08,-0.18 3.57,-1.641 0.09,0.181 -0.23,0.1 c -0.2,0.09 -0.34,0.2 -0.43,0.33 -0.07,0.09 -0.1,0.189 -0.1,0.34 0,0.1 0.08,0.32 0.24,0.67 l 2.07,4.521 c 0.16,0.35 0.26,0.569 0.35,0.63 0.09,0.069 0.2,0.109 0.35,0.14 0.13,0.01 0.3,-0.02 0.5,-0.11 z" style="fill:#861414;fill-opacity:1"/><path id="path3497" fill="#2e3191" d="m 53.04,7.681 0.65,1.95 -0.19,0.06 C 53.24,9.292 53.01,9.002 52.81,8.851 52.61,8.702 52.37,8.611 52.1,8.561 51.94,8.551 51.7,8.591 51.36,8.702 l -0.53,0.18 1.82,5.53 c 0.12,0.37 0.22,0.59 0.29,0.67 0.07,0.08 0.18,0.13 0.32,0.17 0.14,0.02 0.31,0.01 0.5,-0.061 l 0.23,-0.08 0.07,0.181 -3.74,1.229 -0.06,-0.18 0.24,-0.08 c 0.2,-0.07 0.36,-0.16 0.46,-0.27 0.07,-0.08 0.1,-0.2 0.13,-0.33 0.01,-0.091 -0.05,-0.33 -0.17,-0.69 l -1.82,-5.52 -0.54,0.18 c -0.47,0.15 -0.81,0.37 -0.96,0.65 -0.21,0.38 -0.27,0.85 -0.18,1.399 l -0.19,0.061 -0.63,-1.93 z" style="fill:#861414;fill-opacity:1"/><path id="path3499" fill="#2e3191" d="m 55,7.161 3.83,-0.7 0.03,0.189 -0.19,0.03 c -0.28,0.061 -0.48,0.12 -0.58,0.2 -0.1,0.09 -0.16,0.189 -0.18,0.3 -0.02,0.12 0,0.38 0.08,0.811 l 0.67,3.64 c 0.12,0.66 0.25,1.09 0.38,1.3 0.15,0.19 0.34,0.351 0.59,0.44 0.25,0.1 0.55,0.12 0.89,0.06 0.4,-0.07 0.71,-0.229 0.96,-0.46 0.25,-0.229 0.41,-0.52 0.49,-0.86 0.08,-0.35 0.04,-0.909 -0.09,-1.71 L 61.33,7.381 C 61.27,7.041 61.19,6.811 61.1,6.681 61,6.551 60.9,6.471 60.79,6.421 60.62,6.36 60.37,6.36 60.08,6.421 l -0.03,-0.2 2.58,-0.46 0.03,0.19 -0.15,0.029 c -0.21,0.04 -0.38,0.11 -0.5,0.221 -0.11,0.109 -0.2,0.25 -0.23,0.439 -0.03,0.12 0,0.34 0.05,0.65 l 0.51,2.819 c 0.16,0.87 0.21,1.511 0.18,1.921 -0.05,0.409 -0.27,0.81 -0.64,1.21 -0.38,0.409 -0.96,0.68 -1.72,0.829 -0.65,0.11 -1.16,0.12 -1.54,0.011 -0.52,-0.15 -0.9,-0.391 -1.17,-0.71 -0.26,-0.33 -0.46,-0.801 -0.57,-1.42 L 56.22,8.319 C 56.14,7.881 56.07,7.621 56,7.531 55.94,7.43 55.83,7.36 55.71,7.32 55.58,7.281 55.35,7.3 55.04,7.36 Z" style="fill:#861414;fill-opacity:1"/><path id="path3501" fill="#2e3191" d="m 71.311,5.291 0.09,2.05 h -0.19 c -0.14,-0.47 -0.29,-0.79 -0.431,-0.99 -0.149,-0.2 -0.369,-0.35 -0.619,-0.47 -0.15,-0.05 -0.39,-0.08 -0.74,-0.061 l -0.58,0.021 0.26,5.81 c 0.02,0.391 0.06,0.641 0.1,0.73 0.05,0.09 0.14,0.18 0.26,0.24 0.12,0.069 0.3,0.1 0.5,0.08 l 0.25,-0.011 0.01,0.2 -3.94,0.18 -0.01,-0.199 0.26,-0.011 c 0.22,-0.01 0.39,-0.069 0.51,-0.149 0.1,-0.061 0.16,-0.15 0.21,-0.28 0.03,-0.1 0.05,-0.33 0.03,-0.71 l -0.25,-5.81 -0.56,0.02 c -0.51,0.021 -0.88,0.15 -1.11,0.37 -0.3,0.31 -0.48,0.75 -0.55,1.31 h -0.2 l -0.09,-2.029 z" style="fill:#861414;fill-opacity:1"/><path id="path3503" fill="#2e3191" d="m 76.07,6.021 -0.27,3.05 0.15,0.011 c 0.489,0.04 0.85,-0.08 1.09,-0.36 0.239,-0.27 0.41,-0.71 0.53,-1.29 l 0.189,0.021 -0.33,3.93 -0.209,-0.021 C 77.209,10.932 77.15,10.572 77.029,10.293 76.91,10.013 76.75,9.813 76.57,9.703 76.39,9.593 76.12,9.522 75.759,9.493 l -0.189,2.1 c -0.03,0.42 -0.041,0.67 -0.01,0.77 0.039,0.091 0.09,0.171 0.18,0.24 0.09,0.07 0.24,0.11 0.449,0.13 l 0.44,0.051 c 0.71,0.05 1.28,-0.061 1.74,-0.341 0.44,-0.29 0.8,-0.75 1.04,-1.399 l 0.199,0.02 -0.539,2.351 -6.5,-0.57 0.02,-0.19 0.24,0.021 c 0.21,0.02 0.4,0 0.529,-0.07 0.101,-0.05 0.181,-0.13 0.24,-0.26 0.061,-0.09 0.09,-0.32 0.12,-0.7 l 0.44,-4.95 c 0.04,-0.35 0.04,-0.55 0.04,-0.63 -0.021,-0.13 -0.091,-0.229 -0.181,-0.31 -0.129,-0.13 -0.319,-0.181 -0.55,-0.21 l -0.25,-0.03 0.021,-0.19 6.279,0.551 -0.199,2.21 -0.19,-0.021 c -0.06,-0.54 -0.18,-0.939 -0.351,-1.189 -0.159,-0.25 -0.43,-0.45 -0.779,-0.58 -0.2,-0.09 -0.58,-0.16 -1.16,-0.21 z" style="fill:#861414;fill-opacity:1"/><path id="path3505" fill="#2e3191" d="m 89.84,7.981 c 1.17,0.301 2,0.9 2.51,1.84 0.51,0.931 0.61,1.931 0.301,3.011 -0.28,0.93 -0.78,1.64 -1.521,2.18 -0.979,0.71 -2.13,0.88 -3.43,0.51 -1.3,-0.39 -2.171,-1.13 -2.61,-2.22 -0.38,-0.85 -0.4,-1.77 -0.119,-2.73 C 85.29,9.503 85.92,8.713 86.87,8.213 87.79,7.701 88.8,7.621 89.84,7.981 Z m -0.04,0.36 c -0.649,-0.19 -1.26,0 -1.8,0.58 -0.439,0.479 -0.82,1.229 -1.13,2.27 -0.37,1.24 -0.41,2.21 -0.149,2.931 0.17,0.5 0.539,0.84 1.079,0.989 0.36,0.101 0.69,0.11 1,0.011 0.37,-0.141 0.729,-0.431 1.04,-0.891 0.33,-0.449 0.6,-1.069 0.84,-1.88 0.291,-0.95 0.42,-1.7 0.381,-2.229 C 91.02,9.592 90.891,9.202 90.67,8.912 90.46,8.641 90.17,8.451 89.8,8.341 Z" style="fill:#861414;fill-opacity:1"/><path id="path3507" fill="#2e3191" d="m 98.02,11.591 -1.279,2.83 0.21,0.09 c 0.3,0.14 0.56,0.2 0.79,0.2 0.23,-0.01 0.46,-0.08 0.699,-0.24 0.23,-0.15 0.451,-0.41 0.65,-0.76 l 0.189,0.08 -1.579,3.47 -0.171,-0.08 c 0.24,-0.689 0.271,-1.21 0.07,-1.54 -0.18,-0.35 -0.449,-0.59 -0.8,-0.76 l -0.22,-0.09 -0.96,2.109 c -0.149,0.36 -0.229,0.57 -0.24,0.681 0,0.1 0.04,0.22 0.12,0.34 0.08,0.12 0.21,0.22 0.41,0.3 l 0.22,0.1 -0.08,0.181 -3.579,-1.61 0.079,-0.18 0.229,0.1 c 0.201,0.09 0.371,0.12 0.531,0.11 0.119,-0.01 0.209,-0.061 0.31,-0.15 0.09,-0.069 0.19,-0.27 0.351,-0.62 l 2.049,-4.529 c 0.17,-0.351 0.25,-0.59 0.25,-0.69 0,-0.1 -0.029,-0.22 -0.109,-0.34 -0.09,-0.11 -0.23,-0.21 -0.42,-0.3 l -0.211,-0.101 0.08,-0.18 5.791,2.63 -0.881,1.97 -0.22,-0.09 c 0.171,-0.489 0.19,-0.88 0.12,-1.189 -0.109,-0.311 -0.32,-0.59 -0.64,-0.86 -0.181,-0.14 -0.54,-0.33 -1.091,-0.59 z" style="fill:#861414;fill-opacity:1"/><path id="path3509" fill="#2e3191" d="m 111.41,18.921 -1.16,1.689 -0.15,-0.109 c 0.16,-0.46 0.24,-0.811 0.24,-1.061 0,-0.25 -0.08,-0.489 -0.22,-0.739 -0.07,-0.131 -0.261,-0.301 -0.54,-0.49 l -0.471,-0.32 -3.279,4.8 c -0.21,0.32 -0.33,0.521 -0.359,0.641 -0.011,0.109 0,0.229 0.069,0.35 0.04,0.14 0.17,0.26 0.351,0.37 l 0.199,0.14 -0.109,0.16 -3.25,-2.21 0.119,-0.16 0.211,0.141 c 0.17,0.12 0.34,0.189 0.489,0.189 0.12,0.01 0.22,-0.02 0.351,-0.1 0.09,-0.04 0.22,-0.23 0.449,-0.54 l 3.271,-4.8 -0.47,-0.33 c -0.431,-0.28 -0.78,-0.4 -1.09,-0.351 -0.451,0.07 -0.851,0.301 -1.23,0.71 l -0.15,-0.109 1.131,-1.69 z" style="fill:#861414;fill-opacity:1"/><path id="path3511" fill="#2e3191" d="m 114.79,22.351 -2.06,2.29 0.119,0.101 c 0.371,0.329 0.711,0.449 1.08,0.369 0.36,-0.069 0.76,-0.319 1.2,-0.72 l 0.149,0.141 -2.649,2.939 -0.14,-0.13 c 0.25,-0.35 0.42,-0.67 0.49,-0.97 0.08,-0.301 0.069,-0.551 0,-0.74 -0.08,-0.21 -0.25,-0.42 -0.541,-0.67 l -1.41,1.58 c -0.279,0.31 -0.43,0.5 -0.469,0.59 -0.031,0.11 -0.031,0.189 0,0.31 0.029,0.101 0.129,0.24 0.289,0.37 l 0.33,0.3 c 0.51,0.471 1.051,0.721 1.59,0.761 0.53,0.05 1.09,-0.13 1.67,-0.5 l 0.15,0.149 -1.859,1.561 -4.851,-4.351 0.14,-0.149 0.181,0.17 c 0.149,0.149 0.31,0.229 0.46,0.27 0.119,0.021 0.23,0.011 0.359,-0.06 0.08,-0.04 0.26,-0.2 0.521,-0.49 l 3.319,-3.689 c 0.24,-0.261 0.361,-0.421 0.41,-0.5 0.051,-0.12 0.061,-0.24 0.041,-0.36 -0.031,-0.18 -0.141,-0.33 -0.32,-0.5 l -0.2,-0.17 0.13,-0.15 4.71,4.22 -1.489,1.65 -0.14,-0.132 c 0.279,-0.48 0.42,-0.87 0.439,-1.17 0.011,-0.3 -0.09,-0.63 -0.27,-0.95 -0.12,-0.189 -0.391,-0.47 -0.82,-0.85 z" style="fill:#861414;fill-opacity:1"/><path id="path3513" fill="#2e3191" d="m 124.41,31.641 -1.99,1.69 -0.13,-0.15 c 0.41,-0.56 0.62,-1.14 0.61,-1.71 -0.01,-0.57 -0.2,-1.07 -0.551,-1.51 -0.32,-0.36 -0.699,-0.601 -1.17,-0.73 -0.449,-0.109 -0.92,-0.109 -1.369,0.04 -0.561,0.19 -1.121,0.5 -1.65,0.94 -0.52,0.439 -0.93,0.899 -1.24,1.39 -0.311,0.48 -0.46,0.96 -0.439,1.42 0.02,0.46 0.209,0.91 0.58,1.34 0.31,0.37 0.67,0.631 1.08,0.79 0.42,0.17 0.959,0.261 1.619,0.261 l -0.5,0.42 c -0.619,-0.03 -1.13,-0.16 -1.59,-0.391 -0.439,-0.21 -0.859,-0.55 -1.26,-1.02 -0.52,-0.61 -0.86,-1.271 -1.01,-1.96 -0.16,-0.681 -0.121,-1.351 0.129,-2 0.24,-0.65 0.621,-1.19 1.141,-1.641 0.561,-0.47 1.189,-0.76 1.93,-0.89 0.73,-0.13 1.44,-0.07 2.131,0.2 0.68,0.25 1.26,0.66 1.729,1.21 0.34,0.4 0.62,0.9 0.819,1.5 0.131,0.35 0.201,0.56 0.261,0.63 0.069,0.1 0.19,0.14 0.29,0.15 0.13,0.01 0.27,-0.04 0.43,-0.13 z" style="fill:#861414;fill-opacity:1"/><path id="path3515" fill="#2e3191" d="m 123.84,38.061 -2,1.24 c -0.32,0.2 -0.52,0.34 -0.57,0.43 -0.06,0.08 -0.09,0.21 -0.09,0.34 0,0.15 0.061,0.311 0.17,0.48 l 0.141,0.22 -0.17,0.11 -2.08,-3.35 0.18,-0.101 0.13,0.21 c 0.11,0.19 0.25,0.311 0.38,0.391 0.09,0.06 0.221,0.069 0.34,0.039 0.09,-0.01 0.311,-0.119 0.631,-0.319 l 4.22,-2.62 c 0.33,-0.2 0.53,-0.35 0.59,-0.43 0.069,-0.08 0.09,-0.2 0.09,-0.351 -0.01,-0.13 -0.06,-0.31 -0.18,-0.479 l -0.14,-0.21 0.17,-0.101 2.06,3.33 -0.149,0.11 -0.141,-0.21 c -0.109,-0.19 -0.25,-0.3 -0.38,-0.38 -0.08,-0.051 -0.21,-0.07 -0.33,-0.051 -0.101,0.011 -0.31,0.131 -0.64,0.32 l -1.801,1.13 1.391,2.24 1.82,-1.12 c 0.319,-0.21 0.529,-0.35 0.58,-0.43 0.06,-0.09 0.08,-0.2 0.08,-0.351 -0.011,-0.14 -0.061,-0.3 -0.17,-0.479 l -0.131,-0.21 0.17,-0.101 2.07,3.341 -0.16,0.1 -0.12,-0.2 c -0.13,-0.189 -0.25,-0.319 -0.38,-0.38 -0.109,-0.07 -0.21,-0.07 -0.35,-0.05 -0.101,0 -0.32,0.12 -0.631,0.31 l -4.22,2.62 c -0.34,0.21 -0.54,0.351 -0.6,0.44 -0.07,0.09 -0.091,0.2 -0.08,0.35 0,0.15 0.05,0.3 0.16,0.48 l 0.13,0.21 -0.17,0.1 -2.07,-3.34 0.16,-0.1 0.12,0.21 c 0.12,0.189 0.25,0.319 0.39,0.38 0.1,0.06 0.211,0.069 0.35,0.05 0.091,0 0.301,-0.11 0.631,-0.32 l 1.98,-1.229 z" style="fill:#861414;fill-opacity:1"/><path id="path3517" fill="#2e3191" d="m 131.92,44.721 -2.779,5.26 2.949,-1.279 c 0.41,-0.181 0.67,-0.351 0.76,-0.54 0.131,-0.25 0.11,-0.57 -0.07,-0.95 l 0.181,-0.08 0.979,2.28 -0.18,0.08 c -0.16,-0.28 -0.3,-0.45 -0.4,-0.53 -0.1,-0.07 -0.229,-0.101 -0.409,-0.101 -0.15,0 -0.4,0.07 -0.72,0.221 l -5.771,2.489 -0.08,-0.17 3.75,-7.17 -4.43,1.91 c -0.39,0.17 -0.61,0.37 -0.681,0.62 -0.05,0.24 -0.02,0.48 0.07,0.73 l 0.07,0.159 -0.16,0.07 -1.08,-2.47 0.18,-0.08 c 0.16,0.38 0.36,0.61 0.57,0.7 0.21,0.08 0.5,0.04 0.87,-0.11 l 4.88,-2.09 0.13,-0.26 c 0.12,-0.23 0.2,-0.41 0.21,-0.551 0.01,-0.14 -0.02,-0.31 -0.1,-0.529 l 0.17,-0.08 z" style="fill:#861414;fill-opacity:1"/><path id="path3519" fill="#2e3191" d="m 135.76,55.191 c 0.33,1.15 0.24,2.17 -0.27,3.091 -0.54,0.92 -1.34,1.52 -2.42,1.8 -0.93,0.25 -1.82,0.189 -2.67,-0.16 -1.121,-0.47 -1.84,-1.36 -2.19,-2.67 -0.34,-1.311 -0.16,-2.44 0.53,-3.391 0.56,-0.76 1.32,-1.26 2.279,-1.51 1.08,-0.29 2.08,-0.149 3,0.38 0.92,0.55 1.491,1.37 1.741,2.46 z m -0.33,0.14 c -0.17,-0.67 -0.65,-1.07 -1.42,-1.24 -0.64,-0.14 -1.48,-0.06 -2.52,0.21 -1.25,0.33 -2.11,0.79 -2.58,1.38 -0.35,0.42 -0.45,0.89 -0.301,1.44 0.11,0.37 0.281,0.649 0.531,0.859 0.31,0.24 0.739,0.4 1.279,0.45 0.55,0.04 1.24,-0.05 2.061,-0.26 0.959,-0.25 1.66,-0.54 2.08,-0.851 0.449,-0.3 0.709,-0.619 0.84,-0.939 0.11,-0.329 0.129,-0.679 0.03,-1.049 z" style="fill:#861414;fill-opacity:1"/><path id="path3521" fill="#2e3191" d="m 132.971,68.621 -2.681,0.02 -0.76,-6.649 0.2,-0.03 0.02,0.26 c 0.04,0.21 0.09,0.38 0.189,0.51 0.061,0.08 0.16,0.15 0.281,0.181 0.1,0.029 0.329,0.029 0.719,-0.021 l 4.931,-0.56 c 0.39,-0.051 0.63,-0.101 0.72,-0.15 0.09,-0.049 0.17,-0.14 0.23,-0.27 0.05,-0.131 0.06,-0.301 0.039,-0.511 l -0.029,-0.25 0.189,-0.02 0.451,3.99 -0.191,0.02 -0.029,-0.33 c -0.029,-0.22 -0.09,-0.39 -0.18,-0.51 -0.07,-0.1 -0.17,-0.16 -0.301,-0.2 -0.09,-0.03 -0.33,-0.02 -0.699,0.021 l -4.79,0.56 c -0.38,0.04 -0.62,0.09 -0.73,0.14 -0.1,0.061 -0.17,0.15 -0.21,0.28 -0.02,0.101 -0.01,0.33 0.02,0.68 l 0.08,0.62 c 0.051,0.4 0.15,0.721 0.33,0.971 0.17,0.239 0.41,0.46 0.74,0.609 0.32,0.16 0.801,0.29 1.41,0.38 z" style="fill:#861414;fill-opacity:1"/><path id="path3523" fill="#2e3191" d="m 137.95,74.231 c 0.01,1.2 -0.37,2.17 -1.13,2.9 -0.771,0.729 -1.711,1.08 -2.83,1.05 -0.95,-0.03 -1.801,-0.33 -2.49,-0.92 -0.95,-0.76 -1.4,-1.82 -1.359,-3.18 0.029,-1.36 0.52,-2.391 1.459,-3.101 0.74,-0.569 1.61,-0.83 2.61,-0.81 1.11,0.04 2.05,0.45 2.76,1.22 0.73,0.781 1.05,1.741 0.98,2.841 z m -0.35,0.06 c 0.01,-0.69 -0.33,-1.221 -1.02,-1.601 -0.58,-0.31 -1.4,-0.479 -2.471,-0.51 -1.299,-0.04 -2.25,0.16 -2.879,0.601 -0.44,0.289 -0.66,0.729 -0.681,1.289 0,0.381 0.07,0.7 0.25,0.961 0.22,0.34 0.601,0.6 1.12,0.789 0.52,0.2 1.2,0.311 2.03,0.33 0.979,0.03 1.75,-0.04 2.239,-0.21 0.5,-0.17 0.851,-0.399 1.07,-0.67 0.213,-0.279 0.322,-0.609 0.342,-0.979 z" style="fill:#861414;fill-opacity:1"/><path id="path3525" fill="#2e3191" d="m 136.33,87.881 -2.62,-0.47 0.04,-0.2 c 0.77,-0.101 1.391,-0.38 1.84,-0.811 0.46,-0.42 0.74,-0.909 0.86,-1.5 0.11,-0.55 0.04,-1.05 -0.22,-1.47 -0.24,-0.43 -0.631,-0.76 -1.15,-1.03 -0.54,-0.25 -1.109,-0.43 -1.689,-0.54 -0.721,-0.13 -1.351,-0.159 -1.92,-0.1 -0.561,0.07 -1.011,0.28 -1.33,0.6 -0.33,0.311 -0.541,0.74 -0.631,1.25 -0.029,0.181 -0.05,0.37 -0.05,0.57 0.01,0.18 0.03,0.38 0.06,0.601 l 1.551,0.279 c 0.289,0.061 0.49,0.061 0.58,0.04 0.109,-0.02 0.199,-0.09 0.289,-0.2 0.09,-0.119 0.15,-0.25 0.201,-0.43 l 0.02,-0.2 0.199,0.03 -0.659,3.61 -0.2,-0.04 c 0.029,-0.271 0.029,-0.471 0,-0.58 -0.04,-0.12 -0.13,-0.221 -0.24,-0.311 -0.07,-0.05 -0.25,-0.08 -0.51,-0.14 l -1.55,-0.29 c -0.12,-0.5 -0.2,-1.03 -0.21,-1.56 -0.021,-0.53 0.029,-1.07 0.13,-1.62 0.13,-0.7 0.33,-1.271 0.6,-1.69 0.29,-0.439 0.61,-0.8 0.99,-1.11 0.37,-0.289 0.78,-0.5 1.21,-0.64 0.551,-0.16 1.141,-0.18 1.76,-0.07 1.11,0.21 1.99,0.771 2.62,1.7 0.63,0.92 0.83,1.98 0.61,3.17 -0.07,0.37 -0.15,0.69 -0.28,0.98 -0.05,0.16 -0.18,0.399 -0.39,0.729 -0.2,0.341 -0.311,0.53 -0.311,0.601 -0.029,0.1 0,0.2 0.051,0.29 0.049,0.109 0.189,0.21 0.379,0.319 z" style="fill:#861414;fill-opacity:1"/><path id="path3527" fill="#2e3191" d="m 132.971,97.841 -0.181,-0.07 c 0.05,-0.239 0.05,-0.45 -0.021,-0.609 -0.1,-0.221 -0.39,-0.641 -0.92,-1.24 l -2.07,-2.44 -1.719,-0.59 c -0.371,-0.13 -0.601,-0.189 -0.711,-0.189 -0.119,0.02 -0.209,0.06 -0.32,0.149 -0.109,0.09 -0.199,0.23 -0.25,0.41 l -0.139,0.4 -0.19,-0.07 1.38,-3.99 0.189,0.05 -0.14,0.381 c -0.069,0.21 -0.09,0.39 -0.05,0.539 0.01,0.11 0.08,0.211 0.18,0.311 0.07,0.06 0.29,0.16 0.65,0.29 l 1.449,0.49 3.631,-0.63 c 0.72,-0.131 1.16,-0.24 1.31,-0.341 0.15,-0.1 0.271,-0.26 0.351,-0.489 l 0.18,0.069 -1.16,3.42 -0.18,-0.06 0.05,-0.15 c 0.06,-0.21 0.08,-0.37 0.05,-0.47 -0.029,-0.11 -0.08,-0.16 -0.15,-0.18 -0.119,-0.05 -0.5,-0.021 -1.109,0.08 l -2.801,0.489 1.701,2.021 c 0.42,0.51 0.72,0.79 0.899,0.85 0.101,0.04 0.19,0.021 0.29,-0.05 0.12,-0.09 0.25,-0.29 0.391,-0.6 l 0.18,0.05 z" style="fill:#861414;fill-opacity:1"/><g id="g3535" style="fill:#861414;fill-opacity:1"><path id="path3529" fill="#2e3191" d="m 68.554,31.998 v 0.416 c -0.612,0.11 -1.163,0.441 -1.652,1.003 -0.367,0.428 -0.881,1.419 -1.578,2.984 L 59.477,49.442 H 59.049 L 53.214,35.864 c -0.709,-1.652 -1.174,-2.605 -1.407,-2.899 -0.245,-0.282 -0.709,-0.477 -1.37,-0.563 v -0.416 h 8.184 v 0.416 h -0.282 c -0.734,0 -1.235,0.11 -1.504,0.281 -0.196,0.147 -0.294,0.319 -0.294,0.564 0,0.146 0.024,0.342 0.086,0.55 0.073,0.196 0.306,0.758 0.685,1.664 l 3.658,8.502 3.352,-7.561 c 0.416,-0.917 0.661,-1.541 0.758,-1.847 0.098,-0.318 0.135,-0.575 0.135,-0.808 0,-0.257 -0.062,-0.477 -0.196,-0.672 -0.134,-0.196 -0.342,-0.355 -0.599,-0.453 -0.354,-0.146 -0.832,-0.22 -1.419,-0.22 v -0.416 h 5.554 v 0.012 z" style="fill:#861414;fill-opacity:1"/><path id="path3531" fill="#2e3191" d="m 78.278,48.622 v 0.441 h -8.917 v -0.441 h 0.563 c 0.501,0 0.905,-0.073 1.211,-0.257 0.22,-0.122 0.379,-0.33 0.501,-0.624 0.074,-0.208 0.135,-0.733 0.135,-1.615 V 34.921 c 0,-0.892 -0.061,-1.443 -0.135,-1.663 -0.11,-0.221 -0.294,-0.416 -0.575,-0.588 -0.281,-0.159 -0.672,-0.257 -1.149,-0.257 h -0.563 v -0.416 h 8.917 v 0.416 h -0.562 c -0.49,0 -0.894,0.098 -1.176,0.269 -0.231,0.123 -0.392,0.331 -0.525,0.625 -0.098,0.196 -0.146,0.746 -0.146,1.627 v 11.205 c 0,0.894 0.036,1.444 0.146,1.664 0.109,0.22 0.294,0.416 0.588,0.588 0.256,0.183 0.647,0.244 1.125,0.244 z" style="fill:#861414;fill-opacity:1"/><path id="path3533" fill="#2e3191" d="m 95.173,31.998 v 4.6 H 94.734 C 94.463,35.534 94.17,34.776 93.84,34.31 93.51,33.858 93.056,33.478 92.494,33.198 92.188,33.063 91.6,32.989 90.817,32.989 h -1.283 v 13.15 c 0,0.894 0.048,1.444 0.157,1.664 0.087,0.22 0.271,0.416 0.553,0.588 0.28,0.183 0.659,0.244 1.137,0.244 h 0.575 v 0.441 h -8.931 v -0.441 h 0.563 c 0.488,0 0.892,-0.073 1.198,-0.257 0.207,-0.122 0.38,-0.33 0.514,-0.624 0.098,-0.208 0.135,-0.734 0.135,-1.615 v -13.15 h -1.284 c -1.162,0 -2.007,0.245 -2.521,0.723 -0.746,0.685 -1.212,1.639 -1.395,2.886 h -0.429 v -4.6 z" style="fill:#861414;fill-opacity:1"/></g><path id="path3537" fill="#2e3191" d="m 88.79,127.131 c 0,0 2.96,-0.3 6.25,0.51 1.979,0.49 4.08,1.36 5.729,2.96 10e-4,0 -6.649,-3.01 -11.979,-3.47 z" style="fill:#861414;fill-opacity:1"/><path id="path3539" fill="#2e3191" d="m 92.62,126.271 c 0,0 2.29,-0.26 4.84,0.46 1.521,0.44 3.149,1.221 4.42,2.62 0,0.01 -5.13,-2.65 -9.26,-3.08 z" style="fill:#861414;fill-opacity:1"/><path id="path3541" fill="#2e3191" d="m 95.02,125.271 c 0,0 2.03,-0.229 4.301,0.4 1.369,0.38 2.8,1.09 3.93,2.33 -0.011,0 -4.571,-2.36 -8.231,-2.73 z" style="fill:#861414;fill-opacity:1"/><path id="path3543" fill="#2e3191" d="m 98.05,124.401 c 0,0 1.63,-0.189 3.45,0.33 1.08,0.311 2.24,0.86 3.17,1.87 -0.01,0 -3.69,-1.89 -6.62,-2.2 z" style="fill:#861414;fill-opacity:1"/><path id="path3545" fill="#2e3191" d="m 100.279,123.471 c 0,0 1.4,-0.16 2.941,0.28 0.939,0.26 1.92,0.74 2.689,1.58 10e-4,0 -3.119,-1.61 -5.63,-1.86 z" style="fill:#861414;fill-opacity:1"/><path id="path3547" fill="#2e3191" d="m 102.811,122.621 c 0,0 1.08,-0.11 2.27,0.22 0.72,0.21 1.49,0.58 2.1,1.24 -10e-4,-0.01 -2.421,-1.25 -4.37,-1.46 z" style="fill:#861414;fill-opacity:1"/><path id="path3549" fill="#2e3191" d="m 52.38,127.131 c 0,0 -2.97,-0.3 -6.26,0.51 -1.97,0.49 -4.08,1.36 -5.73,2.96 -0.01,0 6.65,-3.01 11.99,-3.47 z" style="fill:#861414;fill-opacity:1"/><path id="path3551" fill="#2e3191" d="m 48.53,126.271 c 0,0 -2.29,-0.26 -4.83,0.46 -1.53,0.44 -3.15,1.221 -4.43,2.62 -0.01,0.01 5.13,-2.65 9.26,-3.08 z" style="fill:#861414;fill-opacity:1"/><path id="path3553" fill="#2e3191" d="m 46.15,125.271 c 0,0 -2.04,-0.229 -4.31,0.4 -1.37,0.38 -2.8,1.09 -3.94,2.33 0,0 4.59,-2.36 8.25,-2.73 z" style="fill:#861414;fill-opacity:1"/><path id="path3555" fill="#2e3191" d="m 43.11,124.401 c 0,0 -1.64,-0.189 -3.45,0.33 -1.09,0.311 -2.25,0.86 -3.15,1.87 0,0 3.66,-1.89 6.6,-2.2 z" style="fill:#861414;fill-opacity:1"/><path id="path3557" fill="#2e3191" d="m 40.87,123.471 c 0,0 -1.4,-0.16 -2.94,0.28 -0.93,0.26 -1.91,0.74 -2.69,1.58 0,0 3.11,-1.61 5.63,-1.86 z" style="fill:#861414;fill-opacity:1"/><path id="path3559" fill="#2e3191" d="m 38.34,122.621 c 0,0 -1.06,-0.11 -2.28,0.22 -0.73,0.21 -1.48,0.58 -2.07,1.24 0,-0.01 2.41,-1.25 4.35,-1.46 z" style="fill:#861414;fill-opacity:1"/><polygon id="polygon3561" fill="#2e3191" points="120.359 118.501 116.91 117.121 113.45 118.501 114.95 115.311 113.45 112.111 116.91 113.501 120.359 112.111 118.87 115.311" style="fill:#861414;fill-opacity:1"/><polygon id="polygon3563" fill="#2e3191" points="28.07 118.501 24.61 117.121 21.15 118.501 22.66 115.311 21.15 112.111 24.61 113.501 28.07 112.111 26.58 115.311" style="fill:#861414;fill-opacity:1"/><path id="path3565" fill="#2e3191" d="m 0.83,72.371 c 0,-38.61 31.29,-69.9 69.891,-69.9 38.6,0 69.899,31.29 69.899,69.9 0,26.13 -14.351,48.91 -35.601,60.91 0.641,0.18 1.28,0.38 1.94,0.569 21.03,-12.399 35.12,-35.3 35.12,-61.479 0,-39.42 -31.95,-71.37 -71.359,-71.37 -39.411,0 -71.371,31.95 -71.371,71.37 0,26.88 14.87,50.29 36.83,62.449 0.62,-0.21 1.25,-0.43 1.88,-0.649 C 15.91,122.431 0.83,99.161 0.83,72.371 Z" style="fill:#861414;fill-opacity:1"/><path id="path3567" fill="#2e3191" d="m 136.96,137.661 c 3.101,-2.58 5.34,-9.49 5.431,-9.811 l 0.609,-1.89 -1.51,1.29 c -6.381,5.51 -22.27,4.74 -22.44,4.74 l -1.409,-0.08 0.209,0.229 c 0.07,0.43 0.34,1.99 0.711,4.01 -1.511,-0.22 -2.961,-0.51 -4.271,-0.81 -0.011,-0.021 -0.021,-0.021 -0.03,-0.021 -0.84,-0.199 -1.63,-0.38 -2.33,-0.579 -0.029,0 -0.06,-0.021 -0.08,-0.021 -0.109,-0.04 -0.24,-0.06 -0.35,-0.1 -0.05,-0.021 -0.08,-0.021 -0.109,-0.04 -0.121,-0.04 -0.221,-0.061 -0.341,-0.08 -0.03,-0.01 -0.069,-0.021 -0.12,-0.03 -0.09,-0.03 -0.189,-0.07 -0.3,-0.09 -0.01,-0.01 -0.03,-0.01 -0.04,-0.01 -0.21,-0.061 -0.4,-0.12 -0.59,-0.17 -0.05,-0.03 -0.1,-0.04 -0.13,-0.051 -0.07,-0.029 -0.14,-0.04 -0.21,-0.06 -0.07,-0.021 -0.131,-0.04 -0.18,-0.05 -0.07,-0.01 -0.131,-0.05 -0.201,-0.05 -0.059,-0.04 -0.119,-0.051 -0.18,-0.07 -0.039,-0.01 -0.1,-0.021 -0.149,-0.05 -0.06,-0.011 -0.13,-0.04 -0.2,-0.051 -0.04,-0.029 -0.09,-0.04 -0.12,-0.05 -0.101,-0.02 -0.2,-0.06 -0.28,-0.09 l -0.57,-0.189 c -17.699,-5.4 -28.039,-7.5 -36.859,-7.5 -7.54,0 -19.43,2.85 -35.37,8.46 -0.37,0.119 -0.72,0.239 -1.08,0.359 -0.08,0.03 -0.17,0.061 -0.26,0.08 -0.35,0.12 -0.69,0.22 -1.04,0.33 -0.01,0 -0.02,0 -0.04,0.01 -0.33,0.101 -0.67,0.181 -1,0.28 -0.08,0.03 -0.17,0.05 -0.24,0.08 -0.33,0.09 -0.67,0.18 -1.01,0.26 0,0 -0.03,0.021 -0.04,0.021 -0.31,0.08 -0.63,0.159 -0.94,0.22 -0.07,0.02 -0.14,0.04 -0.22,0.06 -0.32,0.061 -0.64,0.13 -0.94,0.21 -0.03,0 -0.05,0 -0.07,0 -0.3,0.061 -0.58,0.131 -0.89,0.17 -0.06,0.011 -0.14,0.021 -0.2,0.021 -0.31,0.06 -0.61,0.12 -0.91,0.16 -0.03,0.02 -0.05,0.02 -0.08,0.02 -0.27,0.051 -0.54,0.09 -0.81,0.12 -0.07,0.021 -0.12,0.03 -0.19,0.04 -0.28,0.03 -0.56,0.07 -0.84,0.101 -0.02,0 -0.06,0 -0.1,0 -0.24,0.029 -0.48,0.06 -0.72,0.09 -0.06,0 -0.12,0 -0.19,0.01 -0.16,0.02 -0.34,0.03 -0.49,0.04 0.51,-2.59 0.94,-4.75 1.01,-5.07 l 0.12,-0.13 -1.41,0.08 c -0.15,0 -16.06,0.76 -22.44,-4.74 L -1,125.951 l 0.6,1.89 c 0.11,0.32 2.35,7.229 5.43,9.81 -1.05,1.021 -3.62,3.61 -5.52,5.971 l -0.45,0.529 0.64,0.32 c 0.29,0.13 6.81,3.29 13.16,3.11 v 3.75 l 0.36,0.13 c 6.64,2.54 15.15,0.51 20.23,-0.7 l 1.98,-0.44 c 2.38,-0.5 5.63,-1.689 9.38,-3.05 7.77,-2.819 17.43,-6.35 25.9,-6.35 9.271,0 21.42,3.92 30.28,6.79 3.33,1.07 6.21,2.01 8.52,2.609 8.6,2.24 18.99,1.181 19.11,1.181 l 0.5,-0.061 v -3.87 c 6.351,0.181 12.88,-2.97 13.17,-3.109 l 0.63,-0.32 -0.449,-0.53 c -1.901,-2.34 -4.471,-4.93 -5.511,-5.95 z m -124.09,-1.29 v 0.75 9.319 c -4.96,0.15 -10.21,-1.909 -12.01,-2.689 2.35,-2.771 5.39,-5.71 5.43,-5.74 l 0.5,-0.5 -0.61,-0.38 c -2.14,-1.37 -4,-5.561 -4.92,-7.93 6,3.75 16.34,3.989 20.21,3.96 -3.38,2.81 -7.38,3.319 -8.01,3.38 z M 128,150.421 c -2.15,0.18 -10.85,0.72 -18.2,-1.2 -2.26,-0.59 -5.13,-1.51 -8.44,-2.59 -8.949,-2.88 -21.189,-6.84 -30.629,-6.84 -8.681,0 -18.44,3.569 -26.291,6.43 -3.72,1.36 -6.93,2.521 -9.22,3 l -2,0.46 c -4.87,1.15 -12.94,3.05 -19.22,0.851 v -8.03 c 0,-1.99 0,-3.98 0,-4.69 1.05,0.23 3.18,0.57 6.22,0.561 3.91,-0.011 9.29,-0.62 15.68,-2.87 15.82,-5.561 27.59,-8.37 35,-8.37 8.709,0 18.939,2.08 36.529,7.45 l 0.57,0.189 c 3.24,1.011 11.68,3.641 20,2.83 v 12.819 z m 1.13,-3.98 v -10.09 l -0.64,0.07 c -0.65,-0.05 -4.631,-0.48 -7.99,-3.26 3.88,0.029 14.21,-0.21 20.221,-3.96 -0.921,2.369 -2.781,6.56 -4.91,7.93 l -0.61,0.38 0.521,0.5 c 0.029,0.03 3.069,2.97 5.42,5.74 -1.802,0.78 -7.052,2.84 -12.012,2.69 z" style="fill:#861414;fill-opacity:1"/><path id="path3569" fill="#2e3191" d="m 65.88,126.811 c 1.57,0.15 3.16,0.24 4.78,0.24 4.18,0 8.23,-0.48 12.14,-1.34 -2.97,0.6 -6.43,1.05 -10.39,1.229 -2.31,0.101 -4.48,0.031 -6.53,-0.129 z M 55.7,106.191 c 0,0 -0.41,0.471 -0.44,1.431 z m 10.28,5.2 c -4.35,-0.53 -6.88,-1.81 -8.17,-2.689 l 2.55,2.979 c 4.5,1.95 5.62,-0.29 5.62,-0.29 z m -10.89,8.7 c -1.12,0 -3.2,0.29 -3.2,0.29 0,0 2.08,0.28 3.29,0.28 1.23,0 2.44,0 2.44,0 -0.67,0 -1.41,-0.57 -2.53,-0.57 z m -6.68,2.28 c 3.94,1.83 9.09,3.529 15.36,4.25 -5.42,-0.67 -10.58,-2.12 -15.36,-4.25 z m 7.34,0.06 c -1.31,-0.1 -3.65,-0.46 -3.65,-0.46 1.86,1.5 3.65,0.46 3.65,0.46 z m -4.54,-8.23 c -0.85,0 -1.55,0.13 -2.11,0.56 -0.57,0.43 -2.53,0.72 -2.53,0.72 0,0 0.98,0.13 1.54,0.551 0.56,0.42 2.39,0.42 2.39,0.42 0,0 0,-0.42 0.98,-0.42 0.99,0 -0.98,-0.98 -0.98,-0.98 0,0 0,0 0.83,-0.29 0.85,-0.281 0.71,-0.561 -0.12,-0.561 z m 12.76,5.44 c 0,0 -2.34,-0.66 -3.36,-0.76 -1.04,-0.09 -3.18,-0.74 -4.96,-0.74 -1.78,0 -4.59,1.12 -4.59,1.12 0,0 0.47,0 0.83,0 0.39,0 2.73,-0.18 4.14,-0.18 1.41,0 3,0.56 5.05,0.56 2.06,0 2.89,0 2.89,0 z m 17.501,-1.41 c -5.521,-0.279 -14.781,0.37 -14.781,0.37 0,0 2.25,0.48 3.47,0.48 1.21,0 2.99,0.18 5.05,0.18 2.069,0 3.181,-0.09 4.49,-0.18 1.31,-0.1 1.771,-0.85 1.771,-0.85 z m -5.141,3.46 c -3.471,0 -8.14,-0.08 -8.14,-0.08 3.08,0.91 8.14,0.08 8.14,0.08 z M 70.721,15.971 c -31.151,0 -56.391,25.25 -56.391,56.4 0,27.62 19.85,50.59 46.07,55.439 1.71,-0.34 3.33,-0.62 4.9,-0.819 -14.6,-1.44 -27.51,-8.631 -36.46,-19.25 5.3,6.25 11.98,11.279 19.58,14.63 -5.57,-2.57 -8.8,-5.351 -9.65,-5.84 -1.69,-0.98 -0.56,-1.83 -0.99,-2.53 -0.42,-0.7 -0.99,-0.13 -1.4,-0.13 -0.42,0 -0.69,-0.431 -1.68,-0.7 -0.99,-0.28 -1.69,-1.83 -1.83,-2.38 -0.11,-0.45 1.38,0.76 2.04,1.3 l 0.47,-0.26 19.1,1.13 -0.85,-0.84 -19.45,-0.95 -2.26,-2.61 9.74,-0.2 -1.32,-1.3 -10.29,0.181 -0.71,-1.44 h 19.93 l 5.48,6.73 0.57,0.85 0.76,-0.42 c -0.95,-1.25 -2.17,-2.96 -3.44,-4.22 -1.41,-1.4 -2.14,-4.07 -2.14,-4.07 l 5.2,1.54 1.53,1.8 c 3.17,1.48 20.959,8.51 48.54,-4.08 0,0 -4.5,3.65 -6.649,4.311 -2.14,0.67 -7.229,2.369 -7.229,2.369 1.539,0.69 4.379,-1.729 7.049,-1.17 2.66,0.561 0,1.681 -1.68,1.96 -1.689,0.29 -4.21,0.15 -5.89,0.29 -1.7,0.13 -4.091,-0.14 -3.24,1.12 0.841,1.26 5.761,-0.42 7.729,-0.42 1.961,0 3.361,0 3.65,0.7 0.28,0.7 0,0.99 -0.99,1.4 -0.989,0.43 -2.81,0.279 -5.049,0.279 -2.25,0 -7.021,0.29 -9.121,0.29 -2.119,0 -5.07,1.26 -5.07,1.26 0,0 2.381,0.141 3.791,0.141 1.41,0 6.6,-0.141 8.289,-0.141 1.67,0 3.361,0.421 5.051,0.551 1.68,0.149 2.52,0.43 2.52,0.43 1.12,-0.14 2.94,-1.97 2.94,-1.41 0,0.36 -0.22,1.19 -0.71,1.95 7.859,-5.23 14.3,-12.41 18.59,-20.88 -4.33,8.609 -10.85,15.91 -18.84,21.2 -0.27,0.33 -0.6,0.63 -1,0.83 -1.41,0.71 -0.98,0.56 -2.4,1.27 -0.689,0.34 -2.93,1.79 -6.93,3.271 -4.3,1.67 -8.85,2.819 -13.59,3.359 1.619,0.17 3.32,0.41 5.14,0.71 25.66,-5.29 44.95,-28.01 44.95,-55.229 C 127.1,41.221 101.859,15.971 70.721,15.971 Z M 18.2,86.831 h 3.93 v 1.26 h -3.37 z m -1.26,-1.55 v -0.98 h 3.24 v 1.26 z m 81.951,7.95 c 0,0 -0.471,0.101 -0.65,-0.279 -0.19,-0.37 0.279,-0.46 0.279,-0.46 0,0 0.85,0.179 0.371,0.739 z m -0.091,4.88 c -0.75,0 -3.18,0.36 -3.18,0.36 0,0 -1.32,-0.189 0.17,-1.68 l 3.01,-0.75 c 0,0 0.74,2.07 0,2.07 z m -3.18,-6.94 v -1.68 l 2.8,-0.57 v 2.06 z m 2.9,-4.34 c 0,0.84 -3.229,0 -3.229,0 l 0.28,-1.13 c 0,0 1.119,-0.141 1.55,-0.42 0.409,-0.29 0.409,-0.29 1.399,0.699 0.99,0.981 0,-0.009 0,0.851 z m -2.78,-4.64 c -0.28,0.181 -0.19,0.28 -0.28,0.66 -0.09,0.37 -0.09,0.37 -0.09,0.37 0,0 -0.11,0.28 -0.28,0.28 0,0 -0.369,-0.46 -0.369,-0.931 0,-0.47 0,-0.84 0.369,-0.84 0.37,-0.009 0.939,0.271 0.65,0.461 z m -0.59,11.41 h 1.119 c 0,0 0.19,0.66 0.19,1.04 0,0.37 -0.83,1.021 -1.59,1.021 -0.74,0 -2.05,0.279 -2.24,-0.29 -0.2,-0.561 -0.38,-0.931 0.55,-1.59 z m -39.04,3 c 0,0 2.07,1.141 3.19,1.141 l -0.18,0.93 c 0,0 -2.06,-0.19 -3,-0.93 v -1.141 z m -0.36,-1.5 0.09,-1.68 c 0,0 1.31,0.84 1.86,0.84 v 1.4 c 0,0.01 -1.12,0.2 -1.95,-0.56 z m 3.17,4.69 2.24,0.37 c 0,0 0.57,1.88 -0.36,1.88 -0.94,-0.01 -3.75,-0.01 -1.88,-2.25 z m -0.28,4.3 c -1.27,0 -3.11,-0.84 -3.11,-0.84 l 0.01,-1.271 c 1.83,1.13 2.95,0.71 2.95,0.71 z m 7.44,-18.64 h 1.82 1.55 1.819 0.84 c 0,0 0.851,0.39 1.271,0.39 0.431,0 1.97,0 1.97,0 0,0 -0.699,-0.56 0.28,-0.56 0.979,0 3.8,-0.141 5.05,-0.141 1.28,0 4.5,-0.14 5.471,-0.14 0.99,0 1.97,0 1.97,0 0,0 0.42,0.71 -0.14,0.71 -0.561,0 -0.15,0 -1.961,0 -1.83,0 -2.539,0.27 -4.229,0.27 -1.681,0 -2.521,0.15 -3.22,0.15 -0.69,0 -1.541,0.14 -1.541,0.14 0,0 0.421,0.561 -0.709,0.561 -1.12,0 -4.07,-0.271 -5.61,-0.13 -1.54,0.13 -3.37,0.13 -5.2,0.13 -1.83,0 -3.37,-0.141 -3.37,-0.141 0,0 -0.69,-0.42 -0.99,-0.979 h 1.41 l 0.63,-0.63 h 1.49 l 0.38,0.38 h 1.02 v -0.01 z m -0.28,-1.01 v -1.55 h 3.94 v 1.55 z m 5.91,-1.55 h 3.5 v 1.12 h -3.37 z m 4.89,-0.28 h 3.521 v 1.261 h -3.37 z m 4.78,0 h 2.81 v 0.98 h -2.66 z m 3.559,14.37 c -1.299,0.181 -2.06,0.28 -2.239,-0.479 -0.181,-0.74 -0.56,-0.84 0,-1.41 l 3.29,-0.19 c 0,0 0.74,0.101 0.74,0.66 -0.009,0.569 -0.48,1.229 -1.791,1.419 z m 4.311,1.13 c 0,0 1.49,1.671 0,1.86 -1.49,0.19 -4.59,1.311 -3.93,-1.86 z m -16.71,-5.67 v 2.101 l -3.36,-0.28 v -1.82 h 3.36 z m -2.38,-4.64 h 2.8 l 0.13,3.1 -2.67,-0.14 z m -0.98,3.24 -4.64,-0.141 -0.15,-2.81 c 0,0 4.5,0.56 4.92,0.28 z m -1.55,1.4 0.15,1.82 -3.1,-0.29 -0.42,-1.82 z m -0.39,4.63 -0.46,-1.68 3.93,0.38 v 1.59 z m 0.66,1.04 -0.36,1.86 -2.82,-0.55 0.38,-1.311 c 0,0.001 1.87,0.361 2.8,0.001 z m 1.69,0.17 3.74,0.189 -0.37,1.87 -3.56,-0.18 z m 2.53,-0.93 v -1.68 l 3.28,0.189 0.199,1.58 z m 11.521,-5.24 0.18,1.69 -4.12,0.38 -0.181,-2.06 h 4.121 z m -0.991,-2.06 v -2.39 h 2.109 v 2.39 z m -1.4,0.28 h -3.23 v -2.53 h 3.23 z m -2.68,1.97 v 1.88 h -3.92 v -1.689 z m -4.47,-1.83 0.121,-2.229 h 2.68 l 0.41,2.229 z m 0.36,8.38 h 3.37 v 2.05 l -3.37,-0.18 z m 2.819,-3.27 h 2.801 c 0,0 1.029,-0.2 1.029,0.279 0,0.46 0.67,0.94 -0.09,1.21 -0.75,0.28 -1.869,0.57 -2.52,0.57 -0.669,0.001 -1.979,0.181 -1.22,-2.059 z m 2.421,3.08 h 3.569 c 0,0 1.121,0.189 0.74,1.13 -0.369,0.93 -0.93,0.93 -2.439,0.93 -1.49,0 -3.36,0.38 -1.87,-2.06 z m 6.191,-11.7 h 2.369 v 2.24 h -2.24 z m -20.041,8.33 -0.38,1.97 -3.18,-0.47 -0.1,-1.78 z m -5.39,-2.01 v -1.4 l 2.68,0.56 v 1.4 z m 3.14,4.83 -0.37,1.311 c 0,0 -1.32,-0.2 -2.62,-0.95 l 0.19,-0.93 c 0,-0.001 1.87,0.569 2.8,0.569 z m -0.04,5.84 v 1.55 l -3.65,-0.71 -0.42,-1.54 c 1.27,1.27 4.07,0.7 4.07,0.7 z m -0.14,-2.85 h 2.99 c 0,0 1.31,1.87 -0.37,1.87 -1.68,0 -4.49,-0.75 -2.62,-1.87 z m 2.25,3.56 c 1.98,1.399 3.36,0.279 3.36,0.279 v 1.69 l -3.36,-0.57 z m 2.8,-3 2.059,0.189 c 0,0 1.601,1.22 -0.199,1.32 -1.78,0.081 -3.73,-0.009 -1.86,-1.509 z m 2.251,3.26 c 0.989,0.82 2.67,0.01 2.67,0.01 l -0.131,1.69 -2.529,-0.44 v -1.26 z m 1.869,-2.7 3.36,0.18 c 0,0 1.5,1.311 -0.36,1.311 -1.869,0.009 -5.43,0.009 -3,-1.491 z m 2.34,2.85 c 1.4,0.57 2.95,0.431 2.95,0.431 v 1.399 l -2.95,-0.13 z m 3.09,-2.85 h 3.19 c 0,0 1.67,1.311 0,1.311 -1.69,-10e-4 -5.26,1.309 -3.19,-1.311 z m 1.259,2.85 h 4.201 c 0,0 1.56,0.57 1,0.98 -0.57,0.43 -1.28,0.43 -2.82,0.43 -1.54,0 -3.23,0.84 -2.381,-1.41 z m 3.66,-1.54 c 0,0 -1.549,-0.891 0.141,-1.5 l 2.949,-0.32 c 0,0 0.98,0.56 0.98,1.26 0,0.7 -2.1,0.561 -2.1,0.561 h -1.97 z m 2.952,0.99 c 0,0 3.639,-0.569 4.06,-0.43 0.43,0.14 0.989,0.7 0.43,1.41 -0.569,0.689 -1.97,0.84 -2.95,0.84 -0.992,0 -2.671,-0.29 -1.54,-1.82 z m 2.809,-1.55 c 0,0 -1.7,-0.7 -0.29,-1.54 l 2.96,-0.29 c 0,0 1.55,0.13 0.54,1.12 -0.98,0.99 -3.21,0.71 -3.21,0.71 z m 2.239,-5.06 2.99,-0.561 c 0,0 1.131,1.311 0.19,1.5 -0.949,0.191 -3.379,1.971 -3.18,-0.939 z m 0,-5.42 -0.56,-2.061 3.38,-0.56 0.17,2.06 z m 1.401,-9.04 -2.52,0.14 -0.141,-1.26 h 2.67 v 1.12 z m -0.561,3.23 v 1.83 H 89.39 v -1.83 z m -1.699,7.77 1.04,0.56 c 0,0 0.28,1.21 -0.38,1.21 -0.66,0 -1.49,0.66 -2.15,0.28 -0.65,-0.37 -0.55,-1.311 -0.18,-1.69 z m -1.21,-1.22 -2.42,0.19 -0.36,-2.25 h 2.79 v 2.06 z m -0.46,-9.5 h -2.381 l -0.139,-1.27 h 2.52 z m -3.09,-4.26 v 1.271 H 81.8 v -1.271 z m -0.36,-1.7 v -1.27 h 3.521 v 1.26 H 84.96 Z m -1.48,0 h -3.5 v -1.27 h 3.5 z m -3.14,1.7 v 1.271 h -3.51 v -1.271 z m -1.83,-1.7 H 75 v -1.27 h 3.51 z m -3.16,1.7 v 1.271 h -3.51 v -1.271 z m -1.821,-1.7 H 70.02 v -1.27 h 3.509 z m -3.169,1.7 v 1.271 h -3.51 v -1.271 z m -1.82,-1.7 h -3.5 v -1.27 h 3.5 z m -3.16,1.7 v 1.271 h -3.5 v -1.271 z m -0.84,3.7 v 0.99 h -4.22 l 0.13,-0.99 z m -1.69,4.49 0.14,2.67 h -3.08 l -0.13,-2.67 z m -1.59,7.54 -0.46,1.31 -2.16,-0.56 V 94.73 Z m -2.47,-1.78 -2.53,-0.561 -0.14,-1.689 2.81,0.84 z m -1.98,-5.62 h 1.83 v 1.83 h -1.7 z m 1.83,-3.22 h -3.51 v -1.4 h 3.51 z m -2.63,-9.18 -1.11,0.051 v -1.471 h 1.11 z m -0.3,-2.44 -1.11,0.06 v -1.81 h 1.11 z m -0.41,-3.25 -0.78,0.04 v -1.38 h 0.78 z m -0.29,-2.08 -0.73,0.05 v -1.29 h 0.73 z m -0.54,-2.06 -0.49,-0.039 -0.11,-1.561 h 0.71 z m 0.8,20.4 v 1.13 h -2.8 l -0.14,-1.13 z m -4.03,13.25 c -0.93,0.37 -3.74,0.2 -3.74,0.2 0,0 -0.75,0.37 -0.37,-1.51 l 3.92,0.199 c 0,0.001 1.13,0.741 0.19,1.111 z m 1.92,1.5 c 0,0 0.28,0.84 -0.27,1.13 -0.57,0.28 -3.51,0.561 -2.12,-0.979 z m -29.47,-4.49 h 3.66 v 1.271 h -3.66 z m -2.12,-4.64 0.28,-2.38 3.51,0.14 v 2.53 z m 3.24,2.67 v -1.13 h 4.78 v 1.13 z m 22.46,-3.5 -3.65,-0.15 v -1.819 h 3.65 z m 2.66,1.68 v 1.4 h -3.51 v -1.4 z m -5.05,-0.14 v 1.97 h -3.79 l -0.15,-1.97 z m -3.1,-1.54 h -3.63 v -1.55 h 3.63 z m -1.67,1.54 v 1.54 h -3.93 v -1.54 z m -3.52,-0.98 h -4.21 l 0.28,-2.25 h 3.93 z m -1.67,1.12 v 1.681 h -4.35 v -1.681 z m -3.52,-1.12 h -4.21 l 0.27,-2.109 h 3.94 z m -2.52,5.05 4.07,-0.15 -0.14,1.12 h -4.22 z m 3.93,2.29 2.89,-0.19 c 0,0 0.56,0.29 0.56,0.95 0,0.649 -0.85,0.74 -1.97,0.74 -1.12,0 -2.43,-0.271 -2.43,-0.83 0.01,-0.57 0.95,-0.67 0.95,-0.67 z m 1.83,-1.45 c 0,0 -1.07,-0.57 -0.29,-1.55 h 3.38 c 0,0 0.55,1.399 -0.28,1.399 -0.86,0.011 -2.81,0.151 -2.81,0.151 z m 3.6,1.07 1.87,0.289 c 0,0 0,0.65 0,1.03 0,0.37 -0.57,0.561 -1.31,0.561 -0.76,0 -1.69,-0.74 -1.69,-1.311 0.01,-0.569 1.13,-0.569 1.13,-0.569 z m 1.12,-1.3 c -1.68,-1.029 0,-1.779 0.38,-1.779 0.38,0 1.03,0 1.96,0 0.93,0 0.56,0.18 0.76,0.569 0.18,0.37 -0.37,1.21 -0.37,1.21 z m 5.34,1.4 c 0,0 2.06,0.47 1.3,0.84 -0.74,0.37 -1.49,0.37 -2.43,0.37 -0.94,0 -2.06,0.56 -2.06,-1.31 z m -0.94,-1.78 c 0,0 -0.38,-0.649 0.47,-1.109 l 1.41,-0.101 c 0,0 0.93,0 1.4,0 0.46,0 1.4,-0.28 1.4,0.101 0,0.369 0.46,1.109 -0.28,1.109 -0.74,0 -4.4,0 -4.4,0 z m 6.28,0 v -1.31 l 4.12,-0.19 0.07,1.59 z m -1.22,-5.99 v -0.279 -1.681 h 4.76 v 1.96 z m 4.34,-5.89 h -3.65 v -1.97 h 3.65 z m -2.66,1.4 V 87.1 h -3.23 v -0.979 z m -2.81,-1.54 h -4.63 l -0.28,-1.4 h 4.91 z m -2.39,1.54 v 1.13 h -4.49 l -0.14,-1.13 z m -3.65,-0.84 H 37.3 l 0.27,-1.961 h 4.08 z m -2.24,0.98 v 1.12 h -4.08 l 0.15,-1.12 z m -3.23,-0.84 h -3.37 v -1.97 h 3.37 z m -1.97,0.84 v 1.69 h -4.5 l 0.14,-1.69 z m -2.67,-8.15 -0.14,0.561 -0.84,0.29 c 0,0 0.42,0.84 -0.71,0.28 v -0.57 l 0.71,-1.12 h 0.42 0.55 v 0.56 h 0.01 z m -0.42,5.62 v 1.83 h -4.78 l -0.28,-1.83 z m -2.67,2.67 v 1.4 h -5.07 l -0.13,-1.4 z m -3.78,-1.12 H 21.01 V 84.72 83.741 l 3.66,0.14 z m -4.22,7.02 -1.54,-1.13 v -1.54 h 1.54 z m 0.28,0.83 h 1.54 l 1.27,1.41 h -2.81 z m 3.56,6.94 c -0.94,-0.289 -1.03,-1.13 -0.46,-1.5 0.55,-0.38 2.06,-0.289 2.06,-0.289 0,0 1.5,1.05 0.37,1.6 0,-0.001 -1.04,0.459 -1.97,0.189 z m 0.79,1.64 3.24,0.13 c 0,0 0.83,0.56 0.27,0.84 -0.55,0.29 -2.25,1.27 -3.51,-0.97 z m 2.26,3.36 -0.29,-0.84 h 1.96 l 0.28,0.431 z m 0.79,-4.81 c 0,0 -1.79,-0.84 0,-1.5 h 2.52 c 0,0 1.03,0.57 0.37,1.21 -0.64,0.66 -2.89,0.29 -2.89,0.29 z m 2.01,1.3 h 3.09 c 0,0 1.53,0.57 0.84,1.13 -0.7,0.561 -2.11,0.28 -2.95,0.28 -0.85,0 -1.83,-0.28 -0.98,-1.41 z m 1.26,3.1 -0.57,-0.99 4.49,0.42 0.15,0.85 z m 6.46,-1.83 c -1.27,0.14 -4.07,0.14 -3.08,-1.681 H 38 c 0,-0.009 1.13,1.541 -0.14,1.681 z m 4.64,1.83 -3.78,-0.141 -0.29,-0.569 h 4.07 z m 0.84,-2.11 c -0.99,0 -2.67,0 -2.67,0 0,0 -1.82,0.28 -0.99,-1.12 l 3.8,0.13 c 0,0 0.84,0.99 -0.14,0.99 z m 1.54,-1.27 h 4.21 c 0,0 0.84,0.989 -0.28,1.13 -1.12,0.14 -5.75,0.7 -3.93,-1.13 z m 8.15,3.51 -4.07,-0.41 -0.28,-0.84 h 4.64 l 0.14,0.84 z m 0.47,-5.37 c -0.94,-0.2 -1.69,-0.39 -0.94,-1.69 l 1.67,0.181 c 0,-0.001 0.2,1.689 -0.73,1.509 z m 0.79,-6 h -2.81 l 0.28,-1.41 h 2.53 z m 1.08,5.43 c 0,0 1.69,0.75 1.69,1.49 -0.01,0.76 -2.44,0.76 -1.69,-1.49 z m 39.36,8.47 c -0.711,0.421 -14.051,3.08 -20.78,2.521 -6.74,-0.56 -20.08,-3.08 -18.4,-5.06 0,0 13.2,4.22 19.38,3.8 6.17,-0.42 17.551,-0.99 19.791,-2.54 0.009,0.009 0.709,0.859 0.009,1.279 z m 0.129,-2.38 c -0.84,0.13 -2.239,0.13 -2.67,0.28 -0.41,0.14 -0.68,1.13 -0.979,-0.42 l 0.28,-0.98 c 0,0 0.99,0 1.27,-0.27 0.28,-0.28 1.83,0.27 1.83,0.27 0,0 1.12,0.97 0.269,1.12 z m 2.121,-3.93 c -0.431,0.42 -3.09,1.12 -3.09,1.12 0,0 -0.99,-0.57 -0.141,-1.83 l 2.51,-0.56 c 0.011,0 1.132,0.85 0.721,1.27 z m 1.959,5.18 -0.699,0.15 c 0,0 0,1.12 -1.12,-0.29 0,0 -0.14,-0.7 0.28,-0.84 0.42,-0.141 1.55,-0.141 1.55,-0.141 v 1.12 h -0.011 z m 1.161,-4.06 h -0.7 -0.56 c 0,0 -0.66,0.52 -0.71,-0.15 l 1.42,-0.97 c 0,0 0.7,-0.42 0.851,0 0.128,0.42 -0.301,1.12 -0.301,1.12 z m 0.98,-18.26 c 0,0 -0.38,0.279 -0.551,-0.09 -0.199,-0.381 0.091,-0.561 0.091,-0.561 h 0.47 l 0.381,0.47 z m 2.21,10.49 c 0,0 0.95,2.24 0,2.24 -0.94,0 -3.181,0.2 -3.181,0.2 0,0 -0.369,0.19 0.181,-1.5 z m -3.09,-4.31 c 0,0 -0.83,-1.54 -0.14,-1.54 0.71,0 1.26,1.26 0.14,1.54 z m 1.82,9.55 h -0.699 -0.551 c 0,0 -0.66,0.53 -0.699,-0.149 l 1.41,-0.98 c 0,0 0.699,-0.42 0.84,0 0.118,0.429 -0.301,1.129 -0.301,1.129 z m 2.15,0.83 -0.93,0.101 v -0.931 h 0.93 z m 0.43,-8.23 c 0,0 -0.369,0.279 -0.55,-0.101 -0.2,-0.37 0.08,-0.56 0.08,-0.56 h 0.47 l 0.371,0.47 z m 0.7,-4.11 c 0,0 -0.37,-0.47 -0.37,-0.94 0,-0.47 0,-0.84 0.37,-0.84 0.38,0 0.931,0.271 0.65,0.471 -0.271,0.18 -0.181,0.279 -0.271,0.649 -0.1,0.37 -0.1,0.37 -0.1,0.37 0,0 -0.099,0.28 -0.279,0.29 z m 0.16,-5.41 v -0.56 h 0.49 v 0.56 z m 2.069,13.55 c -0.27,0 -1.309,-0.09 -1.309,-0.09 l -0.281,-0.46 h -0.359 v -0.38 c 0,0 0.18,-0.27 0.55,-0.27 0.37,0 1.601,0 1.601,0 l 0.18,0.75 z m 0.381,-7.77 -0.381,0.189 c 0,0 -0.369,0.271 -0.549,-0.1 -0.19,-0.37 0.1,-0.56 0.1,-0.56 h 0.46 z m -0.06,-5.71 V 82.19 h 0.49 v 0.561 z m 0.339,8.8 c -0.279,0.18 -0.18,0.27 -0.279,0.65 -0.08,0.38 -0.09,0.38 -0.09,0.38 0,0 -0.11,0.279 -0.291,0.279 0,0 -0.369,-0.47 -0.369,-0.939 0,-0.469 0,-0.851 0.369,-0.851 0.381,0.011 0.951,0.291 0.66,0.481 z m 0.821,-5.99 c -0.3,0.181 -0.199,0.28 -0.3,0.65 -0.09,0.37 -0.09,0.37 -0.09,0.37 0,0 -0.11,0.29 -0.29,0.29 0,0 -0.359,-0.48 -0.359,-0.94 0,-0.47 0,-0.84 0.359,-0.84 0.38,0.01 0.96,0.28 0.68,0.47 z m 2.15,10.11 -0.93,0.1 v -0.95 h 0.93 z m -0.91,-13.3 c 0,-0.46 0,-0.84 0.38,-0.84 0.37,0 0.94,0.279 0.66,0.47 -0.28,0.18 -0.19,0.27 -0.28,0.649 -0.08,0.37 -0.08,0.37 -0.08,0.37 0,0 -0.109,0.271 -0.289,0.28 -0.011,0.011 -0.391,-0.449 -0.391,-0.929 z m 2.77,11.05 c -0.27,0 -1.31,-0.09 -1.31,-0.09 l -0.271,-0.471 h -0.379 v -0.369 c 0,0 0.199,-0.28 0.56,-0.28 0.38,0 1.601,0 1.601,0 l 0.18,0.75 z m -1.22,-6.93 c 0,-0.65 0.56,-1.21 0.851,-1.21 0.279,0 0.47,0.47 0.47,0.47 0,0 0.09,0.74 0.09,1.04 0,0.279 0.271,0.74 -0.56,0.649 0,0 0,0.19 -0.561,-0.18 -0.561,-0.389 -0.29,-0.109 -0.29,-0.769 z m 2.729,3.94 c -0.569,0 -0.569,0 -1.039,0 -0.471,0 -0.74,0 -0.74,0 0,0 -0.189,-0.479 0.18,-0.479 0.381,0 0.85,-0.091 0.85,-0.091 0,0 -0.559,-0.369 0.091,-0.56 0.659,-0.18 0.659,-0.18 0.659,-0.18 l 0.74,0.37 0.65,0.84 c 0,0 -0.84,0.1 -1.391,0.1 z m 1.58,-2.71 c -0.709,-0.24 -0.469,-0.47 -0.659,-1.03 -0.181,-0.56 -0.38,-1.779 0.47,-1.689 0.84,0.1 0.84,0.479 0.84,1.05 0.01,0.529 -0.09,1.849 -0.651,1.669 z m 5.641,-7.27 h -34.8 v -1.49 h 34.8 z m -21.83,-7.67 c 1.83,-0.99 1.68,-0.98 2.801,-0.98 1.119,0 1.409,-0.41 2.119,0.43 0.689,0.84 0.83,0.28 1.11,0.84 0.29,0.561 0.979,0.7 0.979,0.7 h 0.99 l 1,0.561 c 0,0 0.689,0.43 1.95,-0.41 1.26,-0.84 1.97,-0.141 2.399,-0.99 0.41,-0.84 1.69,-0.41 2.381,-0.41 0.709,0 2.1,1.681 2.1,1.681 l 1.42,0.279 1.26,0.141 0.69,0.42 c 0,0 0.34,-0.4 0.42,-0.011 0.08,0.391 0.08,1 -0.24,1.08 -0.3,0.08 -0.3,0.16 -0.53,0.54 -0.229,0.38 -0.609,0.38 -0.85,0.38 -0.241,0 -0.54,-0.38 -0.84,-0.31 -0.32,0.08 -0.391,0.08 -0.77,0.15 -0.381,0.08 -0.381,0 -0.91,-0.45 -0.551,-0.46 -0.711,-0.62 -1,-0.62 -0.32,0 -0.15,0.38 -0.621,-0.23 -0.459,-0.6 0.15,-0.149 -0.459,-0.6 -0.62,-0.47 -0.301,-0.63 -0.62,-0.47 -0.31,0.149 -0.681,-0.23 -0.681,-0.23 0,0 -0.24,-0.149 -0.76,0 -0.55,0.15 -0.55,0.54 -0.64,0.99 -0.06,0.47 -0.681,0.62 -1.14,0.62 -0.461,0 -0.771,0 -1.311,0.38 -0.54,0.38 -0.77,0.61 -1.08,0.61 -0.31,0 -1.22,0.159 -1.22,0.159 0,0 -0.62,0.08 -0.931,0 -0.299,-0.069 -0.85,-0.609 -1.299,-0.77 -0.461,-0.16 -0.841,-0.23 -1.301,-0.7 -0.47,-0.46 -0.01,-0.31 -0.699,-0.76 -0.69,-0.46 -1,-0.54 -1.23,-0.46 -0.221,0.08 -0.85,0 -1.311,0.229 -0.449,0.23 -0.3,0.841 -0.68,0.931 -0.391,0.069 -1,0.149 -1,0.149 0,0 -0.311,0.46 -0.699,0.7 -0.391,0.23 -0.541,0.46 -1.15,0.46 -0.6,0 -0.771,-0.229 -1.15,-0.54 -0.391,-0.3 -0.699,-0.229 -0.92,-0.3 -0.23,-0.08 -0.391,-0.39 -0.62,-0.55 -0.22,-0.15 0.17,-0.08 -0.22,-0.15 -0.391,-0.08 -0.25,0 -0.7,-0.08 -0.47,-0.08 -0.771,-0.22 -1,-0.449 -0.239,-0.24 -0.54,-0.091 -0.76,-0.391 -0.229,-0.3 -0.54,-0.689 -0.54,-0.689 l -0.53,-0.46 0.95,0.159 2.391,0.28 c 0,0 1.67,0.14 1.969,0.561 0.271,0.42 0.131,1.119 0.84,0.699 0.701,-0.42 1.681,-1.399 1.681,-1.399 0,0 -0.858,0.26 0.962,-0.72 z m 23.59,0.84 -0.85,0.279 -0.42,-0.56 0.42,-0.13 h 0.43 0.42 z m 1.019,-5.76 -0.459,0.19 h -0.93 c 0,0 0,0 -0.66,0.48 -0.66,0.46 0,0 -0.28,0.359 -0.28,0.37 -0.101,0.28 -0.101,0.28 0,0 0,0.29 0.2,0.56 0.181,0.28 0,0.28 -0.28,0.75 -0.279,0.471 0.181,0.19 0.381,1.03 0.18,0.84 -0.95,0.37 -1.69,0.65 -0.75,0.29 -0.569,-0.181 -0.851,-0.28 -0.289,-0.1 -0.379,0 -0.379,0 0,0 -0.371,0 -0.75,-0.1 -0.371,-0.091 0,-0.57 0,-0.57 l -0.66,-0.36 -0.561,-0.18 -0.09,-0.29 -0.93,-0.18 -0.85,-0.101 c 0,0 -0.091,-0.46 -0.65,-0.46 -0.561,0 -0.84,-0.37 -0.84,0 0,0.38 -0.19,0.66 -0.19,0.66 0,0 -0.479,0 -0.851,-0.57 -0.369,-0.56 -0.469,0 -0.76,0 -0.27,0 -0.56,0 -0.56,0 l -0.19,0.471 c 0,0 -0.369,0.47 -0.75,0.47 -0.379,0 0.101,0.28 -0.189,0.649 -0.28,0.37 -0.36,0 -1.02,-0.1 -0.641,-0.08 -0.101,0.48 -0.371,0.48 -0.27,0 -0.47,0.29 -0.76,0.29 -0.27,0 0.1,-0.29 0.1,-0.29 l -0.469,-0.48 c 0,0 -0.181,-0.46 -0.181,-0.74 0,-0.279 -0.649,-0.189 -0.94,-0.39 -0.279,-0.18 -0.569,0.1 -0.66,-0.28 -0.1,-0.37 0,0 -0.379,-0.27 -0.371,-0.29 -0.931,-0.29 -0.931,-0.29 0,0 -0.271,0.1 -0.75,0.47 -0.47,0.37 -0.659,0.19 -0.93,-0.18 -0.28,-0.38 -0.66,-0.181 -0.66,-0.181 l -0.84,-0.1 -0.841,0.75 h -0.359 l -0.29,-0.19 h -0.29 l -0.93,0.19 c 0,0 0,0 -0.2,0.47 -0.101,0.271 -0.11,0.351 -0.11,0.37 -0.07,0 -0.33,0 -0.729,0 -0.47,0 -0.181,0.36 -0.181,0.36 l -0.279,0.57 -0.75,0.199 h -0.37 l -0.56,-0.38 c 0,0 -1.871,-0.1 -2.23,-0.1 -0.391,0 -1.33,0 -2.07,0 -0.74,0 -1.029,0 -1.869,0 -0.841,0 -1.5,0.1 -2.711,0.37 -1.22,0.279 -0.939,-0.28 -1.209,-0.28 -0.291,0 -0.201,-0.29 -0.201,-0.29 0,0 -0.18,-0.56 -0.18,-0.94 0,-0.369 0,-0.46 -0.09,-0.75 -0.09,-0.27 -0.66,-0.18 -1.22,-0.18 -0.56,0 -0.38,-0.479 -0.841,-0.479 -0.469,0 -1.779,-0.091 -2.25,-0.091 -0.459,0 -4.119,0 -4.119,0 0,0 -1.5,0.19 -1.78,0.28 -0.28,0.09 -1.22,0.38 -1.399,0.65 -0.201,0.279 -0.75,0.1 -1.131,0.38 -0.369,0.28 -0.459,2.12 -0.459,2.12 0,0 -2.581,0 -2.761,-0.061 -0.18,-0.06 -0.18,-0.3 -0.18,-0.3 0,0 -0.36,-0.24 -0.47,-0.42 -0.13,-0.18 -0.19,-0.29 -0.19,-0.29 l -0.18,-0.3 c 0,0 0,0 -0.11,-0.66 -0.12,-0.66 0,0 0.29,-0.12 0.3,-0.13 0.24,-0.31 0.24,-0.31 0,0 -0.36,-0.181 -0.48,-0.53 -0.11,-0.36 0.19,-0.12 0.19,-0.12 0,0 -0.12,-0.3 -0.49,-0.37 -0.36,-0.05 -0.42,0.13 -0.72,0.13 -0.3,0 -0.18,0.29 -0.18,0.29 l -0.13,0.42 h -0.3 c 0,0 0,0 -0.29,0.061 -0.3,0.06 -0.36,0.78 -0.36,0.78 h -0.41 l -0.12,0.17 c 0,0 0,0.18 0.17,0.42 0.18,0.229 0.06,0.359 -0.17,0.359 -0.25,0 -0.43,0 -0.73,0.13 -0.3,0.11 0,0 0,0.29 0,0.29 -0.23,0.181 -0.23,0.181 0,0 -0.42,0.31 -0.42,0.67 0,0.359 -0.07,0.359 -0.07,0.359 0,0 0,0 -0.18,0.11 -0.18,0.12 -0.18,0.07 -0.37,0.3 -0.17,0.25 0,0.36 0,0.36 0,0 -0.12,0.37 -0.29,0.42 -0.18,0.06 0,0.18 0.12,0.48 0.11,0.3 0,0 0.23,0.18 0.24,0.18 0.24,0.06 0.18,0.42 -0.06,0.35 -0.3,0.35 -0.3,0.35 0,0 0,0.601 0,0.79 0,0.17 -0.06,0.29 -0.17,0.59 -0.13,0.301 -0.43,-0.119 -0.43,-0.119 0,0 0.19,-0.41 0.24,-0.65 0.09,-0.33 -0.36,-0.26 -0.36,-0.26 l -0.41,-0.2 c 0,0 -0.1,-0.15 -0.1,-0.36 0,-0.199 -0.09,-0.05 -0.09,-0.05 0,0 0,-0.149 -0.15,-0.36 -0.16,-0.199 0.32,-0.409 0.11,-0.56 -0.2,-0.15 0,0 0,-0.25 0,-0.25 -0.16,-0.4 -0.16,-0.4 0,0 -0.24,0 -0.39,0 -0.14,0 -0.3,0 -0.41,-0.35 -0.1,-0.35 0.31,-0.1 0.31,-0.41 0,-0.3 0,0 -0.17,-0.149 -0.15,-0.15 -0.19,-0.19 -0.19,-0.44 0,-0.26 0.04,-0.31 0.09,-0.46 0.05,-0.15 -0.15,-0.15 -0.15,-0.45 0,-0.31 0.1,-0.2 0,-0.45 -0.1,-0.25 -0.5,-0.04 -0.66,-0.25 -0.15,-0.199 0.06,-0.1 0.36,-0.149 0.3,-0.05 -0.21,-0.24 -0.21,-0.44 0,-0.2 -0.2,-0.149 -0.35,-0.45 -0.14,-0.31 0,0 0.15,-0.21 0.16,-0.199 0.05,-0.3 0,-0.55 -0.04,-0.25 0,0 -0.04,-0.2 -0.05,-0.199 -0.25,-0.149 -0.25,-0.149 0,0 -0.3,-0.05 -0.21,-0.351 0.1,-0.3 0,0 0.15,-0.25 0.16,-0.25 -0.24,-0.35 -0.24,-0.35 l -0.05,-0.75 -0.16,-0.15 c 0,0 -0.1,-0.26 -0.19,-0.51 -0.11,-0.25 0,0 -0.15,0 -0.16,0 -0.16,-0.149 -0.16,-0.149 l 0.1,-0.351 -0.1,-0.45 c 0,0 -0.3,-0.399 -0.3,-0.6 0,-0.21 -0.51,-0.4 -0.51,-0.4 l 0.16,-0.359 c 0,0 0.2,-0.101 0.39,-0.25 0.21,-0.15 -0.09,-0.101 -0.09,-0.4 0,-0.29 -0.1,-0.35 -0.16,-0.6 -0.05,-0.24 -0.09,-0.24 0,-0.45 0.1,-0.2 -0.09,-0.35 0.06,-0.46 0.15,-0.09 -0.06,-0.7 -0.06,-0.7 0.06,-0.25 -0.14,-0.6 -0.14,-0.6 0,-0.351 -0.3,-0.4 -0.3,-0.4 0.07,-0.09 0.05,-0.16 0.02,-0.229 l -0.22,-0.021 -0.75,-0.1 -0.4,0.05 c 0,0 -0.65,0 -0.8,0 -0.16,0 -1.01,-0.3 -1.01,-0.3 H 53.949 53.2 c 0,0 -0.4,-0.101 -0.66,-0.101 -0.24,0 -1.05,-0.2 -1.35,-0.2 -0.3,0 -1.77,-0.46 -1.77,-0.46 l 8.69,1.11 c -0.08,-0.11 -0.25,-0.15 -0.25,-0.15 0,-0.399 -0.45,-0.25 -0.45,-0.25 0.3,-1.149 -0.96,-2.27 -1.2,-2.27 -0.25,0 -0.1,0.36 -0.1,0.36 0,0 0,0.239 0.14,0.5 0.15,0.25 0,0.399 0,0.649 0,0.25 -0.1,0.561 -0.1,0.561 H 56 55.6 c 0.15,-0.21 -0.1,-0.771 -0.1,-0.771 0.3,-0.149 -0.09,-0.59 -0.09,-0.59 l -0.11,-0.61 -0.1,0.61 c -0.2,0.19 0.1,0.7 0.1,0.7 -0.29,0 -0.2,0.56 -0.2,0.56 l -0.41,-0.06 c 0.1,-0.36 -0.2,-0.76 -0.2,-0.76 0.34,-0.15 0,-0.561 0,-0.561 l -0.2,-0.7 v 0.7 c -0.25,0.16 -0.04,0.45 -0.04,0.45 l 0.04,0.41 c -0.2,0.05 -0.2,0.35 -0.2,0.35 l -0.26,-0.05 c 0,-0.4 -0.19,-0.71 -0.19,-0.71 0.4,0 0,-0.6 0,-0.6 l -0.11,-0.75 -0.1,0.75 c -0.25,0.1 -0.04,0.439 -0.04,0.439 l 0.04,0.36 c -0.2,0 -0.3,0.35 -0.3,0.35 l -0.15,-0.06 -0.05,-0.19 -0.1,-0.399 c 0.26,-0.301 -0.15,-0.65 -0.15,-0.65 l -0.2,-0.6 0.05,0.6 c -0.24,0.11 -0.05,0.41 -0.05,0.41 v 0.34 c -0.25,0.06 -0.19,0.25 -0.25,0.46 -0.05,0.19 -0.31,0 -0.31,0 0.05,-0.21 -0.15,-0.51 -0.15,-0.51 l -0.04,-0.351 c 0.45,-0.149 -0.05,-0.55 -0.05,-0.55 l -0.05,-0.6 -0.1,0.649 c -0.35,0 0,0.44 0,0.44 v 0.3 c -0.31,0 -0.1,0.4 -0.2,0.561 -0.11,0.149 -0.41,-0.21 -0.41,-0.21 0.1,-0.4 -0.08,-0.7 -0.08,-0.7 0.38,-0.261 -0.11,-0.561 -0.11,-0.561 l -0.1,-0.54 -0.1,0.5 c -0.2,0.2 0.1,0.46 0.1,0.46 v 0.301 c -0.26,0.09 -0.15,0.5 -0.15,0.5 l -0.35,0.1 -0.09,-0.25 -0.15,-0.25 v -0.45 c 0.39,-0.1 -0.05,-0.51 -0.05,-0.51 l -0.16,-0.7 -0.1,0.811 c -0.46,0.09 0,0.35 0,0.35 l 0.05,0.35 c -0.15,0.051 -0.26,0.4 -0.26,0.4 l -0.29,-0.15 c 0,0 0,-0.399 0,-0.54 0,-0.159 0,-0.72 0,-0.909 0,-0.21 -0.26,-0.21 -0.26,-0.21 0,0 -0.15,0.05 -0.15,0.21 0,0.14 -0.3,0.05 -0.3,0.05 -0.24,0.05 -0.24,0.45 -0.24,0.45 -0.35,0.04 -0.21,0.699 -0.21,0.699 -0.25,0.101 -0.25,0.45 -0.25,0.45 l -0.19,0.19 -0.15,0.21 c 0,0 -0.25,0.189 -0.41,0.399 -0.15,0.2 -0.19,0.4 -0.19,0.4 0,0 -0.21,0.45 -0.35,0.55 -0.16,0.11 -0.1,0.311 -0.1,0.311 0,0 0,0.189 -0.15,0.5 -0.15,0.3 0,0.6 0,1 0,0.399 -0.06,0.55 -0.06,0.55 -0.5,0.399 0.26,0.55 0.26,0.55 0,0.3 0.3,0.35 0.3,0.35 l 0.06,0.2 c -0.06,-0.2 -0.56,0.05 -0.56,0.05 0,0 -0.25,0.25 -0.35,0.5 -0.11,0.261 -0.21,0.15 -0.3,0.511 -0.1,0.359 0.09,0.5 0.09,0.5 l -0.09,0.21 c -0.1,-0.21 -0.31,0.399 -0.46,0.6 -0.14,0.2 -0.19,0.5 -0.09,0.7 0.1,0.21 0.09,0.1 -0.15,0.35 -0.26,0.24 0,0.4 0,0.4 0,0 -0.05,0.149 -0.11,0.3 -0.04,0.15 -0.29,0.3 -0.29,0.3 -0.3,0.05 -0.21,0.5 -0.21,0.851 0,0.35 -0.14,0.35 -0.19,0.51 -0.06,0.14 0,0.55 0,0.75 0,0.189 -0.2,0.1 -0.35,0.1 -0.15,0 -0.31,0.65 -0.31,0.65 -0.44,0.16 -0.04,0.51 -0.04,0.91 0,0.399 -0.16,0.31 -0.31,0.45 -0.15,0.159 0.05,0.55 0.05,0.55 l -0.15,0.359 c -0.46,-0.31 -0.51,0.44 -0.66,0.74 -0.15,0.311 0,0.311 0,0.561 0,0.239 -0.1,0.5 -0.1,0.699 0,0.2 -0.45,0.601 -0.45,0.601 -0.31,0.28 -0.49,0.01 -0.49,0.01 l 0.18,-0.37 c 0,0 0.08,-0.25 -0.05,-0.35 -0.14,-0.101 -0.27,-0.101 -0.27,-0.101 0,0 -0.14,0.101 -0.35,-0.149 -0.22,-0.25 0.04,-0.19 -0.18,-0.29 -0.22,-0.101 -0.36,0.29 -0.49,0.149 -0.14,-0.149 0.3,-0.199 -0.29,-0.199 -0.6,0 -0.28,0.149 -0.67,0.069 -0.41,-0.069 -0.15,-0.229 -0.15,-0.229 l -0.33,-0.15 c 0,0 0,0 -0.21,0.15 -0.19,0.149 0,0 -0.27,0.37 -0.26,0.38 0,0 -0.59,0.149 -0.61,0.15 0,0 -0.21,-0.149 -0.21,-0.15 -0.4,0 -0.69,0.229 -0.26,0.22 -0.33,0.15 -1.2,0.15 -0.87,0 -0.08,0.3 -0.54,0.149 -0.48,-0.149 0,0 -0.07,-0.529 -0.07,-0.521 0,0 -0.61,0 -0.6,0 -0.68,0.83 -0.87,0.83 -0.2,0 -0.6,0.52 -0.6,0.52 l -2.02,-0.15 -0.13,-0.3 0.19,-0.3 c 0,0 0,0 -0.12,-0.38 -0.13,-0.38 0,0 -0.67,-0.23 -0.68,-0.22 0,0 -0.75,-0.449 -0.74,-0.46 0,0 -0.47,-0.15 -0.46,-0.16 -0.2,0.15 -0.34,0.38 -0.12,0.22 -0.25,0.22 -0.33,-0.149 -0.07,-0.381 0,0 0.13,-0.381 0.13,-0.369 -0.47,-0.369 -0.88,-0.369 -0.4,0 -0.26,0.22 -0.26,-0.15 0,-0.38 -0.28,-0.15 -0.48,-0.23 -0.2,-0.08 -0.33,-0.149 -0.33,-0.149 0,0 0,0 -0.33,-0.45 l -0.41,0.45 c 0,0 -0.67,-0.15 -0.87,-0.29 -0.21,-0.15 -0.4,0 -0.4,0 l -0.28,0.59 -0.33,0.229 c 0,0 -0.14,0.83 -0.14,1.211 0,0.369 -0.61,0.3 -0.46,-0.301 0.13,-0.609 0,0 0.2,-0.3 0.21,-0.31 -0.34,-0.84 -0.34,-1.06 0,-0.221 0.46,0 0.68,-0.15 0.21,-0.15 0,-0.22 0,-0.22 L 23.5,71.95 c 0,0 -0.54,0.31 -0.73,0.31 -0.21,0 -0.15,-0.23 -0.21,-0.62 H 22.1 l -0.68,0.53 c 0,0 -0.34,0 -0.41,-0.29 -0.07,-0.311 0,-0.24 -0.28,-0.311 -0.26,-0.069 -0.4,0 -0.4,0 0,0 -0.2,0.311 -0.6,0 -0.41,-0.31 0,0 -0.21,0 -0.2,0 -0.2,-0.069 -0.48,-0.149 l -0.26,0.38 -0.46,-0.45 c 0,0 0,0 -0.4,0 -0.41,0 -0.35,0.29 -0.55,0.601 -0.2,0.3 -0.54,0 -0.54,0 0,0 -0.46,0.069 -0.67,0.149 -0.14,0.05 -0.23,0.19 -0.32,0.42 0,-0.069 -0.01,-0.149 -0.01,-0.229 0,-30.32 24.58,-54.891 54.89,-54.891 28.82,0 52.431,22.21 54.681,50.44 -0.951,0.741 -0.872,0.021 -0.872,0.021 z m 1.091,10.12 h -0.42 l -0.14,-0.699 0.279,-1.421 0.84,1.551 c -0.009,0.009 0.292,0.429 -0.559,0.569 z m -24.45,39.85 c -5.51,3.67 -11.699,6.38 -18.38,7.88 3.12,-0.63 5.71,-1.42 7.81,-2.19 3.66,-1.43 7.101,-3.239 10.32,-5.38 0.09,-0.1 0.18,-0.21 0.25,-0.31 z m -42.64,-57.8 -0.41,-0.04 c 0.01,0.01 0.02,0.02 0.02,0.02 l 0.13,0.021 h 0.26 z m -23.35,52.3 0.63,0.029 -0.64,-0.05 z m 32.72,7.76 c 3.75,0.95 6.661,0.29 6.661,0.29 -2.631,-1.04 -6.661,-0.29 -6.661,-0.29 z" style="fill:#861414;fill-opacity:1"/></g><path style="fill:#861414;fill-opacity:1;stroke-width:.053631" id="path11261" d="m 869.39183,329.03261 c -1.13814,-0.16582 -2.09628,-0.78648 -2.48412,-1.60917 -0.3469,-0.73579 -0.3524,-0.80049 -0.3847,-4.52802 -0.0321,-3.70345 -0.0168,-3.53756 -0.3478,-3.75445 -0.1078,-0.0707 -0.62762,-0.17991 -0.87482,-0.18388 -0.0385,-6e-4 -0.067,-0.0696 -0.067,-0.16198 v -0.16089 h 2.62792 2.62792 v 0.15147 c 0,0.15082 -0.002,0.15171 -0.47992,0.20655 -0.50766,0.0583 -0.69086,0.14 -0.8467,0.37774 -0.0874,0.13327 -0.0958,0.39913 -0.11062,3.47186 -0.0201,4.16222 -0.004,4.31256 0.50258,4.85461 0.31142,0.33294 0.74244,0.52761 1.26346,0.57065 1.2738,0.10523 2.2316,-0.5833 2.5528,-1.8351 0.0855,-0.33337 0.0949,-0.68225 0.0949,-3.53412 v -3.16422 l -0.1228,-0.23004 c -0.14624,-0.27384 -0.375,-0.42568 -0.70672,-0.46908 -0.52388,-0.0685 -0.53804,-0.075 -0.53804,-0.24369 v -0.15663 h 1.7698 1.76984 v 0.15704 c 0,0.15106 -0.0118,0.15846 -0.30838,0.19462 -0.5007,0.061 -0.83416,0.29033 -1.00948,0.69415 -0.0256,0.059 -0.0619,1.49496 -0.0807,3.19104 -0.0353,3.17957 -0.0645,3.61671 -0.28188,4.21731 -0.26846,0.74166 -1.057,1.45493 -1.94852,1.76253 -0.65294,0.22529 -1.78042,0.30357 -2.61696,0.1817 z m 12.21238,-4.12872 -3.39216,-4.18543 v 3.32616 c 0,2.26965 0.0192,3.41644 0.0606,3.61037 0.1107,0.5191 0.65742,0.90096 1.2899,0.90096 0.19176,0 0.20478,0.0102 0.20478,0.1609 v 0.16089 h -1.82346 -1.82346 v -0.1488 c 0,-0.14408 0.0132,-0.15089 0.41298,-0.21451 0.52198,-0.0831 0.78732,-0.24926 0.94594,-0.59254 0.11494,-0.24869 0.11608,-0.28395 0.13104,-4.09629 l 0.015,-3.84545 -0.28672,-0.33777 c -0.33752,-0.39759 -0.56744,-0.56483 -0.8355,-0.60771 -0.43098,-0.0689 -0.43646,-0.072 -0.43646,-0.24058 v -0.15987 h 1.83988 1.83988 l 2.41036,3.01262 c 1.32572,1.65694 2.44062,3.05067 2.47754,3.09719 0.054,0.068 0.0645,-0.39895 0.0536,-2.38246 -0.0126,-2.26587 -0.0217,-2.48555 -0.11294,-2.69427 -0.1824,-0.41734 -0.47186,-0.59373 -1.12062,-0.68286 -0.23816,-0.0327 -0.25474,-0.0453 -0.25474,-0.19261 v -0.15761 h 1.7162 1.71618 v 0.18771 c 0,0.15038 -0.0208,0.18771 -0.10462,0.18771 -0.0575,0 -0.23252,0.0274 -0.38882,0.0609 -0.33998,0.0728 -0.63788,0.33865 -0.7445,0.66436 -0.0545,0.16642 -0.0741,1.21829 -0.0893,4.78535 l -0.0194,4.57204 -0.14448,-10e-4 c -0.1261,-0.001 -0.57582,-0.5337 -3.53662,-4.1869 z m 14.79404,-0.009 c -2.45964,-5.76066 -2.42728,-5.69658 -2.94208,-5.82961 -0.13984,-0.0361 -0.28442,-0.0747 -0.3213,-0.0856 -0.0369,-0.0109 -0.0671,-0.0931 -0.0671,-0.18247 v -0.16258 h 2.46704 2.46702 v 0.15663 c 0,0.15413 -0.006,0.15718 -0.362,0.19185 -0.70052,0.0682 -0.9154,0.21828 -0.85402,0.59661 0.0276,0.17034 2.55656,6.15434 2.58674,6.1208 0.0275,-0.0306 2.03922,-4.55956 2.2333,-5.02791 0.25454,-0.61424 0.3084,-0.97936 0.18086,-1.22601 -0.11366,-0.21977 -0.36188,-0.37131 -0.67252,-0.41056 -0.6012,-0.0759 -0.5917,-0.072 -0.5917,-0.24295 v -0.15846 h 1.68938 1.68938 v 0.18771 c 0,0.13291 -0.024,0.18771 -0.0822,0.18771 -0.17648,0 -0.6114,0.27524 -0.84442,0.53441 -0.32366,0.35997 -0.62438,0.98578 -2.72606,5.6726 l -1.73718,3.87406 -0.16092,-4e-4 -0.16088,-4e-4 -1.79134,-4.19547 z m 29.70626,2.23685 v -1.96092 l 0.1672,0.0168 c 0.16076,0.0162 0.17216,0.0343 0.29698,0.47266 0.25972,0.91196 0.65868,1.56889 1.26414,2.08154 0.55964,0.47384 1.28018,0.76091 1.90996,0.76091 1.278,0 2.1352,-1.08648 1.6405,-2.07925 -0.25724,-0.51618 -0.78456,-0.90211 -2.20284,-1.61219 -1.39266,-0.69725 -2.05242,-1.17193 -2.485,-1.78792 -0.354,-0.50407 -0.4894,-0.87706 -0.52242,-1.43904 -0.0529,-0.89992 0.20598,-1.60136 0.81604,-2.21143 0.63006,-0.63006 1.34908,-0.91124 2.3333,-0.91247 0.68154,-8e-4 1.10846,0.0938 1.77326,0.39315 0.83586,0.37637 1.06356,0.34997 1.20594,-0.13979 0.0711,-0.24455 0.10576,-0.29369 0.20716,-0.29369 0.12106,0 0.122,0.006 0.15696,1.00558 0.0192,0.55307 0.0352,1.32536 0.0353,1.71619 v 0.71061 h -0.15884 c -0.142,0 -0.16492,-0.0241 -0.2167,-0.22793 -0.19122,-0.75301 -0.51818,-1.31736 -1.03322,-1.78344 -0.60114,-0.54401 -1.33506,-0.81915 -2.02984,-0.76096 -0.63266,0.053 -1.07114,0.32643 -1.31164,0.81797 -0.26784,0.54741 -0.0863,1.08741 0.5333,1.58658 0.1725,0.13898 0.84046,0.5223 1.49698,0.85909 1.40056,0.71846 2.02852,1.11902 2.5045,1.59751 0.56576,0.56877 0.80364,1.1647 0.80476,2.01609 0.002,0.86636 -0.21218,1.4013 -0.81142,2.03487 -0.64582,0.68282 -1.43426,1.03038 -2.45944,1.08417 -0.70272,0.0369 -1.21534,-0.0539 -2.0158,-0.35714 -0.3219,-0.12192 -0.6744,-0.22336 -0.78332,-0.2254 -0.2542,-0.005 -0.53248,0.16719 -0.66312,0.4098 -0.0846,0.15699 -0.1315,0.18898 -0.2773,0.18898 h -0.17552 v -1.96093 z m -38.7752,1.59257 c 0,-0.15319 0.002,-0.15395 0.39624,-0.17927 0.46276,-0.0297 0.70134,-0.14581 0.8622,-0.41962 0.10728,-0.18263 0.10916,-0.25803 0.10916,-4.39584 0,-3.9936 -0.005,-4.21748 -0.0983,-4.35489 -0.13772,-0.20294 -0.48248,-0.35361 -0.90728,-0.39652 -0.35408,-0.0358 -0.36202,-0.0399 -0.36202,-0.19005 v -0.15349 h 2.65474 2.65474 v 0.15459 c 0,0.15291 -0.004,0.155 -0.39156,0.19129 -0.469,0.0439 -0.76226,0.19268 -0.90414,0.45859 -0.0957,0.17935 -0.0995,0.3744 -0.086,4.38042 0.014,4.1675 0.0148,4.19362 0.12698,4.34411 0.18482,0.2479 0.42232,0.35342 0.8585,0.38141 0.39456,0.0253 0.39624,0.0261 0.39624,0.17927 v 0.15384 h -2.65474 -2.65474 z m 17.05464,0 c 0,-0.15319 0.002,-0.15395 0.39624,-0.17927 0.46278,-0.0297 0.70134,-0.14581 0.86222,-0.41962 0.10686,-0.18191 0.10946,-0.27251 0.12416,-4.30857 0.0148,-4.08768 0.014,-4.12472 -0.0971,-4.35429 -0.13962,-0.28843 -0.41538,-0.43306 -0.9235,-0.48439 -0.35408,-0.0358 -0.36204,-0.0399 -0.36204,-0.19005 v -0.15349 h 4.26368 4.26366 v 1.52849 1.52848 h -0.15986 c -0.13082,0 -0.16578,-0.0268 -0.19224,-0.14749 -0.25422,-1.15867 -0.68096,-1.72276 -1.54758,-2.04568 -0.34118,-0.12713 -1.22896,-0.21579 -2.18968,-0.21866 l -0.5229,-0.002 v 2.04503 2.04503 l 0.39242,-0.0252 c 0.90036,-0.0578 1.3983,-0.6267 1.62152,-1.8526 0.0892,-0.49004 0.0922,-0.49608 0.2449,-0.49608 h 0.15456 v 2.68155 2.68155 h -0.15252 c -0.14906,0 -0.15458,-0.0106 -0.24336,-0.46927 -0.1023,-0.52847 -0.36384,-1.13115 -0.61504,-1.41724 -0.21344,-0.24311 -0.58774,-0.4046 -1.04672,-0.45162 l -0.35968,-0.0369 0.0154,1.93735 0.0154,1.93735 0.17518,0.17527 0.17518,0.17528 0.86438,0.0172 c 1.2426,0.0247 1.90062,-0.14112 2.5511,-0.64298 0.47544,-0.36679 0.94518,-1.08478 1.1441,-1.74874 0.0612,-0.20437 0.0846,-0.22658 0.23776,-0.22658 h 0.16988 l -0.2303,1.59552 c -0.12666,0.87754 -0.23104,1.61362 -0.23198,1.63574 0,0.0221 -1.98068,0.0402 -4.39944,0.0402 h -4.39774 z m 10.1899,8e-4 c 0,-0.15095 0.005,-0.15357 0.37872,-0.18487 0.43348,-0.0363 0.71884,-0.15871 0.87814,-0.37656 0.10966,-0.14998 0.11072,-0.19182 0.11072,-4.39774 v -4.24641 l -0.11998,-0.16821 c -0.13468,-0.18884 -0.46188,-0.34129 -0.7325,-0.34129 -0.0989,0 -0.25534,-0.0151 -0.3475,-0.0335 -0.14108,-0.0282 -0.1676,-0.0579 -0.1676,-0.1877 v -0.15419 l 2.4,0.001 c 4.2269,0.002 5.12508,0.10945 5.91978,0.70952 0.79002,0.59654 1.09748,1.26439 1.05516,2.2919 -0.0206,0.49912 -0.0445,0.61541 -0.19162,0.92971 -0.19128,0.40875 -0.61846,0.89031 -0.97526,1.09942 -0.13218,0.0775 -0.41232,0.20184 -0.62252,0.2764 l -0.3822,0.13557 1.30408,1.85027 c 1.5097,2.14208 1.79184,2.47172 2.20538,2.57671 0.25592,0.065 0.28154,0.0852 0.28154,0.22224 v 0.15075 h -1.6229 -1.62288 l -1.63906,-2.31954 -1.63904,-2.31954 -0.30766,-0.0162 -0.30766,-0.0162 0.0166,1.90283 c 0.0158,1.82303 0.0212,1.90903 0.12684,2.05048 0.16432,0.21994 0.4514,0.34433 0.87696,0.38001 0.3751,0.0315 0.38034,0.034 0.38034,0.185 v 0.15312 h -2.62792 -2.62792 v -0.15312 z m 5.1849,-5.15784 c 0.83134,-0.10922 1.379,-0.52712 1.60738,-1.22652 0.13132,-0.40221 0.13372,-1.30516 0.004,-1.72835 -0.1201,-0.39353 -0.38794,-0.78661 -0.65612,-0.96294 -0.38984,-0.25632 -0.6933,-0.32789 -1.51506,-0.35732 l -0.76424,-0.0274 v 2.17881 2.17881 h 0.45198 c 0.24858,0 0.64076,-0.0248 0.87148,-0.0551 z m 14.44404,5.15711 c 0,-0.15292 0.002,-0.15399 0.38882,-0.17881 0.50082,-0.0322 0.73836,-0.14621 0.90296,-0.43353 l 0.12944,-0.22599 v -4.12958 c 0,-4.07029 -0.002,-4.13228 -0.11026,-4.31727 -0.15698,-0.26725 -0.453,-0.41491 -0.9194,-0.45862 -0.38728,-0.0363 -0.39156,-0.0384 -0.39156,-0.19128 v -0.15459 h 2.68154 2.68156 v 0.15319 c 0,0.15072 -0.006,0.15376 -0.37878,0.18839 -0.6865,0.0638 -0.98062,0.28903 -1.0416,0.79752 -0.0186,0.15517 -0.0264,2.05596 -0.0172,4.22399 0.016,3.82966 0.0194,3.94708 0.12376,4.12436 0.15404,0.26207 0.45786,0.40197 0.92514,0.426 0.3884,0.02 0.38882,0.0202 0.38882,0.17503 v 0.15503 h -2.68156 -2.68154 z m 8.09826,0 c 0,-0.15318 0.002,-0.15394 0.3961,-0.17926 0.47414,-0.0304 0.76626,-0.16504 0.91786,-0.42296 0.10452,-0.1778 0.10766,-0.29342 0.1225,-4.51318 l 0.0152,-4.3307 -0.33698,4e-4 c -0.56044,6e-4 -1.2007,0.0947 -1.48894,0.21874 -0.5021,0.216 -0.93522,0.8205 -1.1249,1.57009 -0.0924,0.36488 -0.10472,0.3836 -0.26422,0.39962 l -0.16732,0.0168 v -1.42462 -1.42462 h 4.61226 4.61228 v 1.42462 1.42462 l -0.16918,-0.0168 c -0.15854,-0.0158 -0.17492,-0.038 -0.26128,-0.35461 -0.13152,-0.48215 -0.45086,-1.09923 -0.66718,-1.28916 -0.47002,-0.41268 -0.93118,-0.54357 -1.9191,-0.54468 l -0.36202,-4e-4 0.002,4.03573 c 0,2.21965 0.0235,4.20455 0.05,4.41088 0.0426,0.33032 0.0706,0.39553 0.23452,0.54579 0.21616,0.19811 0.48422,0.28504 0.88016,0.28546 0.27702,2e-4 0.28154,0.003 0.28154,0.16119 v 0.16089 h -2.68154 -2.68154 v -0.15384 z m 10.45806,-6e-4 v -0.15449 l 0.4984,-0.0218 c 0.54702,-0.0239 0.7675,-0.11105 0.97084,-0.38363 0.10732,-0.14386 0.11364,-0.22375 0.1287,-1.62353 l 0.0158,-1.47222 -1.29664,-2.36915 c -1.95254,-3.56764 -1.95648,-3.57322 -2.58718,-3.68006 -0.20358,-0.0345 -0.22534,-0.0536 -0.24064,-0.21102 l -0.0168,-0.17312 h 2.4436 2.44362 v 0.15663 c 0,0.1537 -0.007,0.15734 -0.36022,0.1952 -0.29094,0.0311 -0.38832,0.0667 -0.50638,0.18472 -0.1073,0.10732 -0.1379,0.18014 -0.1151,0.27407 0.0655,0.27007 0.40928,0.94669 1.38206,2.7199 0.87546,1.59584 1.01628,1.82432 1.07292,1.7409 0.26024,-0.3832 2.11448,-3.5397 2.23026,-3.79657 0.23728,-0.52645 0.24636,-0.64379 0.064,-0.82611 -0.16986,-0.16987 -0.46236,-0.27255 -0.77766,-0.27302 -0.19404,-2e-4 -0.2011,-0.007 -0.2011,-0.18801 v -0.18771 h 1.55528 1.5553 v 0.18771 c 0,0.1606 -0.018,0.18771 -0.12446,0.18771 -0.0684,0 -0.25532,0.0664 -0.41526,0.14748 -0.39482,0.20023 -0.54894,0.42336 -2.21036,3.20005 l -1.38252,2.31054 0.015,1.67214 c 0.0144,1.60393 0.0194,1.67832 0.12778,1.82345 0.20334,0.2726 0.42382,0.35972 0.97086,0.38365 l 0.49838,0.0218 v 0.15449 0.1545 h -2.86924 -2.86926 v -0.1545 z m -87.31124,-13.11939 v -0.3486 h 47.65112 47.65114 v 0.3486 0.34861 h -47.65114 -47.65112 z m 8.15528,-10.44215 c -3.54698,-8.23598 -4.1455,-9.54977 -4.49388,-9.86451 -0.23958,-0.21645 -0.71218,-0.41412 -1.09992,-0.46004 l -0.25534,-0.0302 v -0.26068 -0.26069 h 4.37094 4.3709 v 0.26816 0.26815 h -0.50684 c -1.42802,0 -1.88772,0.40795 -1.57214,1.39513 0.14324,0.44807 4.49524,10.619 4.5428,10.61685 0.0342,-0.002 3.76114,-8.39019 4.0739,-9.16954 0.48982,-1.22054 0.49726,-1.85953 0.027,-2.32493 -0.32162,-0.31834 -0.94684,-0.51479 -1.64412,-0.51658 l -0.362,-10e-4 v -0.26815 -0.26816 h 2.97652 2.97652 v 0.26219 c 0,0.25616 -0.004,0.26298 -0.18396,0.29669 -0.10116,0.019 -0.36026,0.12271 -0.57572,0.23052 -0.56852,0.28441 -1.05374,0.79283 -1.4799,1.55063 -0.45568,0.8103 -0.36336,0.60941 -4.06406,8.84203 l -3.27872,7.29381 -0.26768,0.0159 -0.26768,0.0159 z m 14.20884,6.98957 v -0.26155 l 0.63016,-0.0256 c 1.0248,-0.0416 1.54154,-0.32291 1.76338,-0.95993 0.0961,-0.2759 0.1003,-0.59498 0.1003,-7.58183 0,-5.60424 -0.0152,-7.34351 -0.0657,-7.50834 -0.10022,-0.32723 -0.35248,-0.59149 -0.75282,-0.78863 -0.33642,-0.16567 -0.4,-0.17791 -1.01708,-0.19565 l -0.65822,-0.0189 v -0.26264 -0.26264 h 4.74634 4.74634 v 0.26277 0.26277 l -0.68378,0.0191 c -0.63454,0.0177 -0.7094,0.0312 -1.03914,0.18716 -0.26624,0.12593 -0.3959,0.22701 -0.51698,0.40299 -0.3189,0.46351 -0.30232,0.0742 -0.32182,7.55346 -0.018,6.93517 0,7.76069 0.17066,8.08768 0.12286,0.23455 0.4113,0.4773 0.75218,0.63308 0.276,0.12613 0.40692,0.149 0.97874,0.17103 l 0.66014,0.0254 v 0.26092 0.26091 h -4.74634 -4.74634 z m 14.42674,-0.007 v -0.26816 h 0.48004 c 0.56392,0 0.95582,-0.0737 1.28976,-0.2427 0.3037,-0.15363 0.4449,-0.30475 0.60076,-0.64288 l 0.12328,-0.26748 0.0144,-7.65583 0.0144,-7.65582 h -0.98834 c -1.35936,0 -2.04322,0.14415 -2.64638,0.5578 -0.65534,0.44947 -1.29068,1.50678 -1.5506,2.58047 -0.0784,0.324 -0.15016,0.61925 -0.1594,0.65612 -0.0108,0.0425 -0.11546,0.067 -0.28662,0.067 h -0.26986 v -2.49384 -2.49384 h 8.1251 8.1251 v 2.49384 2.49384 h -0.23928 c -0.23654,0 -0.23992,-0.003 -0.29788,-0.22793 -0.14772,-0.57449 -0.40512,-1.29001 -0.63184,-1.75642 -0.44192,-0.90916 -1.29452,-1.6074 -2.19596,-1.79842 -0.247,-0.0523 -0.71774,-0.0771 -1.47828,-0.0777 l -1.11588,-0.001 0.0212,7.54856 c 0.0162,5.75619 0.0369,7.60853 0.0874,7.80114 0.0903,0.3447 0.25476,0.57337 0.55982,0.77837 0.35604,0.23928 0.55616,0.28952 1.28182,0.32182 l 0.63016,0.028 v 0.26155 0.26154 h -4.74634 -4.74634 z m 20.5943,0.005 V 311.887 l 0.28156,-0.0664 c 0.9314,-0.21955 1.54888,-0.83189 2.2693,-2.25046 0.14232,-0.28022 1.78272,-3.91238 3.6453,-8.07146 l 3.38654,-7.56197 h 0.17516 0.17518 l 3.37152,7.66923 c 1.85434,4.21808 3.49354,7.916 3.6427,8.2176 0.41638,0.84201 0.87076,1.4882 1.1989,1.70507 0.2531,0.16724 0.77792,0.34766 1.01136,0.34766 0.0794,0 0.096,0.0462 0.096,0.26816 v 0.26815 h -4.39772 -4.39776 v -0.26067 -0.26067 l 0.60336,-0.0292 c 0.95114,-0.046 1.38464,-0.25035 1.48622,-0.70073 0.0849,-0.37645 -0.002,-0.63701 -0.8988,-2.70415 l -0.51816,-1.19402 -3.1551,0.0138 -3.15508,0.0138 -0.40576,0.91173 c -0.53512,1.20241 -0.66202,1.57968 -0.69876,2.07736 -0.0361,0.4896 0.0523,0.7835 0.31742,1.05466 0.20816,0.21292 0.36474,0.29481 0.71296,0.37294 0.24604,0.0552 1.08414,0.16876 1.24552,0.16876 0.0464,0 0.0684,0.0865 0.0684,0.26816 v 0.26815 h -3.03014 -3.03014 z m 9.56384,-8.46564 c -0.60288,-1.37898 -1.1966,-2.73901 -1.31944,-3.02228 l -0.22334,-0.51504 -1.14386,2.55302 c -0.6291,1.40415 -1.23788,2.76418 -1.35278,3.02228 l -0.20896,0.46927 h 2.67224 2.67224 z m 10.65502,8.46029 v -0.26815 l 0.362,-0.002 c 0.19912,-10e-4 0.55252,-0.0358 0.78536,-0.0773 0.69452,-0.12377 1.1528,-0.52495 1.25044,-1.09466 0.0233,-0.13606 0.0424,-3.49339 0.0424,-7.46074 0,-7.77858 0.0126,-7.42842 -0.27904,-7.81874 -0.2948,-0.39463 -0.87876,-0.59862 -1.7187,-0.60039 l -0.44246,-10e-4 v -0.27156 -0.27155 l 4.73294,0.0214 c 5.11196,0.0231 5.1909,0.0271 6.43898,0.32789 1.11674,0.26911 1.89414,0.66611 2.57238,1.31366 1.06634,1.01802 1.52008,2.24219 1.37758,3.71659 -0.0641,0.66354 -0.16962,1.05375 -0.4272,1.58001 -0.58844,1.20227 -1.58994,2.0205 -3.07436,2.51176 -0.8412,0.27839 -2.18726,0.45725 -3.44114,0.45725 -0.2714,0 -0.71436,0.0157 -0.98438,0.0348 l -0.49092,0.0349 v 2.91098 c 0,2.90312 0.0334,3.5857 0.19032,3.88915 0.0408,0.0789 0.18334,0.23958 0.31666,0.35695 0.30124,0.26516 0.68856,0.3812 1.42132,0.42584 l 0.53874,0.0328 v 0.26005 0.26006 h -4.58546 -4.58546 z m 8.30934,-9.09715 c 0.7378,-0.16421 1.44486,-0.66467 1.80004,-1.27403 0.76042,-1.30474 0.74986,-3.8643 -0.0209,-5.06544 -0.38282,-0.59657 -1.07508,-1.04941 -1.85764,-1.21518 -0.20564,-0.0436 -0.63334,-0.0796 -0.95042,-0.0801 l -0.57654,-10e-4 v 3.85849 3.85849 l 0.25474,0.021 c 0.3689,0.0304 0.95348,-0.0138 1.35072,-0.10227 z m -37.1628,3.06367 v -1.42123 h 3.91508 3.91504 v 1.42123 1.42122 h -3.91504 -3.91508 z"/></g></svg>